<?xml version="1.0" encoding="utf-8" standalone="no"?>
<!DOCTYPE svg PUBLIC "-//W3C//DTD SVG 1.1//EN"
  "http://www.w3.org/Graphics/SVG/1.1/DTD/svg11.dtd">
<!-- Created with matplotlib (https://matplotlib.org/) -->
<svg height="347.874375pt" version="1.1" viewBox="0 0 486.165625 347.874375" width="486.165625pt" xmlns="http://www.w3.org/2000/svg" xmlns:xlink="http://www.w3.org/1999/xlink">
 <metadata>
  <rdf:RDF xmlns:cc="http://creativecommons.org/ns#" xmlns:dc="http://purl.org/dc/elements/1.1/" xmlns:rdf="http://www.w3.org/1999/02/22-rdf-syntax-ns#">
   <cc:Work>
    <dc:type rdf:resource="http://purl.org/dc/dcmitype/StillImage"/>
    <dc:date>2021-08-18T11:02:00.317253</dc:date>
    <dc:format>image/svg+xml</dc:format>
    <dc:creator>
     <cc:Agent>
      <dc:title>Matplotlib v3.3.4, https://matplotlib.org/</dc:title>
     </cc:Agent>
    </dc:creator>
   </cc:Work>
  </rdf:RDF>
 </metadata>
 <defs>
  <style type="text/css">*{stroke-linecap:butt;stroke-linejoin:round;}</style>
 </defs>
 <g id="figure_1">
  <g id="patch_1">
   <path d="M 0 347.874375 
L 486.165625 347.874375 
L 486.165625 0 
L 0 0 
z
" style="fill:none;"/>
  </g>
  <g id="axes_1">
   <g id="patch_2">
    <path d="M 46.965625 310.318125 
L 478.965625 310.318125 
L 478.965625 22.318125 
L 46.965625 22.318125 
z
" style="fill:#ffffff;"/>
   </g>
   <g id="PolyCollection_1">
    <path clip-path="url(#pd53b02d9d6)" d="M 118.661268 297.227216 
L 70.646606 297.227216 
L 69.522874 294.582588 
L 68.559791 291.93796 
L 67.77538 289.293332 
L 67.183037 286.648704 
L 66.790992 284.004075 
L 66.601989 281.359447 
L 66.6132 278.714819 
L 66.816384 276.070191 
L 67.198263 273.425563 
L 67.74111 270.780935 
L 68.423501 268.136307 
L 69.221199 265.491679 
L 70.108112 262.847051 
L 71.057293 260.202423 
L 72.041909 257.557794 
L 73.036166 254.913166 
L 74.016121 252.268538 
L 74.960375 249.62391 
L 75.850611 246.979282 
L 76.671967 244.334654 
L 77.413246 241.690026 
L 78.066957 239.045398 
L 78.629211 236.40077 
L 79.099479 233.756142 
L 79.48023 231.111513 
L 79.776501 228.466885 
L 79.995385 225.822257 
L 80.145505 223.177629 
L 80.236474 220.533001 
L 80.278379 217.888373 
L 80.281308 215.243745 
L 80.254938 212.599117 
L 80.20821 209.954489 
L 80.149073 207.309861 
L 80.084343 204.665232 
L 80.019631 202.020604 
L 79.959368 199.375976 
L 79.906902 196.731348 
L 79.864649 194.08672 
L 79.834286 191.442092 
L 79.816969 188.797464 
L 79.813543 186.152836 
L 79.824739 183.508208 
L 79.85134 180.86358 
L 79.89429 178.218951 
L 79.954757 175.574323 
L 80.034133 172.929695 
L 80.133981 170.285067 
L 80.255929 167.640439 
L 80.401536 164.995811 
L 80.57212 162.351183 
L 80.768593 159.706555 
L 80.991292 157.061927 
L 81.239831 154.417299 
L 81.512996 151.77267 
L 81.808662 149.128042 
L 82.123774 146.483414 
L 82.454349 143.838786 
L 82.795542 141.194158 
L 83.141727 138.54953 
L 83.486613 135.904902 
L 83.823388 133.260274 
L 84.144858 130.615646 
L 84.44361 127.971018 
L 84.712173 125.326389 
L 84.943182 122.681761 
L 85.129558 120.037133 
L 85.264681 117.392505 
L 85.342592 114.747877 
L 85.358194 112.103249 
L 85.307476 109.458621 
L 85.18774 106.813993 
L 84.997835 104.169365 
L 84.738373 101.524737 
L 84.411925 98.880108 
L 84.02317 96.23548 
L 83.578982 93.590852 
L 83.088436 90.946224 
L 82.562713 88.301596 
L 82.014905 85.656968 
L 81.459706 83.01234 
L 80.913001 80.367712 
L 80.39136 77.723084 
L 79.911468 75.078456 
L 79.489505 72.433827 
L 79.14053 69.789199 
L 78.877877 67.144571 
L 78.712629 64.499943 
L 78.653175 61.855315 
L 78.704893 59.210687 
L 78.869967 56.566059 
L 79.147353 53.921431 
L 79.532888 51.276803 
L 80.019537 48.632175 
L 80.597745 45.987546 
L 81.255893 43.342918 
L 81.980806 40.69829 
L 82.758294 38.053662 
L 83.573693 35.409034 
L 105.73418 35.409034 
L 105.73418 35.409034 
L 106.549579 38.053662 
L 107.327067 40.69829 
L 108.05198 43.342918 
L 108.710129 45.987546 
L 109.288337 48.632175 
L 109.774985 51.276803 
L 110.160521 53.921431 
L 110.437906 56.566059 
L 110.60298 59.210687 
L 110.654698 61.855315 
L 110.595244 64.499943 
L 110.429997 67.144571 
L 110.167344 69.789199 
L 109.818368 72.433827 
L 109.396406 75.078456 
L 108.916513 77.723084 
L 108.394873 80.367712 
L 107.848167 83.01234 
L 107.292969 85.656968 
L 106.74516 88.301596 
L 106.219437 90.946224 
L 105.728891 93.590852 
L 105.284704 96.23548 
L 104.895949 98.880108 
L 104.569501 101.524737 
L 104.310038 104.169365 
L 104.120133 106.813993 
L 104.000398 109.458621 
L 103.94968 112.103249 
L 103.965281 114.747877 
L 104.043192 117.392505 
L 104.178315 120.037133 
L 104.364691 122.681761 
L 104.595701 125.326389 
L 104.864263 127.971018 
L 105.163015 130.615646 
L 105.484485 133.260274 
L 105.82126 135.904902 
L 106.166147 138.54953 
L 106.512331 141.194158 
L 106.853524 143.838786 
L 107.1841 146.483414 
L 107.499211 149.128042 
L 107.794878 151.77267 
L 108.068042 154.417299 
L 108.316582 157.061927 
L 108.53928 159.706555 
L 108.735753 162.351183 
L 108.906338 164.995811 
L 109.051944 167.640439 
L 109.173893 170.285067 
L 109.27374 172.929695 
L 109.353116 175.574323 
L 109.413583 178.218951 
L 109.456533 180.86358 
L 109.483134 183.508208 
L 109.494331 186.152836 
L 109.490904 188.797464 
L 109.473587 191.442092 
L 109.443225 194.08672 
L 109.400972 196.731348 
L 109.348506 199.375976 
L 109.288243 202.020604 
L 109.22353 204.665232 
L 109.1588 207.309861 
L 109.099664 209.954489 
L 109.052935 212.599117 
L 109.026566 215.243745 
L 109.029494 217.888373 
L 109.071399 220.533001 
L 109.162369 223.177629 
L 109.312489 225.822257 
L 109.531373 228.466885 
L 109.827643 231.111513 
L 110.208395 233.756142 
L 110.678662 236.40077 
L 111.240917 239.045398 
L 111.894628 241.690026 
L 112.635906 244.334654 
L 113.457262 246.979282 
L 114.347498 249.62391 
L 115.291753 252.268538 
L 116.271708 254.913166 
L 117.265964 257.557794 
L 118.250581 260.202423 
L 119.199761 262.847051 
L 120.086674 265.491679 
L 120.884372 268.136307 
L 121.566764 270.780935 
L 122.109611 273.425563 
L 122.49149 276.070191 
L 122.694674 278.714819 
L 122.705885 281.359447 
L 122.516881 284.004075 
L 122.124836 286.648704 
L 121.532494 289.293332 
L 120.748083 291.93796 
L 119.784999 294.582588 
L 118.661268 297.227216 
z
" style="fill:#1f77b4;fill-opacity:0.3;"/>
   </g>
   <g id="PolyCollection_2">
    <path clip-path="url(#pd53b02d9d6)" d="M 226.07672 297.227216 
L 187.646738 297.227216 
L 186.614052 294.582588 
L 185.672626 291.93796 
L 184.837119 289.293332 
L 184.119941 286.648704 
L 183.530822 284.004075 
L 183.076472 281.359447 
L 182.760368 278.714819 
L 182.582649 276.070191 
L 182.540152 273.425563 
L 182.626565 270.780935 
L 182.832705 268.136307 
L 183.146888 265.491679 
L 183.555399 262.847051 
L 184.043002 260.202423 
L 184.593505 257.557794 
L 185.190321 254.913166 
L 185.817022 252.268538 
L 186.457851 249.62391 
L 187.098178 246.979282 
L 187.724879 244.334654 
L 188.326639 241.690026 
L 188.894152 239.045398 
L 189.420237 236.40077 
L 189.899861 233.756142 
L 190.330081 231.111513 
L 190.709908 228.466885 
L 191.040116 225.822257 
L 191.323002 223.177629 
L 191.562116 220.533001 
L 191.761973 217.888373 
L 191.927767 215.243745 
L 192.065086 212.599117 
L 192.179662 209.954489 
L 192.277141 207.309861 
L 192.362891 204.665232 
L 192.441855 202.020604 
L 192.518441 199.375976 
L 192.596448 196.731348 
L 192.679043 194.08672 
L 192.768753 191.442092 
L 192.867498 188.797464 
L 192.976633 186.152836 
L 193.097014 183.508208 
L 193.229059 180.86358 
L 193.372821 178.218951 
L 193.528044 175.574323 
L 193.694222 172.929695 
L 193.870638 170.285067 
L 194.056388 167.640439 
L 194.250398 164.995811 
L 194.451417 162.351183 
L 194.658006 159.706555 
L 194.868507 157.061927 
L 195.081007 154.417299 
L 195.293299 151.77267 
L 195.502828 149.128042 
L 195.70665 146.483414 
L 195.901383 143.838786 
L 196.083169 141.194158 
L 196.247647 138.54953 
L 196.389935 135.904902 
L 196.504636 133.260274 
L 196.585869 130.615646 
L 196.627318 127.971018 
L 196.622328 125.326389 
L 196.564025 122.681761 
L 196.445488 120.037133 
L 196.259945 117.392505 
L 196.001021 114.747877 
L 195.663014 112.103249 
L 195.241193 109.458621 
L 194.732116 106.813993 
L 194.133953 104.169365 
L 193.44678 101.524737 
L 192.672858 98.880108 
L 191.816847 96.23548 
L 190.885963 93.590852 
L 189.89004 90.946224 
L 188.8415 88.301596 
L 187.755222 85.656968 
L 186.648296 83.01234 
L 185.539679 80.367712 
L 184.449747 77.723084 
L 183.399774 75.078456 
L 182.411348 72.433827 
L 181.505743 69.789199 
L 180.703289 67.144571 
L 180.022748 64.499943 
L 179.480739 61.855315 
L 179.091224 59.210687 
L 178.86508 56.566059 
L 178.809781 53.921431 
L 178.929185 51.276803 
L 179.223449 48.632175 
L 179.689061 45.987546 
L 180.318992 43.342918 
L 181.10295 40.69829 
L 182.027731 38.053662 
L 183.077654 35.409034 
L 230.645803 35.409034 
L 230.645803 35.409034 
L 231.695727 38.053662 
L 232.620508 40.69829 
L 233.404465 43.342918 
L 234.034397 45.987546 
L 234.500009 48.632175 
L 234.794273 51.276803 
L 234.913677 53.921431 
L 234.858378 56.566059 
L 234.632234 59.210687 
L 234.242718 61.855315 
L 233.70071 64.499943 
L 233.020169 67.144571 
L 232.217715 69.789199 
L 231.31211 72.433827 
L 230.323683 75.078456 
L 229.273711 77.723084 
L 228.183779 80.367712 
L 227.075161 83.01234 
L 225.968236 85.656968 
L 224.881958 88.301596 
L 223.833418 90.946224 
L 222.837494 93.590852 
L 221.90661 96.23548 
L 221.0506 98.880108 
L 220.276678 101.524737 
L 219.589505 104.169365 
L 218.991341 106.813993 
L 218.482265 109.458621 
L 218.060444 112.103249 
L 217.722436 114.747877 
L 217.463513 117.392505 
L 217.27797 120.037133 
L 217.159432 122.681761 
L 217.10113 125.326389 
L 217.09614 127.971018 
L 217.137589 130.615646 
L 217.218821 133.260274 
L 217.333523 135.904902 
L 217.475811 138.54953 
L 217.640289 141.194158 
L 217.822075 143.838786 
L 218.016808 146.483414 
L 218.22063 149.128042 
L 218.430159 151.77267 
L 218.642451 154.417299 
L 218.854951 157.061927 
L 219.065452 159.706555 
L 219.272041 162.351183 
L 219.47306 164.995811 
L 219.66707 167.640439 
L 219.85282 170.285067 
L 220.029235 172.929695 
L 220.195414 175.574323 
L 220.350637 178.218951 
L 220.494399 180.86358 
L 220.626444 183.508208 
L 220.746824 186.152836 
L 220.85596 188.797464 
L 220.954704 191.442092 
L 221.044415 194.08672 
L 221.127009 196.731348 
L 221.205017 199.375976 
L 221.281602 202.020604 
L 221.360567 204.665232 
L 221.446317 207.309861 
L 221.543796 209.954489 
L 221.658372 212.599117 
L 221.795691 215.243745 
L 221.961484 217.888373 
L 222.161342 220.533001 
L 222.400456 223.177629 
L 222.683342 225.822257 
L 223.01355 228.466885 
L 223.393376 231.111513 
L 223.823596 233.756142 
L 224.303221 236.40077 
L 224.829306 239.045398 
L 225.396819 241.690026 
L 225.998578 244.334654 
L 226.62528 246.979282 
L 227.265606 249.62391 
L 227.906436 252.268538 
L 228.533137 254.913166 
L 229.129953 257.557794 
L 229.680456 260.202423 
L 230.168059 262.847051 
L 230.576569 265.491679 
L 230.890753 268.136307 
L 231.096892 270.780935 
L 231.183306 273.425563 
L 231.140809 276.070191 
L 230.96309 278.714819 
L 230.646986 281.359447 
L 230.192636 284.004075 
L 229.603516 286.648704 
L 228.886339 289.293332 
L 228.050832 291.93796 
L 227.109405 294.582588 
L 226.07672 297.227216 
z
" style="fill:#1f77b4;fill-opacity:0.3;"/>
   </g>
   <g id="PolyCollection_3">
    <path clip-path="url(#pd53b02d9d6)" d="M 343.076781 297.227216 
L 295.062261 297.227216 
L 293.985849 294.582588 
L 293.056921 291.93796 
L 292.290845 289.293332 
L 291.699043 286.648704 
L 291.28861 284.004075 
L 291.062111 281.359447 
L 291.017573 278.714819 
L 291.148648 276.070191 
L 291.444953 273.425563 
L 291.892551 270.780935 
L 292.474555 268.136307 
L 293.171804 265.491679 
L 293.963596 262.847051 
L 294.828416 260.202423 
L 295.744652 257.557794 
L 296.691242 254.913166 
L 297.648257 252.268538 
L 298.597372 249.62391 
L 299.522239 246.979282 
L 300.408753 244.334654 
L 301.245197 241.690026 
L 302.022303 239.045398 
L 302.733213 236.40077 
L 303.373369 233.756142 
L 303.94035 231.111513 
L 304.433656 228.466885 
L 304.854476 225.822257 
L 305.205436 223.177629 
L 305.49035 220.533001 
L 305.713975 217.888373 
L 305.881791 215.243745 
L 305.999794 212.599117 
L 306.074322 209.954489 
L 306.111899 207.309861 
L 306.119111 204.665232 
L 306.102503 202.020604 
L 306.068499 199.375976 
L 306.023336 196.731348 
L 305.973012 194.08672 
L 305.923248 191.442092 
L 305.879445 188.797464 
L 305.846651 186.152836 
L 305.82952 183.508208 
L 305.832272 180.86358 
L 305.858639 178.218951 
L 305.911815 175.574323 
L 305.994391 172.929695 
L 306.108298 170.285067 
L 306.254745 167.640439 
L 306.434158 164.995811 
L 306.646133 162.351183 
L 306.889403 159.706555 
L 307.161815 157.061927 
L 307.460333 154.417299 
L 307.781059 151.77267 
L 308.119274 149.128042 
L 308.469508 146.483414 
L 308.825621 143.838786 
L 309.180908 141.194158 
L 309.528212 138.54953 
L 309.86005 135.904902 
L 310.168746 133.260274 
L 310.44657 130.615646 
L 310.685878 127.971018 
L 310.879262 125.326389 
L 311.019698 122.681761 
L 311.100707 120.037133 
L 311.116527 117.392505 
L 311.062288 114.747877 
L 310.934208 112.103249 
L 310.729789 109.458621 
L 310.448021 106.813993 
L 310.089584 104.169365 
L 309.657026 101.524737 
L 309.154916 98.880108 
L 308.58995 96.23548 
L 307.970989 93.590852 
L 307.309029 90.946224 
L 306.617066 88.301596 
L 305.909872 85.656968 
L 305.203665 83.01234 
L 304.515686 80.367712 
L 303.863686 77.723084 
L 303.265359 75.078456 
L 302.737729 72.433827 
L 302.29653 69.789199 
L 301.95562 67.144571 
L 301.726446 64.499943 
L 301.617605 61.855315 
L 301.634516 59.210687 
L 301.779234 56.566059 
L 302.050402 53.921431 
L 302.443354 51.276803 
L 302.95035 48.632175 
L 303.560942 45.987546 
L 304.262428 43.342918 
L 305.040387 40.69829 
L 305.879243 38.053662 
L 306.762846 35.409034 
L 331.376196 35.409034 
L 331.376196 35.409034 
L 332.2598 38.053662 
L 333.098655 40.69829 
L 333.876614 43.342918 
L 334.578101 45.987546 
L 335.188692 48.632175 
L 335.695689 51.276803 
L 336.08864 53.921431 
L 336.359808 56.566059 
L 336.504526 59.210687 
L 336.521437 61.855315 
L 336.412596 64.499943 
L 336.183422 67.144571 
L 335.842512 69.789199 
L 335.401313 72.433827 
L 334.873683 75.078456 
L 334.275356 77.723084 
L 333.623357 80.367712 
L 332.935377 83.01234 
L 332.22917 85.656968 
L 331.521976 88.301596 
L 330.830013 90.946224 
L 330.168053 93.590852 
L 329.549093 96.23548 
L 328.984126 98.880108 
L 328.482016 101.524737 
L 328.049458 104.169365 
L 327.691021 106.813993 
L 327.409254 109.458621 
L 327.204834 112.103249 
L 327.076754 114.747877 
L 327.022515 117.392505 
L 327.038335 120.037133 
L 327.119344 122.681761 
L 327.25978 125.326389 
L 327.453164 127.971018 
L 327.692472 130.615646 
L 327.970296 133.260274 
L 328.278992 135.904902 
L 328.61083 138.54953 
L 328.958134 141.194158 
L 329.313421 143.838786 
L 329.669535 146.483414 
L 330.019768 149.128042 
L 330.357983 151.77267 
L 330.678709 154.417299 
L 330.977227 157.061927 
L 331.249639 159.706555 
L 331.492909 162.351183 
L 331.704885 164.995811 
L 331.884297 167.640439 
L 332.030744 170.285067 
L 332.144652 172.929695 
L 332.227228 175.574323 
L 332.280403 178.218951 
L 332.30677 180.86358 
L 332.309522 183.508208 
L 332.292391 186.152836 
L 332.259597 188.797464 
L 332.215794 191.442092 
L 332.16603 194.08672 
L 332.115706 196.731348 
L 332.070543 199.375976 
L 332.036539 202.020604 
L 332.019931 204.665232 
L 332.027143 207.309861 
L 332.06472 209.954489 
L 332.139248 212.599117 
L 332.257252 215.243745 
L 332.425068 217.888373 
L 332.648693 220.533001 
L 332.933606 223.177629 
L 333.284566 225.822257 
L 333.705386 228.466885 
L 334.198693 231.111513 
L 334.765673 233.756142 
L 335.40583 236.40077 
L 336.116739 239.045398 
L 336.893845 241.690026 
L 337.730289 244.334654 
L 338.616803 246.979282 
L 339.54167 249.62391 
L 340.490785 252.268538 
L 341.4478 254.913166 
L 342.394391 257.557794 
L 343.310626 260.202423 
L 344.175446 262.847051 
L 344.967238 265.491679 
L 345.664488 268.136307 
L 346.246491 270.780935 
L 346.69409 273.425563 
L 346.990394 276.070191 
L 347.121469 278.714819 
L 347.076931 281.359447 
L 346.850433 284.004075 
L 346.439999 286.648704 
L 345.848197 289.293332 
L 345.082121 291.93796 
L 344.153193 294.582588 
L 343.076781 297.227216 
z
" style="fill:#1f77b4;fill-opacity:0.3;"/>
   </g>
   <g id="PolyCollection_4">
    <path clip-path="url(#pd53b02d9d6)" d="M 455.317738 297.227216 
L 407.236888 297.227216 
L 406.165377 294.582588 
L 405.247229 291.93796 
L 404.494892 289.293332 
L 403.916082 286.648704 
L 403.513627 284.004075 
L 403.285548 281.359447 
L 403.225365 278.714819 
L 403.322611 276.070191 
L 403.563491 273.425563 
L 403.931659 270.780935 
L 404.40905 268.136307 
L 404.976705 265.491679 
L 405.61556 262.847051 
L 406.307141 260.202423 
L 407.034147 257.557794 
L 407.780892 254.913166 
L 408.533604 252.268538 
L 409.28058 249.62391 
L 410.012215 246.979282 
L 410.720912 244.334654 
L 411.400913 241.690026 
L 412.048052 239.045398 
L 412.659481 236.40077 
L 413.233373 233.756142 
L 413.768632 231.111513 
L 414.264631 228.466885 
L 414.720986 225.822257 
L 415.137377 223.177629 
L 415.513428 220.533001 
L 415.848652 217.888373 
L 416.142451 215.243745 
L 416.394175 212.599117 
L 416.603235 209.954489 
L 416.769259 207.309861 
L 416.892271 204.665232 
L 416.972893 202.020604 
L 417.01254 199.375976 
L 417.013598 196.731348 
L 416.979557 194.08672 
L 416.915101 191.442092 
L 416.82612 188.797464 
L 416.719654 186.152836 
L 416.603744 183.508208 
L 416.487214 180.86358 
L 416.379376 178.218951 
L 416.289677 175.574323 
L 416.227307 172.929695 
L 416.200796 170.285067 
L 416.217615 167.640439 
L 416.28382 164.995811 
L 416.403748 162.351183 
L 416.579805 159.706555 
L 416.812335 157.061927 
L 417.099602 154.417299 
L 417.437862 151.77267 
L 417.821542 149.128042 
L 418.243483 146.483414 
L 418.69525 143.838786 
L 419.167477 141.194158 
L 419.65022 138.54953 
L 420.1333 135.904902 
L 420.606618 133.260274 
L 421.060417 130.615646 
L 421.485502 127.971018 
L 421.873391 125.326389 
L 422.216434 122.681761 
L 422.50787 120.037133 
L 422.741878 117.392505 
L 422.913603 114.747877 
L 423.019191 112.103249 
L 423.055839 109.458621 
L 423.021869 106.813993 
L 422.916824 104.169365 
L 422.741592 101.524737 
L 422.498536 98.880108 
L 422.191624 96.23548 
L 421.826537 93.590852 
L 421.410733 90.946224 
L 420.95345 88.301596 
L 420.465626 85.656968 
L 419.959736 83.01234 
L 419.44952 80.367712 
L 418.949636 77.723084 
L 418.475214 75.078456 
L 418.041361 72.433827 
L 417.66262 69.789199 
L 417.352429 67.144571 
L 417.122602 64.499943 
L 416.982864 61.855315 
L 416.940476 59.210687 
L 416.999958 56.566059 
L 417.162943 53.921431 
L 417.428151 51.276803 
L 417.791495 48.632175 
L 418.246302 45.987546 
L 418.78364 43.342918 
L 419.392712 40.69829 
L 420.061326 38.053662 
L 420.77637 35.409034 
L 441.778257 35.409034 
L 441.778257 35.409034 
L 442.493301 38.053662 
L 443.161914 40.69829 
L 443.770987 43.342918 
L 444.308324 45.987546 
L 444.763132 48.632175 
L 445.126476 51.276803 
L 445.391684 53.921431 
L 445.554669 56.566059 
L 445.614151 59.210687 
L 445.571762 61.855315 
L 445.432025 64.499943 
L 445.202197 67.144571 
L 444.892007 69.789199 
L 444.513265 72.433827 
L 444.079412 75.078456 
L 443.604991 77.723084 
L 443.105107 80.367712 
L 442.594891 83.01234 
L 442.089 85.656968 
L 441.601177 88.301596 
L 441.143893 90.946224 
L 440.72809 93.590852 
L 440.363003 96.23548 
L 440.056091 98.880108 
L 439.813035 101.524737 
L 439.637802 104.169365 
L 439.532758 106.813993 
L 439.498787 109.458621 
L 439.535436 112.103249 
L 439.641024 114.747877 
L 439.812749 117.392505 
L 440.046757 120.037133 
L 440.338193 122.681761 
L 440.681235 125.326389 
L 441.069125 127.971018 
L 441.494209 130.615646 
L 441.948009 133.260274 
L 442.421326 135.904902 
L 442.904407 138.54953 
L 443.38715 141.194158 
L 443.859377 143.838786 
L 444.311144 146.483414 
L 444.733085 149.128042 
L 445.116765 151.77267 
L 445.455025 154.417299 
L 445.742291 157.061927 
L 445.974821 159.706555 
L 446.150878 162.351183 
L 446.270807 164.995811 
L 446.337011 167.640439 
L 446.353831 170.285067 
L 446.32732 172.929695 
L 446.26495 175.574323 
L 446.17525 178.218951 
L 446.067412 180.86358 
L 445.950883 183.508208 
L 445.834972 186.152836 
L 445.728506 188.797464 
L 445.639526 191.442092 
L 445.57507 194.08672 
L 445.541029 196.731348 
L 445.542086 199.375976 
L 445.581734 202.020604 
L 445.662356 204.665232 
L 445.785368 207.309861 
L 445.951391 209.954489 
L 446.160452 212.599117 
L 446.412176 215.243745 
L 446.705975 217.888373 
L 447.041199 220.533001 
L 447.41725 223.177629 
L 447.83364 225.822257 
L 448.289995 228.466885 
L 448.785995 231.111513 
L 449.321254 233.756142 
L 449.895145 236.40077 
L 450.506574 239.045398 
L 451.153714 241.690026 
L 451.833714 244.334654 
L 452.542412 246.979282 
L 453.274046 249.62391 
L 454.021022 252.268538 
L 454.773734 254.913166 
L 455.52048 257.557794 
L 456.247486 260.202423 
L 456.939067 262.847051 
L 457.577921 265.491679 
L 458.145576 268.136307 
L 458.622967 270.780935 
L 458.991136 273.425563 
L 459.232016 276.070191 
L 459.329261 278.714819 
L 459.269079 281.359447 
L 459.040999 284.004075 
L 458.638545 286.648704 
L 458.059735 289.293332 
L 457.307398 291.93796 
L 456.38925 294.582588 
L 455.317738 297.227216 
z
" style="fill:#1f77b4;fill-opacity:0.3;"/>
   </g>
   <g id="matplotlib.axis_1">
    <g id="xtick_1">
     <g id="line2d_1">
      <defs>
       <path d="M 0 0 
L 0 3.5 
" id="m5a79013ef4" style="stroke:#000000;stroke-width:0.8;"/>
      </defs>
      <g>
       <use style="stroke:#000000;stroke-width:0.8;" x="94.653937" xlink:href="#m5a79013ef4" y="310.318125"/>
      </g>
     </g>
     <g id="text_1">
      <!-- 1.0 -->
      <g transform="translate(86.702374 324.916562)scale(0.1 -0.1)">
       <defs>
        <path d="M 12.40625 8.296875 
L 28.515625 8.296875 
L 28.515625 63.921875 
L 10.984375 60.40625 
L 10.984375 69.390625 
L 28.421875 72.90625 
L 38.28125 72.90625 
L 38.28125 8.296875 
L 54.390625 8.296875 
L 54.390625 0 
L 12.40625 0 
z
" id="DejaVuSans-49"/>
        <path d="M 10.6875 12.40625 
L 21 12.40625 
L 21 0 
L 10.6875 0 
z
" id="DejaVuSans-46"/>
        <path d="M 31.78125 66.40625 
Q 24.171875 66.40625 20.328125 58.90625 
Q 16.5 51.421875 16.5 36.375 
Q 16.5 21.390625 20.328125 13.890625 
Q 24.171875 6.390625 31.78125 6.390625 
Q 39.453125 6.390625 43.28125 13.890625 
Q 47.125 21.390625 47.125 36.375 
Q 47.125 51.421875 43.28125 58.90625 
Q 39.453125 66.40625 31.78125 66.40625 
z
M 31.78125 74.21875 
Q 44.046875 74.21875 50.515625 64.515625 
Q 56.984375 54.828125 56.984375 36.375 
Q 56.984375 17.96875 50.515625 8.265625 
Q 44.046875 -1.421875 31.78125 -1.421875 
Q 19.53125 -1.421875 13.0625 8.265625 
Q 6.59375 17.96875 6.59375 36.375 
Q 6.59375 54.828125 13.0625 64.515625 
Q 19.53125 74.21875 31.78125 74.21875 
z
" id="DejaVuSans-48"/>
       </defs>
       <use xlink:href="#DejaVuSans-49"/>
       <use x="63.623047" xlink:href="#DejaVuSans-46"/>
       <use x="95.410156" xlink:href="#DejaVuSans-48"/>
      </g>
     </g>
    </g>
    <g id="xtick_2">
     <g id="line2d_2">
      <g>
       <use style="stroke:#000000;stroke-width:0.8;" x="150.757833" xlink:href="#m5a79013ef4" y="310.318125"/>
      </g>
     </g>
     <g id="text_2">
      <!-- 1.5 -->
      <g transform="translate(142.80627 324.916562)scale(0.1 -0.1)">
       <defs>
        <path d="M 10.796875 72.90625 
L 49.515625 72.90625 
L 49.515625 64.59375 
L 19.828125 64.59375 
L 19.828125 46.734375 
Q 21.96875 47.46875 24.109375 47.828125 
Q 26.265625 48.1875 28.421875 48.1875 
Q 40.625 48.1875 47.75 41.5 
Q 54.890625 34.8125 54.890625 23.390625 
Q 54.890625 11.625 47.5625 5.09375 
Q 40.234375 -1.421875 26.90625 -1.421875 
Q 22.3125 -1.421875 17.546875 -0.640625 
Q 12.796875 0.140625 7.71875 1.703125 
L 7.71875 11.625 
Q 12.109375 9.234375 16.796875 8.0625 
Q 21.484375 6.890625 26.703125 6.890625 
Q 35.15625 6.890625 40.078125 11.328125 
Q 45.015625 15.765625 45.015625 23.390625 
Q 45.015625 31 40.078125 35.4375 
Q 35.15625 39.890625 26.703125 39.890625 
Q 22.75 39.890625 18.8125 39.015625 
Q 14.890625 38.140625 10.796875 36.28125 
z
" id="DejaVuSans-53"/>
       </defs>
       <use xlink:href="#DejaVuSans-49"/>
       <use x="63.623047" xlink:href="#DejaVuSans-46"/>
       <use x="95.410156" xlink:href="#DejaVuSans-53"/>
      </g>
     </g>
    </g>
    <g id="xtick_3">
     <g id="line2d_3">
      <g>
       <use style="stroke:#000000;stroke-width:0.8;" x="206.861729" xlink:href="#m5a79013ef4" y="310.318125"/>
      </g>
     </g>
     <g id="text_3">
      <!-- 2.0 -->
      <g transform="translate(198.910166 324.916562)scale(0.1 -0.1)">
       <defs>
        <path d="M 19.1875 8.296875 
L 53.609375 8.296875 
L 53.609375 0 
L 7.328125 0 
L 7.328125 8.296875 
Q 12.9375 14.109375 22.625 23.890625 
Q 32.328125 33.6875 34.8125 36.53125 
Q 39.546875 41.84375 41.421875 45.53125 
Q 43.3125 49.21875 43.3125 52.78125 
Q 43.3125 58.59375 39.234375 62.25 
Q 35.15625 65.921875 28.609375 65.921875 
Q 23.96875 65.921875 18.8125 64.3125 
Q 13.671875 62.703125 7.8125 59.421875 
L 7.8125 69.390625 
Q 13.765625 71.78125 18.9375 73 
Q 24.125 74.21875 28.421875 74.21875 
Q 39.75 74.21875 46.484375 68.546875 
Q 53.21875 62.890625 53.21875 53.421875 
Q 53.21875 48.921875 51.53125 44.890625 
Q 49.859375 40.875 45.40625 35.40625 
Q 44.1875 33.984375 37.640625 27.21875 
Q 31.109375 20.453125 19.1875 8.296875 
z
" id="DejaVuSans-50"/>
       </defs>
       <use xlink:href="#DejaVuSans-50"/>
       <use x="63.623047" xlink:href="#DejaVuSans-46"/>
       <use x="95.410156" xlink:href="#DejaVuSans-48"/>
      </g>
     </g>
    </g>
    <g id="xtick_4">
     <g id="line2d_4">
      <g>
       <use style="stroke:#000000;stroke-width:0.8;" x="262.965625" xlink:href="#m5a79013ef4" y="310.318125"/>
      </g>
     </g>
     <g id="text_4">
      <!-- 2.5 -->
      <g transform="translate(255.014063 324.916562)scale(0.1 -0.1)">
       <use xlink:href="#DejaVuSans-50"/>
       <use x="63.623047" xlink:href="#DejaVuSans-46"/>
       <use x="95.410156" xlink:href="#DejaVuSans-53"/>
      </g>
     </g>
    </g>
    <g id="xtick_5">
     <g id="line2d_5">
      <g>
       <use style="stroke:#000000;stroke-width:0.8;" x="319.069521" xlink:href="#m5a79013ef4" y="310.318125"/>
      </g>
     </g>
     <g id="text_5">
      <!-- 3.0 -->
      <g transform="translate(311.117959 324.916562)scale(0.1 -0.1)">
       <defs>
        <path d="M 40.578125 39.3125 
Q 47.65625 37.796875 51.625 33 
Q 55.609375 28.21875 55.609375 21.1875 
Q 55.609375 10.40625 48.1875 4.484375 
Q 40.765625 -1.421875 27.09375 -1.421875 
Q 22.515625 -1.421875 17.65625 -0.515625 
Q 12.796875 0.390625 7.625 2.203125 
L 7.625 11.71875 
Q 11.71875 9.328125 16.59375 8.109375 
Q 21.484375 6.890625 26.8125 6.890625 
Q 36.078125 6.890625 40.9375 10.546875 
Q 45.796875 14.203125 45.796875 21.1875 
Q 45.796875 27.640625 41.28125 31.265625 
Q 36.765625 34.90625 28.71875 34.90625 
L 20.21875 34.90625 
L 20.21875 43.015625 
L 29.109375 43.015625 
Q 36.375 43.015625 40.234375 45.921875 
Q 44.09375 48.828125 44.09375 54.296875 
Q 44.09375 59.90625 40.109375 62.90625 
Q 36.140625 65.921875 28.71875 65.921875 
Q 24.65625 65.921875 20.015625 65.03125 
Q 15.375 64.15625 9.8125 62.3125 
L 9.8125 71.09375 
Q 15.4375 72.65625 20.34375 73.4375 
Q 25.25 74.21875 29.59375 74.21875 
Q 40.828125 74.21875 47.359375 69.109375 
Q 53.90625 64.015625 53.90625 55.328125 
Q 53.90625 49.265625 50.4375 45.09375 
Q 46.96875 40.921875 40.578125 39.3125 
z
" id="DejaVuSans-51"/>
       </defs>
       <use xlink:href="#DejaVuSans-51"/>
       <use x="63.623047" xlink:href="#DejaVuSans-46"/>
       <use x="95.410156" xlink:href="#DejaVuSans-48"/>
      </g>
     </g>
    </g>
    <g id="xtick_6">
     <g id="line2d_6">
      <g>
       <use style="stroke:#000000;stroke-width:0.8;" x="375.173417" xlink:href="#m5a79013ef4" y="310.318125"/>
      </g>
     </g>
     <g id="text_6">
      <!-- 3.5 -->
      <g transform="translate(367.221855 324.916562)scale(0.1 -0.1)">
       <use xlink:href="#DejaVuSans-51"/>
       <use x="63.623047" xlink:href="#DejaVuSans-46"/>
       <use x="95.410156" xlink:href="#DejaVuSans-53"/>
      </g>
     </g>
    </g>
    <g id="xtick_7">
     <g id="line2d_7">
      <g>
       <use style="stroke:#000000;stroke-width:0.8;" x="431.277313" xlink:href="#m5a79013ef4" y="310.318125"/>
      </g>
     </g>
     <g id="text_7">
      <!-- 4.0 -->
      <g transform="translate(423.325751 324.916562)scale(0.1 -0.1)">
       <defs>
        <path d="M 37.796875 64.3125 
L 12.890625 25.390625 
L 37.796875 25.390625 
z
M 35.203125 72.90625 
L 47.609375 72.90625 
L 47.609375 25.390625 
L 58.015625 25.390625 
L 58.015625 17.1875 
L 47.609375 17.1875 
L 47.609375 0 
L 37.796875 0 
L 37.796875 17.1875 
L 4.890625 17.1875 
L 4.890625 26.703125 
z
" id="DejaVuSans-52"/>
       </defs>
       <use xlink:href="#DejaVuSans-52"/>
       <use x="63.623047" xlink:href="#DejaVuSans-46"/>
       <use x="95.410156" xlink:href="#DejaVuSans-48"/>
      </g>
     </g>
    </g>
    <g id="text_8">
     <!-- CPU core # -->
     <g transform="translate(234.603906 338.594687)scale(0.1 -0.1)">
      <defs>
       <path d="M 64.40625 67.28125 
L 64.40625 56.890625 
Q 59.421875 61.53125 53.78125 63.8125 
Q 48.140625 66.109375 41.796875 66.109375 
Q 29.296875 66.109375 22.65625 58.46875 
Q 16.015625 50.828125 16.015625 36.375 
Q 16.015625 21.96875 22.65625 14.328125 
Q 29.296875 6.6875 41.796875 6.6875 
Q 48.140625 6.6875 53.78125 8.984375 
Q 59.421875 11.28125 64.40625 15.921875 
L 64.40625 5.609375 
Q 59.234375 2.09375 53.4375 0.328125 
Q 47.65625 -1.421875 41.21875 -1.421875 
Q 24.65625 -1.421875 15.125 8.703125 
Q 5.609375 18.84375 5.609375 36.375 
Q 5.609375 53.953125 15.125 64.078125 
Q 24.65625 74.21875 41.21875 74.21875 
Q 47.75 74.21875 53.53125 72.484375 
Q 59.328125 70.75 64.40625 67.28125 
z
" id="DejaVuSans-67"/>
       <path d="M 19.671875 64.796875 
L 19.671875 37.40625 
L 32.078125 37.40625 
Q 38.96875 37.40625 42.71875 40.96875 
Q 46.484375 44.53125 46.484375 51.125 
Q 46.484375 57.671875 42.71875 61.234375 
Q 38.96875 64.796875 32.078125 64.796875 
z
M 9.8125 72.90625 
L 32.078125 72.90625 
Q 44.34375 72.90625 50.609375 67.359375 
Q 56.890625 61.8125 56.890625 51.125 
Q 56.890625 40.328125 50.609375 34.8125 
Q 44.34375 29.296875 32.078125 29.296875 
L 19.671875 29.296875 
L 19.671875 0 
L 9.8125 0 
z
" id="DejaVuSans-80"/>
       <path d="M 8.6875 72.90625 
L 18.609375 72.90625 
L 18.609375 28.609375 
Q 18.609375 16.890625 22.84375 11.734375 
Q 27.09375 6.59375 36.625 6.59375 
Q 46.09375 6.59375 50.34375 11.734375 
Q 54.59375 16.890625 54.59375 28.609375 
L 54.59375 72.90625 
L 64.5 72.90625 
L 64.5 27.390625 
Q 64.5 13.140625 57.4375 5.859375 
Q 50.390625 -1.421875 36.625 -1.421875 
Q 22.796875 -1.421875 15.734375 5.859375 
Q 8.6875 13.140625 8.6875 27.390625 
z
" id="DejaVuSans-85"/>
       <path id="DejaVuSans-32"/>
       <path d="M 48.78125 52.59375 
L 48.78125 44.1875 
Q 44.96875 46.296875 41.140625 47.34375 
Q 37.3125 48.390625 33.40625 48.390625 
Q 24.65625 48.390625 19.8125 42.84375 
Q 14.984375 37.3125 14.984375 27.296875 
Q 14.984375 17.28125 19.8125 11.734375 
Q 24.65625 6.203125 33.40625 6.203125 
Q 37.3125 6.203125 41.140625 7.25 
Q 44.96875 8.296875 48.78125 10.40625 
L 48.78125 2.09375 
Q 45.015625 0.34375 40.984375 -0.53125 
Q 36.96875 -1.421875 32.421875 -1.421875 
Q 20.0625 -1.421875 12.78125 6.34375 
Q 5.515625 14.109375 5.515625 27.296875 
Q 5.515625 40.671875 12.859375 48.328125 
Q 20.21875 56 33.015625 56 
Q 37.15625 56 41.109375 55.140625 
Q 45.0625 54.296875 48.78125 52.59375 
z
" id="DejaVuSans-99"/>
       <path d="M 30.609375 48.390625 
Q 23.390625 48.390625 19.1875 42.75 
Q 14.984375 37.109375 14.984375 27.296875 
Q 14.984375 17.484375 19.15625 11.84375 
Q 23.34375 6.203125 30.609375 6.203125 
Q 37.796875 6.203125 41.984375 11.859375 
Q 46.1875 17.53125 46.1875 27.296875 
Q 46.1875 37.015625 41.984375 42.703125 
Q 37.796875 48.390625 30.609375 48.390625 
z
M 30.609375 56 
Q 42.328125 56 49.015625 48.375 
Q 55.71875 40.765625 55.71875 27.296875 
Q 55.71875 13.875 49.015625 6.21875 
Q 42.328125 -1.421875 30.609375 -1.421875 
Q 18.84375 -1.421875 12.171875 6.21875 
Q 5.515625 13.875 5.515625 27.296875 
Q 5.515625 40.765625 12.171875 48.375 
Q 18.84375 56 30.609375 56 
z
" id="DejaVuSans-111"/>
       <path d="M 41.109375 46.296875 
Q 39.59375 47.171875 37.8125 47.578125 
Q 36.03125 48 33.890625 48 
Q 26.265625 48 22.1875 43.046875 
Q 18.109375 38.09375 18.109375 28.8125 
L 18.109375 0 
L 9.078125 0 
L 9.078125 54.6875 
L 18.109375 54.6875 
L 18.109375 46.1875 
Q 20.953125 51.171875 25.484375 53.578125 
Q 30.03125 56 36.53125 56 
Q 37.453125 56 38.578125 55.875 
Q 39.703125 55.765625 41.0625 55.515625 
z
" id="DejaVuSans-114"/>
       <path d="M 56.203125 29.59375 
L 56.203125 25.203125 
L 14.890625 25.203125 
Q 15.484375 15.921875 20.484375 11.0625 
Q 25.484375 6.203125 34.421875 6.203125 
Q 39.59375 6.203125 44.453125 7.46875 
Q 49.3125 8.734375 54.109375 11.28125 
L 54.109375 2.78125 
Q 49.265625 0.734375 44.1875 -0.34375 
Q 39.109375 -1.421875 33.890625 -1.421875 
Q 20.796875 -1.421875 13.15625 6.1875 
Q 5.515625 13.8125 5.515625 26.8125 
Q 5.515625 40.234375 12.765625 48.109375 
Q 20.015625 56 32.328125 56 
Q 43.359375 56 49.78125 48.890625 
Q 56.203125 41.796875 56.203125 29.59375 
z
M 47.21875 32.234375 
Q 47.125 39.59375 43.09375 43.984375 
Q 39.0625 48.390625 32.421875 48.390625 
Q 24.90625 48.390625 20.390625 44.140625 
Q 15.875 39.890625 15.1875 32.171875 
z
" id="DejaVuSans-101"/>
       <path d="M 51.125 44 
L 36.921875 44 
L 32.8125 27.6875 
L 47.125 27.6875 
z
M 43.796875 71.78125 
L 38.71875 51.515625 
L 52.984375 51.515625 
L 58.109375 71.78125 
L 65.921875 71.78125 
L 60.890625 51.515625 
L 76.125 51.515625 
L 76.125 44 
L 58.984375 44 
L 54.984375 27.6875 
L 70.515625 27.6875 
L 70.515625 20.21875 
L 53.078125 20.21875 
L 48 0 
L 40.1875 0 
L 45.21875 20.21875 
L 30.90625 20.21875 
L 25.875 0 
L 18.015625 0 
L 23.09375 20.21875 
L 7.71875 20.21875 
L 7.71875 27.6875 
L 24.90625 27.6875 
L 29 44 
L 13.28125 44 
L 13.28125 51.515625 
L 30.90625 51.515625 
L 35.890625 71.78125 
z
" id="DejaVuSans-35"/>
      </defs>
      <use xlink:href="#DejaVuSans-67"/>
      <use x="69.824219" xlink:href="#DejaVuSans-80"/>
      <use x="130.126953" xlink:href="#DejaVuSans-85"/>
      <use x="203.320312" xlink:href="#DejaVuSans-32"/>
      <use x="235.107422" xlink:href="#DejaVuSans-99"/>
      <use x="290.087891" xlink:href="#DejaVuSans-111"/>
      <use x="351.269531" xlink:href="#DejaVuSans-114"/>
      <use x="390.132812" xlink:href="#DejaVuSans-101"/>
      <use x="451.65625" xlink:href="#DejaVuSans-32"/>
      <use x="483.443359" xlink:href="#DejaVuSans-35"/>
     </g>
    </g>
   </g>
   <g id="matplotlib.axis_2">
    <g id="ytick_1">
     <g id="line2d_8">
      <defs>
       <path d="M 0 0 
L -3.5 0 
" id="mb70ac660d9" style="stroke:#000000;stroke-width:0.8;"/>
      </defs>
      <g>
       <use style="stroke:#000000;stroke-width:0.8;" x="46.965625" xlink:href="#mb70ac660d9" y="297.227216"/>
      </g>
     </g>
     <g id="text_9">
      <!-- 0 -->
      <g transform="translate(33.603125 301.026435)scale(0.1 -0.1)">
       <use xlink:href="#DejaVuSans-48"/>
      </g>
     </g>
    </g>
    <g id="ytick_2">
     <g id="line2d_9">
      <g>
       <use style="stroke:#000000;stroke-width:0.8;" x="46.965625" xlink:href="#mb70ac660d9" y="244.86358"/>
      </g>
     </g>
     <g id="text_10">
      <!-- 20 -->
      <g transform="translate(27.240625 248.662798)scale(0.1 -0.1)">
       <use xlink:href="#DejaVuSans-50"/>
       <use x="63.623047" xlink:href="#DejaVuSans-48"/>
      </g>
     </g>
    </g>
    <g id="ytick_3">
     <g id="line2d_10">
      <g>
       <use style="stroke:#000000;stroke-width:0.8;" x="46.965625" xlink:href="#mb70ac660d9" y="192.499943"/>
      </g>
     </g>
     <g id="text_11">
      <!-- 40 -->
      <g transform="translate(27.240625 196.299162)scale(0.1 -0.1)">
       <use xlink:href="#DejaVuSans-52"/>
       <use x="63.623047" xlink:href="#DejaVuSans-48"/>
      </g>
     </g>
    </g>
    <g id="ytick_4">
     <g id="line2d_11">
      <g>
       <use style="stroke:#000000;stroke-width:0.8;" x="46.965625" xlink:href="#mb70ac660d9" y="140.136307"/>
      </g>
     </g>
     <g id="text_12">
      <!-- 60 -->
      <g transform="translate(27.240625 143.935526)scale(0.1 -0.1)">
       <defs>
        <path d="M 33.015625 40.375 
Q 26.375 40.375 22.484375 35.828125 
Q 18.609375 31.296875 18.609375 23.390625 
Q 18.609375 15.53125 22.484375 10.953125 
Q 26.375 6.390625 33.015625 6.390625 
Q 39.65625 6.390625 43.53125 10.953125 
Q 47.40625 15.53125 47.40625 23.390625 
Q 47.40625 31.296875 43.53125 35.828125 
Q 39.65625 40.375 33.015625 40.375 
z
M 52.59375 71.296875 
L 52.59375 62.3125 
Q 48.875 64.0625 45.09375 64.984375 
Q 41.3125 65.921875 37.59375 65.921875 
Q 27.828125 65.921875 22.671875 59.328125 
Q 17.53125 52.734375 16.796875 39.40625 
Q 19.671875 43.65625 24.015625 45.921875 
Q 28.375 48.1875 33.59375 48.1875 
Q 44.578125 48.1875 50.953125 41.515625 
Q 57.328125 34.859375 57.328125 23.390625 
Q 57.328125 12.15625 50.6875 5.359375 
Q 44.046875 -1.421875 33.015625 -1.421875 
Q 20.359375 -1.421875 13.671875 8.265625 
Q 6.984375 17.96875 6.984375 36.375 
Q 6.984375 53.65625 15.1875 63.9375 
Q 23.390625 74.21875 37.203125 74.21875 
Q 40.921875 74.21875 44.703125 73.484375 
Q 48.484375 72.75 52.59375 71.296875 
z
" id="DejaVuSans-54"/>
       </defs>
       <use xlink:href="#DejaVuSans-54"/>
       <use x="63.623047" xlink:href="#DejaVuSans-48"/>
      </g>
     </g>
    </g>
    <g id="ytick_5">
     <g id="line2d_12">
      <g>
       <use style="stroke:#000000;stroke-width:0.8;" x="46.965625" xlink:href="#mb70ac660d9" y="87.77267"/>
      </g>
     </g>
     <g id="text_13">
      <!-- 80 -->
      <g transform="translate(27.240625 91.571889)scale(0.1 -0.1)">
       <defs>
        <path d="M 31.78125 34.625 
Q 24.75 34.625 20.71875 30.859375 
Q 16.703125 27.09375 16.703125 20.515625 
Q 16.703125 13.921875 20.71875 10.15625 
Q 24.75 6.390625 31.78125 6.390625 
Q 38.8125 6.390625 42.859375 10.171875 
Q 46.921875 13.96875 46.921875 20.515625 
Q 46.921875 27.09375 42.890625 30.859375 
Q 38.875 34.625 31.78125 34.625 
z
M 21.921875 38.8125 
Q 15.578125 40.375 12.03125 44.71875 
Q 8.5 49.078125 8.5 55.328125 
Q 8.5 64.0625 14.71875 69.140625 
Q 20.953125 74.21875 31.78125 74.21875 
Q 42.671875 74.21875 48.875 69.140625 
Q 55.078125 64.0625 55.078125 55.328125 
Q 55.078125 49.078125 51.53125 44.71875 
Q 48 40.375 41.703125 38.8125 
Q 48.828125 37.15625 52.796875 32.3125 
Q 56.78125 27.484375 56.78125 20.515625 
Q 56.78125 9.90625 50.3125 4.234375 
Q 43.84375 -1.421875 31.78125 -1.421875 
Q 19.734375 -1.421875 13.25 4.234375 
Q 6.78125 9.90625 6.78125 20.515625 
Q 6.78125 27.484375 10.78125 32.3125 
Q 14.796875 37.15625 21.921875 38.8125 
z
M 18.3125 54.390625 
Q 18.3125 48.734375 21.84375 45.5625 
Q 25.390625 42.390625 31.78125 42.390625 
Q 38.140625 42.390625 41.71875 45.5625 
Q 45.3125 48.734375 45.3125 54.390625 
Q 45.3125 60.0625 41.71875 63.234375 
Q 38.140625 66.40625 31.78125 66.40625 
Q 25.390625 66.40625 21.84375 63.234375 
Q 18.3125 60.0625 18.3125 54.390625 
z
" id="DejaVuSans-56"/>
       </defs>
       <use xlink:href="#DejaVuSans-56"/>
       <use x="63.623047" xlink:href="#DejaVuSans-48"/>
      </g>
     </g>
    </g>
    <g id="ytick_6">
     <g id="line2d_13">
      <g>
       <use style="stroke:#000000;stroke-width:0.8;" x="46.965625" xlink:href="#mb70ac660d9" y="35.409034"/>
      </g>
     </g>
     <g id="text_14">
      <!-- 100 -->
      <g transform="translate(20.878125 39.208253)scale(0.1 -0.1)">
       <use xlink:href="#DejaVuSans-49"/>
       <use x="63.623047" xlink:href="#DejaVuSans-48"/>
       <use x="127.246094" xlink:href="#DejaVuSans-48"/>
      </g>
     </g>
    </g>
    <g id="text_15">
     <!-- CPU % used -->
     <g transform="translate(14.798437 196.436875)rotate(-90)scale(0.1 -0.1)">
      <defs>
       <path d="M 72.703125 32.078125 
Q 68.453125 32.078125 66.03125 28.46875 
Q 63.625 24.859375 63.625 18.40625 
Q 63.625 12.0625 66.03125 8.421875 
Q 68.453125 4.78125 72.703125 4.78125 
Q 76.859375 4.78125 79.265625 8.421875 
Q 81.6875 12.0625 81.6875 18.40625 
Q 81.6875 24.8125 79.265625 28.4375 
Q 76.859375 32.078125 72.703125 32.078125 
z
M 72.703125 38.28125 
Q 80.421875 38.28125 84.953125 32.90625 
Q 89.5 27.546875 89.5 18.40625 
Q 89.5 9.28125 84.9375 3.921875 
Q 80.375 -1.421875 72.703125 -1.421875 
Q 64.890625 -1.421875 60.34375 3.921875 
Q 55.8125 9.28125 55.8125 18.40625 
Q 55.8125 27.59375 60.375 32.9375 
Q 64.9375 38.28125 72.703125 38.28125 
z
M 22.3125 68.015625 
Q 18.109375 68.015625 15.6875 64.375 
Q 13.28125 60.75 13.28125 54.390625 
Q 13.28125 47.953125 15.671875 44.328125 
Q 18.0625 40.71875 22.3125 40.71875 
Q 26.5625 40.71875 28.96875 44.328125 
Q 31.390625 47.953125 31.390625 54.390625 
Q 31.390625 60.6875 28.953125 64.34375 
Q 26.515625 68.015625 22.3125 68.015625 
z
M 66.40625 74.21875 
L 74.21875 74.21875 
L 28.609375 -1.421875 
L 20.796875 -1.421875 
z
M 22.3125 74.21875 
Q 30.03125 74.21875 34.609375 68.875 
Q 39.203125 63.53125 39.203125 54.390625 
Q 39.203125 45.171875 34.640625 39.84375 
Q 30.078125 34.515625 22.3125 34.515625 
Q 14.546875 34.515625 10.03125 39.859375 
Q 5.515625 45.21875 5.515625 54.390625 
Q 5.515625 63.484375 10.046875 68.84375 
Q 14.59375 74.21875 22.3125 74.21875 
z
" id="DejaVuSans-37"/>
       <path d="M 8.5 21.578125 
L 8.5 54.6875 
L 17.484375 54.6875 
L 17.484375 21.921875 
Q 17.484375 14.15625 20.5 10.265625 
Q 23.53125 6.390625 29.59375 6.390625 
Q 36.859375 6.390625 41.078125 11.03125 
Q 45.3125 15.671875 45.3125 23.6875 
L 45.3125 54.6875 
L 54.296875 54.6875 
L 54.296875 0 
L 45.3125 0 
L 45.3125 8.40625 
Q 42.046875 3.421875 37.71875 1 
Q 33.40625 -1.421875 27.6875 -1.421875 
Q 18.265625 -1.421875 13.375 4.4375 
Q 8.5 10.296875 8.5 21.578125 
z
M 31.109375 56 
z
" id="DejaVuSans-117"/>
       <path d="M 44.28125 53.078125 
L 44.28125 44.578125 
Q 40.484375 46.53125 36.375 47.5 
Q 32.28125 48.484375 27.875 48.484375 
Q 21.1875 48.484375 17.84375 46.4375 
Q 14.5 44.390625 14.5 40.28125 
Q 14.5 37.15625 16.890625 35.375 
Q 19.28125 33.59375 26.515625 31.984375 
L 29.59375 31.296875 
Q 39.15625 29.25 43.1875 25.515625 
Q 47.21875 21.78125 47.21875 15.09375 
Q 47.21875 7.46875 41.1875 3.015625 
Q 35.15625 -1.421875 24.609375 -1.421875 
Q 20.21875 -1.421875 15.453125 -0.5625 
Q 10.6875 0.296875 5.421875 2 
L 5.421875 11.28125 
Q 10.40625 8.6875 15.234375 7.390625 
Q 20.0625 6.109375 24.8125 6.109375 
Q 31.15625 6.109375 34.5625 8.28125 
Q 37.984375 10.453125 37.984375 14.40625 
Q 37.984375 18.0625 35.515625 20.015625 
Q 33.0625 21.96875 24.703125 23.78125 
L 21.578125 24.515625 
Q 13.234375 26.265625 9.515625 29.90625 
Q 5.8125 33.546875 5.8125 39.890625 
Q 5.8125 47.609375 11.28125 51.796875 
Q 16.75 56 26.8125 56 
Q 31.78125 56 36.171875 55.265625 
Q 40.578125 54.546875 44.28125 53.078125 
z
" id="DejaVuSans-115"/>
       <path d="M 45.40625 46.390625 
L 45.40625 75.984375 
L 54.390625 75.984375 
L 54.390625 0 
L 45.40625 0 
L 45.40625 8.203125 
Q 42.578125 3.328125 38.25 0.953125 
Q 33.9375 -1.421875 27.875 -1.421875 
Q 17.96875 -1.421875 11.734375 6.484375 
Q 5.515625 14.40625 5.515625 27.296875 
Q 5.515625 40.1875 11.734375 48.09375 
Q 17.96875 56 27.875 56 
Q 33.9375 56 38.25 53.625 
Q 42.578125 51.265625 45.40625 46.390625 
z
M 14.796875 27.296875 
Q 14.796875 17.390625 18.875 11.75 
Q 22.953125 6.109375 30.078125 6.109375 
Q 37.203125 6.109375 41.296875 11.75 
Q 45.40625 17.390625 45.40625 27.296875 
Q 45.40625 37.203125 41.296875 42.84375 
Q 37.203125 48.484375 30.078125 48.484375 
Q 22.953125 48.484375 18.875 42.84375 
Q 14.796875 37.203125 14.796875 27.296875 
z
" id="DejaVuSans-100"/>
      </defs>
      <use xlink:href="#DejaVuSans-67"/>
      <use x="69.824219" xlink:href="#DejaVuSans-80"/>
      <use x="130.126953" xlink:href="#DejaVuSans-85"/>
      <use x="203.320312" xlink:href="#DejaVuSans-32"/>
      <use x="235.107422" xlink:href="#DejaVuSans-37"/>
      <use x="330.126953" xlink:href="#DejaVuSans-32"/>
      <use x="361.914062" xlink:href="#DejaVuSans-117"/>
      <use x="425.292969" xlink:href="#DejaVuSans-115"/>
      <use x="477.392578" xlink:href="#DejaVuSans-101"/>
      <use x="538.916016" xlink:href="#DejaVuSans-100"/>
     </g>
    </g>
   </g>
   <g id="LineCollection_1">
    <path clip-path="url(#pd53b02d9d6)" d="M 80.627963 191.796765 
L 108.679911 191.796765 
" style="fill:none;stroke:#1f77b4;stroke-width:1.5;"/>
    <path clip-path="url(#pd53b02d9d6)" d="M 192.835755 160.830397 
L 220.887703 160.830397 
" style="fill:none;stroke:#1f77b4;stroke-width:1.5;"/>
    <path clip-path="url(#pd53b02d9d6)" d="M 305.043547 191.000085 
L 333.095495 191.000085 
" style="fill:none;stroke:#1f77b4;stroke-width:1.5;"/>
    <path clip-path="url(#pd53b02d9d6)" d="M 417.251339 196.078535 
L 445.303287 196.078535 
" style="fill:none;stroke:#1f77b4;stroke-width:1.5;"/>
   </g>
   <g id="LineCollection_2">
    <path clip-path="url(#pd53b02d9d6)" d="M 80.627963 35.409034 
L 108.679911 35.409034 
" style="fill:none;stroke:#1f77b4;stroke-width:1.5;"/>
    <path clip-path="url(#pd53b02d9d6)" d="M 192.835755 35.409034 
L 220.887703 35.409034 
" style="fill:none;stroke:#1f77b4;stroke-width:1.5;"/>
    <path clip-path="url(#pd53b02d9d6)" d="M 305.043547 35.409034 
L 333.095495 35.409034 
" style="fill:none;stroke:#1f77b4;stroke-width:1.5;"/>
    <path clip-path="url(#pd53b02d9d6)" d="M 417.251339 35.409034 
L 445.303287 35.409034 
" style="fill:none;stroke:#1f77b4;stroke-width:1.5;"/>
   </g>
   <g id="LineCollection_3">
    <path clip-path="url(#pd53b02d9d6)" d="M 80.627963 297.227216 
L 108.679911 297.227216 
" style="fill:none;stroke:#1f77b4;stroke-width:1.5;"/>
    <path clip-path="url(#pd53b02d9d6)" d="M 192.835755 297.227216 
L 220.887703 297.227216 
" style="fill:none;stroke:#1f77b4;stroke-width:1.5;"/>
    <path clip-path="url(#pd53b02d9d6)" d="M 305.043547 297.227216 
L 333.095495 297.227216 
" style="fill:none;stroke:#1f77b4;stroke-width:1.5;"/>
    <path clip-path="url(#pd53b02d9d6)" d="M 417.251339 297.227216 
L 445.303287 297.227216 
" style="fill:none;stroke:#1f77b4;stroke-width:1.5;"/>
   </g>
   <g id="LineCollection_4">
    <path clip-path="url(#pd53b02d9d6)" d="M 94.653937 297.227216 
L 94.653937 35.409034 
" style="fill:none;stroke:#1f77b4;stroke-width:1.5;"/>
    <path clip-path="url(#pd53b02d9d6)" d="M 206.861729 297.227216 
L 206.861729 35.409034 
" style="fill:none;stroke:#1f77b4;stroke-width:1.5;"/>
    <path clip-path="url(#pd53b02d9d6)" d="M 319.069521 297.227216 
L 319.069521 35.409034 
" style="fill:none;stroke:#1f77b4;stroke-width:1.5;"/>
    <path clip-path="url(#pd53b02d9d6)" d="M 431.277313 297.227216 
L 431.277313 35.409034 
" style="fill:none;stroke:#1f77b4;stroke-width:1.5;"/>
   </g>
   <g id="LineCollection_5">
    <path clip-path="url(#pd53b02d9d6)" d="M 80.627963 206.498143 
L 108.679911 206.498143 
" style="fill:none;stroke:#1f77b4;stroke-width:1.5;"/>
    <path clip-path="url(#pd53b02d9d6)" d="M 192.835755 161.081761 
L 220.887703 161.081761 
" style="fill:none;stroke:#1f77b4;stroke-width:1.5;"/>
    <path clip-path="url(#pd53b02d9d6)" d="M 305.043547 211.682661 
L 333.095495 211.682661 
" style="fill:none;stroke:#1f77b4;stroke-width:1.5;"/>
    <path clip-path="url(#pd53b02d9d6)" d="M 417.251339 217.078793 
L 445.303287 217.078793 
" style="fill:none;stroke:#1f77b4;stroke-width:1.5;"/>
   </g>
   <g id="patch_3">
    <path d="M 46.965625 310.318125 
L 46.965625 22.318125 
" style="fill:none;stroke:#000000;stroke-linecap:square;stroke-linejoin:miter;stroke-width:0.8;"/>
   </g>
   <g id="patch_4">
    <path d="M 478.965625 310.318125 
L 478.965625 22.318125 
" style="fill:none;stroke:#000000;stroke-linecap:square;stroke-linejoin:miter;stroke-width:0.8;"/>
   </g>
   <g id="patch_5">
    <path d="M 46.965625 310.318125 
L 478.965625 310.318125 
" style="fill:none;stroke:#000000;stroke-linecap:square;stroke-linejoin:miter;stroke-width:0.8;"/>
   </g>
   <g id="patch_6">
    <path d="M 46.965625 22.318125 
L 478.965625 22.318125 
" style="fill:none;stroke:#000000;stroke-linecap:square;stroke-linejoin:miter;stroke-width:0.8;"/>
   </g>
   <g id="text_16">
    <!-- CPU Usage for MergeAlignedReads, shard -1 -->
    <g transform="translate(130.13875 16.318125)scale(0.12 -0.12)">
     <defs>
      <path d="M 34.28125 27.484375 
Q 23.390625 27.484375 19.1875 25 
Q 14.984375 22.515625 14.984375 16.5 
Q 14.984375 11.71875 18.140625 8.90625 
Q 21.296875 6.109375 26.703125 6.109375 
Q 34.1875 6.109375 38.703125 11.40625 
Q 43.21875 16.703125 43.21875 25.484375 
L 43.21875 27.484375 
z
M 52.203125 31.203125 
L 52.203125 0 
L 43.21875 0 
L 43.21875 8.296875 
Q 40.140625 3.328125 35.546875 0.953125 
Q 30.953125 -1.421875 24.3125 -1.421875 
Q 15.921875 -1.421875 10.953125 3.296875 
Q 6 8.015625 6 15.921875 
Q 6 25.140625 12.171875 29.828125 
Q 18.359375 34.515625 30.609375 34.515625 
L 43.21875 34.515625 
L 43.21875 35.40625 
Q 43.21875 41.609375 39.140625 45 
Q 35.0625 48.390625 27.6875 48.390625 
Q 23 48.390625 18.546875 47.265625 
Q 14.109375 46.140625 10.015625 43.890625 
L 10.015625 52.203125 
Q 14.9375 54.109375 19.578125 55.046875 
Q 24.21875 56 28.609375 56 
Q 40.484375 56 46.34375 49.84375 
Q 52.203125 43.703125 52.203125 31.203125 
z
" id="DejaVuSans-97"/>
      <path d="M 45.40625 27.984375 
Q 45.40625 37.75 41.375 43.109375 
Q 37.359375 48.484375 30.078125 48.484375 
Q 22.859375 48.484375 18.828125 43.109375 
Q 14.796875 37.75 14.796875 27.984375 
Q 14.796875 18.265625 18.828125 12.890625 
Q 22.859375 7.515625 30.078125 7.515625 
Q 37.359375 7.515625 41.375 12.890625 
Q 45.40625 18.265625 45.40625 27.984375 
z
M 54.390625 6.78125 
Q 54.390625 -7.171875 48.1875 -13.984375 
Q 42 -20.796875 29.203125 -20.796875 
Q 24.46875 -20.796875 20.265625 -20.09375 
Q 16.0625 -19.390625 12.109375 -17.921875 
L 12.109375 -9.1875 
Q 16.0625 -11.328125 19.921875 -12.34375 
Q 23.78125 -13.375 27.78125 -13.375 
Q 36.625 -13.375 41.015625 -8.765625 
Q 45.40625 -4.15625 45.40625 5.171875 
L 45.40625 9.625 
Q 42.625 4.78125 38.28125 2.390625 
Q 33.9375 0 27.875 0 
Q 17.828125 0 11.671875 7.65625 
Q 5.515625 15.328125 5.515625 27.984375 
Q 5.515625 40.671875 11.671875 48.328125 
Q 17.828125 56 27.875 56 
Q 33.9375 56 38.28125 53.609375 
Q 42.625 51.21875 45.40625 46.390625 
L 45.40625 54.6875 
L 54.390625 54.6875 
z
" id="DejaVuSans-103"/>
      <path d="M 37.109375 75.984375 
L 37.109375 68.5 
L 28.515625 68.5 
Q 23.6875 68.5 21.796875 66.546875 
Q 19.921875 64.59375 19.921875 59.515625 
L 19.921875 54.6875 
L 34.71875 54.6875 
L 34.71875 47.703125 
L 19.921875 47.703125 
L 19.921875 0 
L 10.890625 0 
L 10.890625 47.703125 
L 2.296875 47.703125 
L 2.296875 54.6875 
L 10.890625 54.6875 
L 10.890625 58.5 
Q 10.890625 67.625 15.140625 71.796875 
Q 19.390625 75.984375 28.609375 75.984375 
z
" id="DejaVuSans-102"/>
      <path d="M 9.8125 72.90625 
L 24.515625 72.90625 
L 43.109375 23.296875 
L 61.8125 72.90625 
L 76.515625 72.90625 
L 76.515625 0 
L 66.890625 0 
L 66.890625 64.015625 
L 48.09375 14.015625 
L 38.1875 14.015625 
L 19.390625 64.015625 
L 19.390625 0 
L 9.8125 0 
z
" id="DejaVuSans-77"/>
      <path d="M 34.1875 63.1875 
L 20.796875 26.90625 
L 47.609375 26.90625 
z
M 28.609375 72.90625 
L 39.796875 72.90625 
L 67.578125 0 
L 57.328125 0 
L 50.6875 18.703125 
L 17.828125 18.703125 
L 11.1875 0 
L 0.78125 0 
z
" id="DejaVuSans-65"/>
      <path d="M 9.421875 75.984375 
L 18.40625 75.984375 
L 18.40625 0 
L 9.421875 0 
z
" id="DejaVuSans-108"/>
      <path d="M 9.421875 54.6875 
L 18.40625 54.6875 
L 18.40625 0 
L 9.421875 0 
z
M 9.421875 75.984375 
L 18.40625 75.984375 
L 18.40625 64.59375 
L 9.421875 64.59375 
z
" id="DejaVuSans-105"/>
      <path d="M 54.890625 33.015625 
L 54.890625 0 
L 45.90625 0 
L 45.90625 32.71875 
Q 45.90625 40.484375 42.875 44.328125 
Q 39.84375 48.1875 33.796875 48.1875 
Q 26.515625 48.1875 22.3125 43.546875 
Q 18.109375 38.921875 18.109375 30.90625 
L 18.109375 0 
L 9.078125 0 
L 9.078125 54.6875 
L 18.109375 54.6875 
L 18.109375 46.1875 
Q 21.34375 51.125 25.703125 53.5625 
Q 30.078125 56 35.796875 56 
Q 45.21875 56 50.046875 50.171875 
Q 54.890625 44.34375 54.890625 33.015625 
z
" id="DejaVuSans-110"/>
      <path d="M 44.390625 34.1875 
Q 47.5625 33.109375 50.5625 29.59375 
Q 53.5625 26.078125 56.59375 19.921875 
L 66.609375 0 
L 56 0 
L 46.6875 18.703125 
Q 43.0625 26.03125 39.671875 28.421875 
Q 36.28125 30.8125 30.421875 30.8125 
L 19.671875 30.8125 
L 19.671875 0 
L 9.8125 0 
L 9.8125 72.90625 
L 32.078125 72.90625 
Q 44.578125 72.90625 50.734375 67.671875 
Q 56.890625 62.453125 56.890625 51.90625 
Q 56.890625 45.015625 53.6875 40.46875 
Q 50.484375 35.9375 44.390625 34.1875 
z
M 19.671875 64.796875 
L 19.671875 38.921875 
L 32.078125 38.921875 
Q 39.203125 38.921875 42.84375 42.21875 
Q 46.484375 45.515625 46.484375 51.90625 
Q 46.484375 58.296875 42.84375 61.546875 
Q 39.203125 64.796875 32.078125 64.796875 
z
" id="DejaVuSans-82"/>
      <path d="M 11.71875 12.40625 
L 22.015625 12.40625 
L 22.015625 4 
L 14.015625 -11.625 
L 7.71875 -11.625 
L 11.71875 4 
z
" id="DejaVuSans-44"/>
      <path d="M 54.890625 33.015625 
L 54.890625 0 
L 45.90625 0 
L 45.90625 32.71875 
Q 45.90625 40.484375 42.875 44.328125 
Q 39.84375 48.1875 33.796875 48.1875 
Q 26.515625 48.1875 22.3125 43.546875 
Q 18.109375 38.921875 18.109375 30.90625 
L 18.109375 0 
L 9.078125 0 
L 9.078125 75.984375 
L 18.109375 75.984375 
L 18.109375 46.1875 
Q 21.34375 51.125 25.703125 53.5625 
Q 30.078125 56 35.796875 56 
Q 45.21875 56 50.046875 50.171875 
Q 54.890625 44.34375 54.890625 33.015625 
z
" id="DejaVuSans-104"/>
      <path d="M 4.890625 31.390625 
L 31.203125 31.390625 
L 31.203125 23.390625 
L 4.890625 23.390625 
z
" id="DejaVuSans-45"/>
     </defs>
     <use xlink:href="#DejaVuSans-67"/>
     <use x="69.824219" xlink:href="#DejaVuSans-80"/>
     <use x="130.126953" xlink:href="#DejaVuSans-85"/>
     <use x="203.320312" xlink:href="#DejaVuSans-32"/>
     <use x="235.107422" xlink:href="#DejaVuSans-85"/>
     <use x="308.300781" xlink:href="#DejaVuSans-115"/>
     <use x="360.400391" xlink:href="#DejaVuSans-97"/>
     <use x="421.679688" xlink:href="#DejaVuSans-103"/>
     <use x="485.15625" xlink:href="#DejaVuSans-101"/>
     <use x="546.679688" xlink:href="#DejaVuSans-32"/>
     <use x="578.466797" xlink:href="#DejaVuSans-102"/>
     <use x="613.671875" xlink:href="#DejaVuSans-111"/>
     <use x="674.853516" xlink:href="#DejaVuSans-114"/>
     <use x="715.966797" xlink:href="#DejaVuSans-32"/>
     <use x="747.753906" xlink:href="#DejaVuSans-77"/>
     <use x="834.033203" xlink:href="#DejaVuSans-101"/>
     <use x="895.556641" xlink:href="#DejaVuSans-114"/>
     <use x="934.919922" xlink:href="#DejaVuSans-103"/>
     <use x="998.396484" xlink:href="#DejaVuSans-101"/>
     <use x="1059.919922" xlink:href="#DejaVuSans-65"/>
     <use x="1128.328125" xlink:href="#DejaVuSans-108"/>
     <use x="1156.111328" xlink:href="#DejaVuSans-105"/>
     <use x="1183.894531" xlink:href="#DejaVuSans-103"/>
     <use x="1247.371094" xlink:href="#DejaVuSans-110"/>
     <use x="1310.75" xlink:href="#DejaVuSans-101"/>
     <use x="1372.273438" xlink:href="#DejaVuSans-100"/>
     <use x="1435.75" xlink:href="#DejaVuSans-82"/>
     <use x="1500.732422" xlink:href="#DejaVuSans-101"/>
     <use x="1562.255859" xlink:href="#DejaVuSans-97"/>
     <use x="1623.535156" xlink:href="#DejaVuSans-100"/>
     <use x="1687.011719" xlink:href="#DejaVuSans-115"/>
     <use x="1739.111328" xlink:href="#DejaVuSans-44"/>
     <use x="1770.898438" xlink:href="#DejaVuSans-32"/>
     <use x="1802.685547" xlink:href="#DejaVuSans-115"/>
     <use x="1854.785156" xlink:href="#DejaVuSans-104"/>
     <use x="1918.164062" xlink:href="#DejaVuSans-97"/>
     <use x="1979.443359" xlink:href="#DejaVuSans-114"/>
     <use x="2018.806641" xlink:href="#DejaVuSans-100"/>
     <use x="2082.283203" xlink:href="#DejaVuSans-32"/>
     <use x="2114.070312" xlink:href="#DejaVuSans-45"/>
     <use x="2150.154297" xlink:href="#DejaVuSans-49"/>
    </g>
   </g>
  </g>
 </g>
 <defs>
  <clipPath id="pd53b02d9d6">
   <rect height="288" width="432" x="46.965625" y="22.318125"/>
  </clipPath>
 </defs>
</svg>
