<?xml version="1.0" encoding="utf-8" standalone="no"?>
<!DOCTYPE svg PUBLIC "-//W3C//DTD SVG 1.1//EN"
  "http://www.w3.org/Graphics/SVG/1.1/DTD/svg11.dtd">
<!-- Created with matplotlib (https://matplotlib.org/) -->
<svg height="347.874375pt" version="1.1" viewBox="0 0 486.165625 347.874375" width="486.165625pt" xmlns="http://www.w3.org/2000/svg" xmlns:xlink="http://www.w3.org/1999/xlink">
 <metadata>
  <rdf:RDF xmlns:cc="http://creativecommons.org/ns#" xmlns:dc="http://purl.org/dc/elements/1.1/" xmlns:rdf="http://www.w3.org/1999/02/22-rdf-syntax-ns#">
   <cc:Work>
    <dc:type rdf:resource="http://purl.org/dc/dcmitype/StillImage"/>
    <dc:date>2021-08-18T11:02:19.925698</dc:date>
    <dc:format>image/svg+xml</dc:format>
    <dc:creator>
     <cc:Agent>
      <dc:title>Matplotlib v3.3.4, https://matplotlib.org/</dc:title>
     </cc:Agent>
    </dc:creator>
   </cc:Work>
  </rdf:RDF>
 </metadata>
 <defs>
  <style type="text/css">*{stroke-linecap:butt;stroke-linejoin:round;}</style>
 </defs>
 <g id="figure_1">
  <g id="patch_1">
   <path d="M 0 347.874375 
L 486.165625 347.874375 
L 486.165625 0 
L 0 0 
z
" style="fill:none;"/>
  </g>
  <g id="axes_1">
   <g id="patch_2">
    <path d="M 46.965625 310.318125 
L 478.965625 310.318125 
L 478.965625 22.318125 
L 46.965625 22.318125 
z
" style="fill:#ffffff;"/>
   </g>
   <g id="PolyCollection_1">
    <path clip-path="url(#p489d08123d)" d="M 119.175664 297.227216 
L 70.13221 297.227216 
L 69.137824 294.582588 
L 68.292593 291.93796 
L 67.609364 289.293332 
L 67.097199 286.648704 
L 66.761117 284.004075 
L 66.601989 281.359447 
L 66.61659 278.714819 
L 66.797804 276.070191 
L 67.134952 273.425563 
L 67.614242 270.780935 
L 68.2193 268.136307 
L 68.93176 265.491679 
L 69.731888 262.847051 
L 70.599211 260.202423 
L 71.513118 257.557794 
L 72.453431 254.913166 
L 73.40091 252.268538 
L 74.33769 249.62391 
L 75.247635 246.979282 
L 76.116618 244.334654 
L 76.932704 241.690026 
L 77.68627 239.045398 
L 78.370033 236.40077 
L 78.979024 233.756142 
L 79.510496 231.111513 
L 79.963786 228.466885 
L 80.340139 225.822257 
L 80.642503 223.177629 
L 80.875298 220.533001 
L 81.044179 217.888373 
L 81.155794 215.243745 
L 81.217535 212.599117 
L 81.237305 209.954489 
L 81.223289 207.309861 
L 81.183737 204.665232 
L 81.126768 202.020604 
L 81.060183 199.375976 
L 80.991308 196.731348 
L 80.926848 194.08672 
L 80.872766 191.442092 
L 80.834195 188.797464 
L 80.815359 186.152836 
L 80.819539 183.508208 
L 80.849052 180.86358 
L 80.905267 178.218951 
L 80.988645 175.574323 
L 81.098803 172.929695 
L 81.234599 170.285067 
L 81.394233 167.640439 
L 81.575355 164.995811 
L 81.77518 162.351183 
L 81.990588 159.706555 
L 82.218218 157.061927 
L 82.454535 154.417299 
L 82.695875 151.77267 
L 82.93846 149.128042 
L 83.178381 146.483414 
L 83.411559 143.838786 
L 83.63369 141.194158 
L 83.840173 138.54953 
L 84.026054 135.904902 
L 84.185978 133.260274 
L 84.314182 130.615646 
L 84.404531 127.971018 
L 84.450611 125.326389 
L 84.445895 122.681761 
L 84.383972 120.037133 
L 84.258844 117.392505 
L 84.065275 114.747877 
L 83.799181 112.103249 
L 83.45804 109.458621 
L 83.041282 106.813993 
L 82.550648 104.169365 
L 81.990469 101.524737 
L 81.367848 98.880108 
L 80.692719 96.23548 
L 79.977759 93.590852 
L 79.238152 90.946224 
L 78.491197 88.301596 
L 77.755782 85.656968 
L 77.051745 83.01234 
L 76.399142 80.367712 
L 75.817478 77.723084 
L 75.324938 75.078456 
L 74.937652 72.433827 
L 74.669057 69.789199 
L 74.529376 67.144571 
L 74.525251 64.499943 
L 74.659541 61.855315 
L 74.931304 59.210687 
L 75.335941 56.566059 
L 75.865504 53.921431 
L 76.509125 51.276803 
L 77.253552 48.632175 
L 78.083742 45.987546 
L 78.983483 43.342918 
L 79.936009 40.69829 
L 80.924576 38.053662 
L 81.932977 35.409034 
L 107.374897 35.409034 
L 107.374897 35.409034 
L 108.383297 38.053662 
L 109.371865 40.69829 
L 110.324391 43.342918 
L 111.224131 45.987546 
L 112.054321 48.632175 
L 112.798748 51.276803 
L 113.44237 53.921431 
L 113.971932 56.566059 
L 114.37657 59.210687 
L 114.648332 61.855315 
L 114.782623 64.499943 
L 114.778497 67.144571 
L 114.638817 69.789199 
L 114.370222 72.433827 
L 113.982936 75.078456 
L 113.490395 77.723084 
L 112.908732 80.367712 
L 112.256129 83.01234 
L 111.552091 85.656968 
L 110.816677 88.301596 
L 110.069721 90.946224 
L 109.330114 93.590852 
L 108.615155 96.23548 
L 107.940026 98.880108 
L 107.317405 101.524737 
L 106.757225 104.169365 
L 106.266591 106.813993 
L 105.849834 109.458621 
L 105.508693 112.103249 
L 105.242599 114.747877 
L 105.049029 117.392505 
L 104.923901 120.037133 
L 104.861979 122.681761 
L 104.857263 125.326389 
L 104.903343 127.971018 
L 104.993691 130.615646 
L 105.121895 133.260274 
L 105.28182 135.904902 
L 105.467701 138.54953 
L 105.674184 141.194158 
L 105.896314 143.838786 
L 106.129492 146.483414 
L 106.369413 149.128042 
L 106.611998 151.77267 
L 106.853339 154.417299 
L 107.089656 157.061927 
L 107.317285 159.706555 
L 107.532693 162.351183 
L 107.732518 164.995811 
L 107.913641 167.640439 
L 108.073274 170.285067 
L 108.20907 172.929695 
L 108.319228 175.574323 
L 108.402607 178.218951 
L 108.458822 180.86358 
L 108.488334 183.508208 
L 108.492514 186.152836 
L 108.473679 188.797464 
L 108.435107 191.442092 
L 108.381026 194.08672 
L 108.316565 196.731348 
L 108.24769 199.375976 
L 108.181105 202.020604 
L 108.124136 204.665232 
L 108.084584 207.309861 
L 108.070568 209.954489 
L 108.090339 212.599117 
L 108.15208 215.243745 
L 108.263694 217.888373 
L 108.432575 220.533001 
L 108.66537 223.177629 
L 108.967734 225.822257 
L 109.344088 228.466885 
L 109.797378 231.111513 
L 110.328849 233.756142 
L 110.93784 236.40077 
L 111.621603 239.045398 
L 112.375169 241.690026 
L 113.191256 244.334654 
L 114.060238 246.979282 
L 114.970183 249.62391 
L 115.906963 252.268538 
L 116.854442 254.913166 
L 117.794756 257.557794 
L 118.708663 260.202423 
L 119.575985 262.847051 
L 120.376114 265.491679 
L 121.088574 268.136307 
L 121.693631 270.780935 
L 122.172921 273.425563 
L 122.510069 276.070191 
L 122.691283 278.714819 
L 122.705885 281.359447 
L 122.546757 284.004075 
L 122.210674 286.648704 
L 121.69851 289.293332 
L 121.01528 291.93796 
L 120.170049 294.582588 
L 119.175664 297.227216 
z
" style="fill:#1f77b4;fill-opacity:0.3;"/>
   </g>
   <g id="PolyCollection_2">
    <path clip-path="url(#p489d08123d)" d="M 229.457521 297.227216 
L 184.265937 297.227216 
L 183.083602 294.582588 
L 182.018478 291.93796 
L 181.087722 289.293332 
L 180.305407 286.648704 
L 179.682015 284.004075 
L 179.224071 281.359447 
L 178.933938 278.714819 
L 178.809781 276.070191 
L 178.845702 273.425563 
L 179.032035 270.780935 
L 179.355779 268.136307 
L 179.801152 265.491679 
L 180.350227 262.847051 
L 180.983614 260.202423 
L 181.681166 257.557794 
L 182.422659 254.913166 
L 183.188419 252.268538 
L 183.959889 249.62391 
L 184.720086 246.979282 
L 185.453968 244.334654 
L 186.148685 241.690026 
L 186.793727 239.045398 
L 187.380975 236.40077 
L 187.904662 233.756142 
L 188.361273 231.111513 
L 188.749381 228.466885 
L 189.069459 225.822257 
L 189.323661 223.177629 
L 189.515599 220.533001 
L 189.650128 217.888373 
L 189.733132 215.243745 
L 189.771329 212.599117 
L 189.772086 209.954489 
L 189.743249 207.309861 
L 189.692977 204.665232 
L 189.629586 202.020604 
L 189.561386 199.375976 
L 189.496521 196.731348 
L 189.442805 194.08672 
L 189.407553 191.442092 
L 189.397411 188.797464 
L 189.418196 186.152836 
L 189.47474 183.508208 
L 189.570756 180.86358 
L 189.708737 178.218951 
L 189.889871 175.574323 
L 190.114013 172.929695 
L 190.379685 170.285067 
L 190.684124 167.640439 
L 191.023371 164.995811 
L 191.392389 162.351183 
L 191.785217 159.706555 
L 192.195133 157.061927 
L 192.614835 154.417299 
L 193.036614 151.77267 
L 193.45252 149.128042 
L 193.854507 146.483414 
L 194.234561 143.838786 
L 194.584798 141.194158 
L 194.897543 138.54953 
L 195.165395 135.904902 
L 195.38127 133.260274 
L 195.538453 130.615646 
L 195.63065 127.971018 
L 195.652058 125.326389 
L 195.597452 122.681761 
L 195.462304 120.037133 
L 195.242929 117.392505 
L 194.936645 114.747877 
L 194.541966 112.103249 
L 194.058791 109.458621 
L 193.488585 106.813993 
L 192.834552 104.169365 
L 192.101755 101.524737 
L 191.297196 98.880108 
L 190.429831 96.23548 
L 189.510511 93.590852 
L 188.551847 90.946224 
L 187.568007 88.301596 
L 186.574435 85.656968 
L 185.587519 83.01234 
L 184.624214 80.367712 
L 183.701637 77.723084 
L 182.836655 75.078456 
L 182.045483 72.433827 
L 181.343304 69.789199 
L 180.74393 67.144571 
L 180.259509 64.499943 
L 179.900289 61.855315 
L 179.674427 59.210687 
L 179.587868 56.566059 
L 179.644255 53.921431 
L 179.844905 51.276803 
L 180.188808 48.632175 
L 180.672673 45.987546 
L 181.291008 43.342918 
L 182.03623 40.69829 
L 182.898807 38.053662 
L 183.867442 35.409034 
L 229.856016 35.409034 
L 229.856016 35.409034 
L 230.824651 38.053662 
L 231.687228 40.69829 
L 232.43245 43.342918 
L 233.050785 45.987546 
L 233.53465 48.632175 
L 233.878552 51.276803 
L 234.079202 53.921431 
L 234.13559 56.566059 
L 234.04903 59.210687 
L 233.823169 61.855315 
L 233.463948 64.499943 
L 232.979528 67.144571 
L 232.380154 69.789199 
L 231.677975 72.433827 
L 230.886803 75.078456 
L 230.021821 77.723084 
L 229.099244 80.367712 
L 228.135939 83.01234 
L 227.149023 85.656968 
L 226.15545 88.301596 
L 225.17161 90.946224 
L 224.212947 93.590852 
L 223.293627 96.23548 
L 222.426262 98.880108 
L 221.621703 101.524737 
L 220.888906 104.169365 
L 220.234872 106.813993 
L 219.664667 109.458621 
L 219.181491 112.103249 
L 218.786813 114.747877 
L 218.480529 117.392505 
L 218.261153 120.037133 
L 218.126006 122.681761 
L 218.0714 125.326389 
L 218.092808 127.971018 
L 218.185005 130.615646 
L 218.342188 133.260274 
L 218.558063 135.904902 
L 218.825914 138.54953 
L 219.13866 141.194158 
L 219.488897 143.838786 
L 219.868951 146.483414 
L 220.270938 149.128042 
L 220.686844 151.77267 
L 221.108623 154.417299 
L 221.528325 157.061927 
L 221.938241 159.706555 
L 222.331068 162.351183 
L 222.700087 164.995811 
L 223.039333 167.640439 
L 223.343773 170.285067 
L 223.609445 172.929695 
L 223.833587 175.574323 
L 224.014721 178.218951 
L 224.152701 180.86358 
L 224.248718 183.508208 
L 224.305262 186.152836 
L 224.326046 188.797464 
L 224.315905 191.442092 
L 224.280653 194.08672 
L 224.226937 196.731348 
L 224.162072 199.375976 
L 224.093872 202.020604 
L 224.03048 204.665232 
L 223.980209 207.309861 
L 223.951372 209.954489 
L 223.952129 212.599117 
L 223.990326 215.243745 
L 224.07333 217.888373 
L 224.207859 220.533001 
L 224.399797 223.177629 
L 224.653999 225.822257 
L 224.974077 228.466885 
L 225.362185 231.111513 
L 225.818796 233.756142 
L 226.342483 236.40077 
L 226.92973 239.045398 
L 227.574773 241.690026 
L 228.26949 244.334654 
L 229.003372 246.979282 
L 229.763569 249.62391 
L 230.535038 252.268538 
L 231.300799 254.913166 
L 232.042291 257.557794 
L 232.739844 260.202423 
L 233.373231 262.847051 
L 233.922305 265.491679 
L 234.367679 268.136307 
L 234.691423 270.780935 
L 234.877756 273.425563 
L 234.913677 276.070191 
L 234.78952 278.714819 
L 234.499387 281.359447 
L 234.041443 284.004075 
L 233.418051 286.648704 
L 232.635736 289.293332 
L 231.70498 291.93796 
L 230.639856 294.582588 
L 229.457521 297.227216 
z
" style="fill:#1f77b4;fill-opacity:0.3;"/>
   </g>
   <g id="PolyCollection_3">
    <path clip-path="url(#p489d08123d)" d="M 343.254886 297.227216 
L 294.884156 297.227216 
L 293.801796 294.582588 
L 292.878747 291.93796 
L 292.130413 289.293332 
L 291.567647 286.648704 
L 291.1964 284.004075 
L 291.017573 281.359447 
L 291.027079 278.714819 
L 291.216112 276.070191 
L 291.57159 273.425563 
L 292.076754 270.780935 
L 292.711877 268.136307 
L 293.455051 265.491679 
L 294.283006 262.847051 
L 295.171929 260.202423 
L 296.098233 257.557794 
L 297.039274 254.913166 
L 297.973952 252.268538 
L 298.883225 249.62391 
L 299.75048 246.979282 
L 300.561802 244.334654 
L 301.306107 241.690026 
L 301.975177 239.045398 
L 302.563586 236.40077 
L 303.068554 233.756142 
L 303.489734 231.111513 
L 303.828956 228.466885 
L 304.089945 225.822257 
L 304.278032 223.177629 
L 304.399869 220.533001 
L 304.46316 217.888373 
L 304.476413 215.243745 
L 304.44872 212.599117 
L 304.38956 209.954489 
L 304.308618 207.309861 
L 304.215625 204.665232 
L 304.120196 202.020604 
L 304.031679 199.375976 
L 303.958982 196.731348 
L 303.910409 194.08672 
L 303.893477 191.442092 
L 303.914728 188.797464 
L 303.979551 186.152836 
L 304.092011 183.508208 
L 304.254704 180.86358 
L 304.468655 178.218951 
L 304.733257 175.574323 
L 305.046277 172.929695 
L 305.403921 170.285067 
L 305.800969 167.640439 
L 306.230969 164.995811 
L 306.686488 162.351183 
L 307.159394 159.706555 
L 307.641173 157.061927 
L 308.123237 154.417299 
L 308.597223 151.77267 
L 309.055256 149.128042 
L 309.490161 146.483414 
L 309.895616 143.838786 
L 310.266235 141.194158 
L 310.597594 138.54953 
L 310.886183 135.904902 
L 311.129326 133.260274 
L 311.325049 130.615646 
L 311.471949 127.971018 
L 311.569053 125.326389 
L 311.615713 122.681761 
L 311.611523 120.037133 
L 311.556305 117.392505 
L 311.450132 114.747877 
L 311.293423 112.103249 
L 311.087085 109.458621 
L 310.832684 106.813993 
L 310.532647 104.169365 
L 310.190455 101.524737 
L 309.810814 98.880108 
L 309.399765 96.23548 
L 308.96474 93.590852 
L 308.514512 90.946224 
L 308.059069 88.301596 
L 307.609373 85.656968 
L 307.177046 83.01234 
L 306.773979 80.367712 
L 306.411889 77.723084 
L 306.101866 75.078456 
L 305.853927 72.433827 
L 305.676611 69.789199 
L 305.576646 67.144571 
L 305.558704 64.499943 
L 305.625261 61.855315 
L 305.776566 59.210687 
L 306.010709 56.566059 
L 306.323791 53.921431 
L 306.710161 51.276803 
L 307.162713 48.632175 
L 307.673212 45.987546 
L 308.232631 43.342918 
L 308.831476 40.69829 
L 309.460089 38.053662 
L 310.108916 35.409034 
L 328.030126 35.409034 
L 328.030126 35.409034 
L 328.678953 38.053662 
L 329.307566 40.69829 
L 329.906411 43.342918 
L 330.46583 45.987546 
L 330.976329 48.632175 
L 331.428881 51.276803 
L 331.815251 53.921431 
L 332.128333 56.566059 
L 332.362476 59.210687 
L 332.513781 61.855315 
L 332.580338 64.499943 
L 332.562396 67.144571 
L 332.462431 69.789199 
L 332.285115 72.433827 
L 332.037176 75.078456 
L 331.727154 77.723084 
L 331.365063 80.367712 
L 330.961996 83.01234 
L 330.529669 85.656968 
L 330.079973 88.301596 
L 329.62453 90.946224 
L 329.174303 93.590852 
L 328.739277 96.23548 
L 328.328228 98.880108 
L 327.948587 101.524737 
L 327.606396 104.169365 
L 327.306359 106.813993 
L 327.051957 109.458621 
L 326.845619 112.103249 
L 326.688911 114.747877 
L 326.582737 117.392505 
L 326.527519 120.037133 
L 326.52333 122.681761 
L 326.569989 125.326389 
L 326.667093 127.971018 
L 326.813993 130.615646 
L 327.009716 133.260274 
L 327.252859 135.904902 
L 327.541449 138.54953 
L 327.872807 141.194158 
L 328.243426 143.838786 
L 328.648881 146.483414 
L 329.083786 149.128042 
L 329.541819 151.77267 
L 330.015806 154.417299 
L 330.497869 157.061927 
L 330.979648 159.706555 
L 331.452555 162.351183 
L 331.908073 164.995811 
L 332.338073 167.640439 
L 332.735121 170.285067 
L 333.092765 172.929695 
L 333.405785 175.574323 
L 333.670387 178.218951 
L 333.884338 180.86358 
L 334.047032 183.508208 
L 334.159491 186.152836 
L 334.224314 188.797464 
L 334.245565 191.442092 
L 334.228633 194.08672 
L 334.180061 196.731348 
L 334.107364 199.375976 
L 334.018846 202.020604 
L 333.923418 204.665232 
L 333.830424 207.309861 
L 333.749482 209.954489 
L 333.690322 212.599117 
L 333.662629 215.243745 
L 333.675882 217.888373 
L 333.739173 220.533001 
L 333.86101 223.177629 
L 334.049097 225.822257 
L 334.310086 228.466885 
L 334.649308 231.111513 
L 335.070488 233.756142 
L 335.575456 236.40077 
L 336.163865 239.045398 
L 336.832935 241.690026 
L 337.577241 244.334654 
L 338.388562 246.979282 
L 339.255818 249.62391 
L 340.16509 252.268538 
L 341.099769 254.913166 
L 342.040809 257.557794 
L 342.967114 260.202423 
L 343.856036 262.847051 
L 344.683991 265.491679 
L 345.427165 268.136307 
L 346.062289 270.780935 
L 346.567453 273.425563 
L 346.922931 276.070191 
L 347.111963 278.714819 
L 347.121469 281.359447 
L 346.942642 284.004075 
L 346.571395 286.648704 
L 346.008629 289.293332 
L 345.260295 291.93796 
L 344.337247 294.582588 
L 343.254886 297.227216 
z
" style="fill:#1f77b4;fill-opacity:0.3;"/>
   </g>
   <g id="PolyCollection_4">
    <path clip-path="url(#p489d08123d)" d="M 456.105718 297.227216 
L 406.448909 297.227216 
L 405.503607 294.582588 
L 404.715038 291.93796 
L 404.091641 289.293332 
L 403.637081 286.648704 
L 403.350226 284.004075 
L 403.225365 281.359447 
L 403.25265 278.714819 
L 403.418714 276.070191 
L 403.707444 273.425563 
L 404.100837 270.780935 
L 404.57989 268.136307 
L 405.125472 265.491679 
L 405.719108 262.847051 
L 406.343658 260.202423 
L 406.983839 257.557794 
L 407.626577 254.913166 
L 408.261186 252.268538 
L 408.879388 249.62391 
L 409.475181 246.979282 
L 410.044595 244.334654 
L 410.585363 241.690026 
L 411.096556 239.045398 
L 411.578198 236.40077 
L 412.030912 233.756142 
L 412.455615 231.111513 
L 412.853279 228.466885 
L 413.224774 225.822257 
L 413.570794 223.177629 
L 413.891857 220.533001 
L 414.188373 217.888373 
L 414.460757 215.243745 
L 414.709586 212.599117 
L 414.935744 209.954489 
L 415.140584 207.309861 
L 415.326036 204.665232 
L 415.494694 202.020604 
L 415.649839 199.375976 
L 415.795401 196.731348 
L 415.935872 194.08672 
L 416.07615 191.442092 
L 416.221341 188.797464 
L 416.37653 186.152836 
L 416.546517 183.508208 
L 416.735566 180.86358 
L 416.947156 178.218951 
L 417.183769 175.574323 
L 417.446718 172.929695 
L 417.736036 170.285067 
L 418.050433 167.640439 
L 418.387307 164.995811 
L 418.742838 162.351183 
L 419.112122 159.706555 
L 419.489369 157.061927 
L 419.868116 154.417299 
L 420.241473 151.77267 
L 420.602353 149.128042 
L 420.943698 146.483414 
L 421.258667 143.838786 
L 421.540793 141.194158 
L 421.784092 138.54953 
L 421.983137 135.904902 
L 422.133081 133.260274 
L 422.229673 130.615646 
L 422.269242 127.971018 
L 422.248688 125.326389 
L 422.165491 122.681761 
L 422.017732 120.037133 
L 421.804166 117.392505 
L 421.52432 114.747877 
L 421.178638 112.103249 
L 420.76865 109.458621 
L 420.297156 106.813993 
L 419.76842 104.169365 
L 419.188325 101.524737 
L 418.564499 98.880108 
L 417.906363 96.23548 
L 417.225097 93.590852 
L 416.533511 90.946224 
L 415.845806 88.301596 
L 415.177236 85.656968 
L 414.543678 83.01234 
L 413.961121 80.367712 
L 413.445124 77.723084 
L 413.010236 75.078456 
L 412.669452 72.433827 
L 412.433709 69.789199 
L 412.311463 67.144571 
L 412.308376 64.499943 
L 412.427123 61.855315 
L 412.667332 59.210687 
L 413.025655 56.566059 
L 413.495968 53.921431 
L 414.069667 51.276803 
L 414.736059 48.632175 
L 415.482809 45.987546 
L 416.29641 43.342918 
L 417.162676 40.69829 
L 418.067196 38.053662 
L 418.995768 35.409034 
L 443.558859 35.409034 
L 443.558859 35.409034 
L 444.487431 38.053662 
L 445.391951 40.69829 
L 446.258216 43.342918 
L 447.071818 45.987546 
L 447.818567 48.632175 
L 448.48496 51.276803 
L 449.058659 53.921431 
L 449.528972 56.566059 
L 449.887295 59.210687 
L 450.127504 61.855315 
L 450.24625 64.499943 
L 450.243164 67.144571 
L 450.120918 69.789199 
L 449.885175 72.433827 
L 449.544391 75.078456 
L 449.109503 77.723084 
L 448.593505 80.367712 
L 448.010949 83.01234 
L 447.37739 85.656968 
L 446.708821 88.301596 
L 446.021116 90.946224 
L 445.32953 93.590852 
L 444.648264 96.23548 
L 443.990127 98.880108 
L 443.366301 101.524737 
L 442.786207 104.169365 
L 442.25747 106.813993 
L 441.785977 109.458621 
L 441.375988 112.103249 
L 441.030307 114.747877 
L 440.750461 117.392505 
L 440.536895 120.037133 
L 440.389136 122.681761 
L 440.305938 125.326389 
L 440.285385 127.971018 
L 440.324954 130.615646 
L 440.421546 133.260274 
L 440.57149 135.904902 
L 440.770534 138.54953 
L 441.013834 141.194158 
L 441.29596 143.838786 
L 441.610929 146.483414 
L 441.952273 149.128042 
L 442.313153 151.77267 
L 442.68651 154.417299 
L 443.065258 157.061927 
L 443.442505 159.706555 
L 443.811789 162.351183 
L 444.167319 164.995811 
L 444.504194 167.640439 
L 444.81859 170.285067 
L 445.107909 172.929695 
L 445.370858 175.574323 
L 445.60747 178.218951 
L 445.819061 180.86358 
L 446.00811 183.508208 
L 446.178097 186.152836 
L 446.333285 188.797464 
L 446.478477 191.442092 
L 446.618755 194.08672 
L 446.759226 196.731348 
L 446.904788 199.375976 
L 447.059932 202.020604 
L 447.228591 204.665232 
L 447.414043 207.309861 
L 447.618882 209.954489 
L 447.845041 212.599117 
L 448.093869 215.243745 
L 448.366254 217.888373 
L 448.662769 220.533001 
L 448.983832 223.177629 
L 449.329853 225.822257 
L 449.701348 228.466885 
L 450.099012 231.111513 
L 450.523714 233.756142 
L 450.976428 236.40077 
L 451.45807 239.045398 
L 451.969263 241.690026 
L 452.510032 244.334654 
L 453.079445 246.979282 
L 453.675238 249.62391 
L 454.293441 252.268538 
L 454.92805 254.913166 
L 455.570787 257.557794 
L 456.210969 260.202423 
L 456.835519 262.847051 
L 457.429155 265.491679 
L 457.974736 268.136307 
L 458.45379 270.780935 
L 458.847183 273.425563 
L 459.135913 276.070191 
L 459.301977 278.714819 
L 459.329261 281.359447 
L 459.204401 284.004075 
L 458.917545 286.648704 
L 458.462985 289.293332 
L 457.839589 291.93796 
L 457.05102 294.582588 
L 456.105718 297.227216 
z
" style="fill:#1f77b4;fill-opacity:0.3;"/>
   </g>
   <g id="matplotlib.axis_1">
    <g id="xtick_1">
     <g id="line2d_1">
      <defs>
       <path d="M 0 0 
L 0 3.5 
" id="m416ed4ef21" style="stroke:#000000;stroke-width:0.8;"/>
      </defs>
      <g>
       <use style="stroke:#000000;stroke-width:0.8;" x="94.653937" xlink:href="#m416ed4ef21" y="310.318125"/>
      </g>
     </g>
     <g id="text_1">
      <!-- 1.0 -->
      <g transform="translate(86.702374 324.916562)scale(0.1 -0.1)">
       <defs>
        <path d="M 12.40625 8.296875 
L 28.515625 8.296875 
L 28.515625 63.921875 
L 10.984375 60.40625 
L 10.984375 69.390625 
L 28.421875 72.90625 
L 38.28125 72.90625 
L 38.28125 8.296875 
L 54.390625 8.296875 
L 54.390625 0 
L 12.40625 0 
z
" id="DejaVuSans-49"/>
        <path d="M 10.6875 12.40625 
L 21 12.40625 
L 21 0 
L 10.6875 0 
z
" id="DejaVuSans-46"/>
        <path d="M 31.78125 66.40625 
Q 24.171875 66.40625 20.328125 58.90625 
Q 16.5 51.421875 16.5 36.375 
Q 16.5 21.390625 20.328125 13.890625 
Q 24.171875 6.390625 31.78125 6.390625 
Q 39.453125 6.390625 43.28125 13.890625 
Q 47.125 21.390625 47.125 36.375 
Q 47.125 51.421875 43.28125 58.90625 
Q 39.453125 66.40625 31.78125 66.40625 
z
M 31.78125 74.21875 
Q 44.046875 74.21875 50.515625 64.515625 
Q 56.984375 54.828125 56.984375 36.375 
Q 56.984375 17.96875 50.515625 8.265625 
Q 44.046875 -1.421875 31.78125 -1.421875 
Q 19.53125 -1.421875 13.0625 8.265625 
Q 6.59375 17.96875 6.59375 36.375 
Q 6.59375 54.828125 13.0625 64.515625 
Q 19.53125 74.21875 31.78125 74.21875 
z
" id="DejaVuSans-48"/>
       </defs>
       <use xlink:href="#DejaVuSans-49"/>
       <use x="63.623047" xlink:href="#DejaVuSans-46"/>
       <use x="95.410156" xlink:href="#DejaVuSans-48"/>
      </g>
     </g>
    </g>
    <g id="xtick_2">
     <g id="line2d_2">
      <g>
       <use style="stroke:#000000;stroke-width:0.8;" x="150.757833" xlink:href="#m416ed4ef21" y="310.318125"/>
      </g>
     </g>
     <g id="text_2">
      <!-- 1.5 -->
      <g transform="translate(142.80627 324.916562)scale(0.1 -0.1)">
       <defs>
        <path d="M 10.796875 72.90625 
L 49.515625 72.90625 
L 49.515625 64.59375 
L 19.828125 64.59375 
L 19.828125 46.734375 
Q 21.96875 47.46875 24.109375 47.828125 
Q 26.265625 48.1875 28.421875 48.1875 
Q 40.625 48.1875 47.75 41.5 
Q 54.890625 34.8125 54.890625 23.390625 
Q 54.890625 11.625 47.5625 5.09375 
Q 40.234375 -1.421875 26.90625 -1.421875 
Q 22.3125 -1.421875 17.546875 -0.640625 
Q 12.796875 0.140625 7.71875 1.703125 
L 7.71875 11.625 
Q 12.109375 9.234375 16.796875 8.0625 
Q 21.484375 6.890625 26.703125 6.890625 
Q 35.15625 6.890625 40.078125 11.328125 
Q 45.015625 15.765625 45.015625 23.390625 
Q 45.015625 31 40.078125 35.4375 
Q 35.15625 39.890625 26.703125 39.890625 
Q 22.75 39.890625 18.8125 39.015625 
Q 14.890625 38.140625 10.796875 36.28125 
z
" id="DejaVuSans-53"/>
       </defs>
       <use xlink:href="#DejaVuSans-49"/>
       <use x="63.623047" xlink:href="#DejaVuSans-46"/>
       <use x="95.410156" xlink:href="#DejaVuSans-53"/>
      </g>
     </g>
    </g>
    <g id="xtick_3">
     <g id="line2d_3">
      <g>
       <use style="stroke:#000000;stroke-width:0.8;" x="206.861729" xlink:href="#m416ed4ef21" y="310.318125"/>
      </g>
     </g>
     <g id="text_3">
      <!-- 2.0 -->
      <g transform="translate(198.910166 324.916562)scale(0.1 -0.1)">
       <defs>
        <path d="M 19.1875 8.296875 
L 53.609375 8.296875 
L 53.609375 0 
L 7.328125 0 
L 7.328125 8.296875 
Q 12.9375 14.109375 22.625 23.890625 
Q 32.328125 33.6875 34.8125 36.53125 
Q 39.546875 41.84375 41.421875 45.53125 
Q 43.3125 49.21875 43.3125 52.78125 
Q 43.3125 58.59375 39.234375 62.25 
Q 35.15625 65.921875 28.609375 65.921875 
Q 23.96875 65.921875 18.8125 64.3125 
Q 13.671875 62.703125 7.8125 59.421875 
L 7.8125 69.390625 
Q 13.765625 71.78125 18.9375 73 
Q 24.125 74.21875 28.421875 74.21875 
Q 39.75 74.21875 46.484375 68.546875 
Q 53.21875 62.890625 53.21875 53.421875 
Q 53.21875 48.921875 51.53125 44.890625 
Q 49.859375 40.875 45.40625 35.40625 
Q 44.1875 33.984375 37.640625 27.21875 
Q 31.109375 20.453125 19.1875 8.296875 
z
" id="DejaVuSans-50"/>
       </defs>
       <use xlink:href="#DejaVuSans-50"/>
       <use x="63.623047" xlink:href="#DejaVuSans-46"/>
       <use x="95.410156" xlink:href="#DejaVuSans-48"/>
      </g>
     </g>
    </g>
    <g id="xtick_4">
     <g id="line2d_4">
      <g>
       <use style="stroke:#000000;stroke-width:0.8;" x="262.965625" xlink:href="#m416ed4ef21" y="310.318125"/>
      </g>
     </g>
     <g id="text_4">
      <!-- 2.5 -->
      <g transform="translate(255.014063 324.916562)scale(0.1 -0.1)">
       <use xlink:href="#DejaVuSans-50"/>
       <use x="63.623047" xlink:href="#DejaVuSans-46"/>
       <use x="95.410156" xlink:href="#DejaVuSans-53"/>
      </g>
     </g>
    </g>
    <g id="xtick_5">
     <g id="line2d_5">
      <g>
       <use style="stroke:#000000;stroke-width:0.8;" x="319.069521" xlink:href="#m416ed4ef21" y="310.318125"/>
      </g>
     </g>
     <g id="text_5">
      <!-- 3.0 -->
      <g transform="translate(311.117959 324.916562)scale(0.1 -0.1)">
       <defs>
        <path d="M 40.578125 39.3125 
Q 47.65625 37.796875 51.625 33 
Q 55.609375 28.21875 55.609375 21.1875 
Q 55.609375 10.40625 48.1875 4.484375 
Q 40.765625 -1.421875 27.09375 -1.421875 
Q 22.515625 -1.421875 17.65625 -0.515625 
Q 12.796875 0.390625 7.625 2.203125 
L 7.625 11.71875 
Q 11.71875 9.328125 16.59375 8.109375 
Q 21.484375 6.890625 26.8125 6.890625 
Q 36.078125 6.890625 40.9375 10.546875 
Q 45.796875 14.203125 45.796875 21.1875 
Q 45.796875 27.640625 41.28125 31.265625 
Q 36.765625 34.90625 28.71875 34.90625 
L 20.21875 34.90625 
L 20.21875 43.015625 
L 29.109375 43.015625 
Q 36.375 43.015625 40.234375 45.921875 
Q 44.09375 48.828125 44.09375 54.296875 
Q 44.09375 59.90625 40.109375 62.90625 
Q 36.140625 65.921875 28.71875 65.921875 
Q 24.65625 65.921875 20.015625 65.03125 
Q 15.375 64.15625 9.8125 62.3125 
L 9.8125 71.09375 
Q 15.4375 72.65625 20.34375 73.4375 
Q 25.25 74.21875 29.59375 74.21875 
Q 40.828125 74.21875 47.359375 69.109375 
Q 53.90625 64.015625 53.90625 55.328125 
Q 53.90625 49.265625 50.4375 45.09375 
Q 46.96875 40.921875 40.578125 39.3125 
z
" id="DejaVuSans-51"/>
       </defs>
       <use xlink:href="#DejaVuSans-51"/>
       <use x="63.623047" xlink:href="#DejaVuSans-46"/>
       <use x="95.410156" xlink:href="#DejaVuSans-48"/>
      </g>
     </g>
    </g>
    <g id="xtick_6">
     <g id="line2d_6">
      <g>
       <use style="stroke:#000000;stroke-width:0.8;" x="375.173417" xlink:href="#m416ed4ef21" y="310.318125"/>
      </g>
     </g>
     <g id="text_6">
      <!-- 3.5 -->
      <g transform="translate(367.221855 324.916562)scale(0.1 -0.1)">
       <use xlink:href="#DejaVuSans-51"/>
       <use x="63.623047" xlink:href="#DejaVuSans-46"/>
       <use x="95.410156" xlink:href="#DejaVuSans-53"/>
      </g>
     </g>
    </g>
    <g id="xtick_7">
     <g id="line2d_7">
      <g>
       <use style="stroke:#000000;stroke-width:0.8;" x="431.277313" xlink:href="#m416ed4ef21" y="310.318125"/>
      </g>
     </g>
     <g id="text_7">
      <!-- 4.0 -->
      <g transform="translate(423.325751 324.916562)scale(0.1 -0.1)">
       <defs>
        <path d="M 37.796875 64.3125 
L 12.890625 25.390625 
L 37.796875 25.390625 
z
M 35.203125 72.90625 
L 47.609375 72.90625 
L 47.609375 25.390625 
L 58.015625 25.390625 
L 58.015625 17.1875 
L 47.609375 17.1875 
L 47.609375 0 
L 37.796875 0 
L 37.796875 17.1875 
L 4.890625 17.1875 
L 4.890625 26.703125 
z
" id="DejaVuSans-52"/>
       </defs>
       <use xlink:href="#DejaVuSans-52"/>
       <use x="63.623047" xlink:href="#DejaVuSans-46"/>
       <use x="95.410156" xlink:href="#DejaVuSans-48"/>
      </g>
     </g>
    </g>
    <g id="text_8">
     <!-- CPU core # -->
     <g transform="translate(234.603906 338.594687)scale(0.1 -0.1)">
      <defs>
       <path d="M 64.40625 67.28125 
L 64.40625 56.890625 
Q 59.421875 61.53125 53.78125 63.8125 
Q 48.140625 66.109375 41.796875 66.109375 
Q 29.296875 66.109375 22.65625 58.46875 
Q 16.015625 50.828125 16.015625 36.375 
Q 16.015625 21.96875 22.65625 14.328125 
Q 29.296875 6.6875 41.796875 6.6875 
Q 48.140625 6.6875 53.78125 8.984375 
Q 59.421875 11.28125 64.40625 15.921875 
L 64.40625 5.609375 
Q 59.234375 2.09375 53.4375 0.328125 
Q 47.65625 -1.421875 41.21875 -1.421875 
Q 24.65625 -1.421875 15.125 8.703125 
Q 5.609375 18.84375 5.609375 36.375 
Q 5.609375 53.953125 15.125 64.078125 
Q 24.65625 74.21875 41.21875 74.21875 
Q 47.75 74.21875 53.53125 72.484375 
Q 59.328125 70.75 64.40625 67.28125 
z
" id="DejaVuSans-67"/>
       <path d="M 19.671875 64.796875 
L 19.671875 37.40625 
L 32.078125 37.40625 
Q 38.96875 37.40625 42.71875 40.96875 
Q 46.484375 44.53125 46.484375 51.125 
Q 46.484375 57.671875 42.71875 61.234375 
Q 38.96875 64.796875 32.078125 64.796875 
z
M 9.8125 72.90625 
L 32.078125 72.90625 
Q 44.34375 72.90625 50.609375 67.359375 
Q 56.890625 61.8125 56.890625 51.125 
Q 56.890625 40.328125 50.609375 34.8125 
Q 44.34375 29.296875 32.078125 29.296875 
L 19.671875 29.296875 
L 19.671875 0 
L 9.8125 0 
z
" id="DejaVuSans-80"/>
       <path d="M 8.6875 72.90625 
L 18.609375 72.90625 
L 18.609375 28.609375 
Q 18.609375 16.890625 22.84375 11.734375 
Q 27.09375 6.59375 36.625 6.59375 
Q 46.09375 6.59375 50.34375 11.734375 
Q 54.59375 16.890625 54.59375 28.609375 
L 54.59375 72.90625 
L 64.5 72.90625 
L 64.5 27.390625 
Q 64.5 13.140625 57.4375 5.859375 
Q 50.390625 -1.421875 36.625 -1.421875 
Q 22.796875 -1.421875 15.734375 5.859375 
Q 8.6875 13.140625 8.6875 27.390625 
z
" id="DejaVuSans-85"/>
       <path id="DejaVuSans-32"/>
       <path d="M 48.78125 52.59375 
L 48.78125 44.1875 
Q 44.96875 46.296875 41.140625 47.34375 
Q 37.3125 48.390625 33.40625 48.390625 
Q 24.65625 48.390625 19.8125 42.84375 
Q 14.984375 37.3125 14.984375 27.296875 
Q 14.984375 17.28125 19.8125 11.734375 
Q 24.65625 6.203125 33.40625 6.203125 
Q 37.3125 6.203125 41.140625 7.25 
Q 44.96875 8.296875 48.78125 10.40625 
L 48.78125 2.09375 
Q 45.015625 0.34375 40.984375 -0.53125 
Q 36.96875 -1.421875 32.421875 -1.421875 
Q 20.0625 -1.421875 12.78125 6.34375 
Q 5.515625 14.109375 5.515625 27.296875 
Q 5.515625 40.671875 12.859375 48.328125 
Q 20.21875 56 33.015625 56 
Q 37.15625 56 41.109375 55.140625 
Q 45.0625 54.296875 48.78125 52.59375 
z
" id="DejaVuSans-99"/>
       <path d="M 30.609375 48.390625 
Q 23.390625 48.390625 19.1875 42.75 
Q 14.984375 37.109375 14.984375 27.296875 
Q 14.984375 17.484375 19.15625 11.84375 
Q 23.34375 6.203125 30.609375 6.203125 
Q 37.796875 6.203125 41.984375 11.859375 
Q 46.1875 17.53125 46.1875 27.296875 
Q 46.1875 37.015625 41.984375 42.703125 
Q 37.796875 48.390625 30.609375 48.390625 
z
M 30.609375 56 
Q 42.328125 56 49.015625 48.375 
Q 55.71875 40.765625 55.71875 27.296875 
Q 55.71875 13.875 49.015625 6.21875 
Q 42.328125 -1.421875 30.609375 -1.421875 
Q 18.84375 -1.421875 12.171875 6.21875 
Q 5.515625 13.875 5.515625 27.296875 
Q 5.515625 40.765625 12.171875 48.375 
Q 18.84375 56 30.609375 56 
z
" id="DejaVuSans-111"/>
       <path d="M 41.109375 46.296875 
Q 39.59375 47.171875 37.8125 47.578125 
Q 36.03125 48 33.890625 48 
Q 26.265625 48 22.1875 43.046875 
Q 18.109375 38.09375 18.109375 28.8125 
L 18.109375 0 
L 9.078125 0 
L 9.078125 54.6875 
L 18.109375 54.6875 
L 18.109375 46.1875 
Q 20.953125 51.171875 25.484375 53.578125 
Q 30.03125 56 36.53125 56 
Q 37.453125 56 38.578125 55.875 
Q 39.703125 55.765625 41.0625 55.515625 
z
" id="DejaVuSans-114"/>
       <path d="M 56.203125 29.59375 
L 56.203125 25.203125 
L 14.890625 25.203125 
Q 15.484375 15.921875 20.484375 11.0625 
Q 25.484375 6.203125 34.421875 6.203125 
Q 39.59375 6.203125 44.453125 7.46875 
Q 49.3125 8.734375 54.109375 11.28125 
L 54.109375 2.78125 
Q 49.265625 0.734375 44.1875 -0.34375 
Q 39.109375 -1.421875 33.890625 -1.421875 
Q 20.796875 -1.421875 13.15625 6.1875 
Q 5.515625 13.8125 5.515625 26.8125 
Q 5.515625 40.234375 12.765625 48.109375 
Q 20.015625 56 32.328125 56 
Q 43.359375 56 49.78125 48.890625 
Q 56.203125 41.796875 56.203125 29.59375 
z
M 47.21875 32.234375 
Q 47.125 39.59375 43.09375 43.984375 
Q 39.0625 48.390625 32.421875 48.390625 
Q 24.90625 48.390625 20.390625 44.140625 
Q 15.875 39.890625 15.1875 32.171875 
z
" id="DejaVuSans-101"/>
       <path d="M 51.125 44 
L 36.921875 44 
L 32.8125 27.6875 
L 47.125 27.6875 
z
M 43.796875 71.78125 
L 38.71875 51.515625 
L 52.984375 51.515625 
L 58.109375 71.78125 
L 65.921875 71.78125 
L 60.890625 51.515625 
L 76.125 51.515625 
L 76.125 44 
L 58.984375 44 
L 54.984375 27.6875 
L 70.515625 27.6875 
L 70.515625 20.21875 
L 53.078125 20.21875 
L 48 0 
L 40.1875 0 
L 45.21875 20.21875 
L 30.90625 20.21875 
L 25.875 0 
L 18.015625 0 
L 23.09375 20.21875 
L 7.71875 20.21875 
L 7.71875 27.6875 
L 24.90625 27.6875 
L 29 44 
L 13.28125 44 
L 13.28125 51.515625 
L 30.90625 51.515625 
L 35.890625 71.78125 
z
" id="DejaVuSans-35"/>
      </defs>
      <use xlink:href="#DejaVuSans-67"/>
      <use x="69.824219" xlink:href="#DejaVuSans-80"/>
      <use x="130.126953" xlink:href="#DejaVuSans-85"/>
      <use x="203.320312" xlink:href="#DejaVuSans-32"/>
      <use x="235.107422" xlink:href="#DejaVuSans-99"/>
      <use x="290.087891" xlink:href="#DejaVuSans-111"/>
      <use x="351.269531" xlink:href="#DejaVuSans-114"/>
      <use x="390.132812" xlink:href="#DejaVuSans-101"/>
      <use x="451.65625" xlink:href="#DejaVuSans-32"/>
      <use x="483.443359" xlink:href="#DejaVuSans-35"/>
     </g>
    </g>
   </g>
   <g id="matplotlib.axis_2">
    <g id="ytick_1">
     <g id="line2d_8">
      <defs>
       <path d="M 0 0 
L -3.5 0 
" id="md6f19331bb" style="stroke:#000000;stroke-width:0.8;"/>
      </defs>
      <g>
       <use style="stroke:#000000;stroke-width:0.8;" x="46.965625" xlink:href="#md6f19331bb" y="297.227216"/>
      </g>
     </g>
     <g id="text_9">
      <!-- 0 -->
      <g transform="translate(33.603125 301.026435)scale(0.1 -0.1)">
       <use xlink:href="#DejaVuSans-48"/>
      </g>
     </g>
    </g>
    <g id="ytick_2">
     <g id="line2d_9">
      <g>
       <use style="stroke:#000000;stroke-width:0.8;" x="46.965625" xlink:href="#md6f19331bb" y="244.86358"/>
      </g>
     </g>
     <g id="text_10">
      <!-- 20 -->
      <g transform="translate(27.240625 248.662798)scale(0.1 -0.1)">
       <use xlink:href="#DejaVuSans-50"/>
       <use x="63.623047" xlink:href="#DejaVuSans-48"/>
      </g>
     </g>
    </g>
    <g id="ytick_3">
     <g id="line2d_10">
      <g>
       <use style="stroke:#000000;stroke-width:0.8;" x="46.965625" xlink:href="#md6f19331bb" y="192.499943"/>
      </g>
     </g>
     <g id="text_11">
      <!-- 40 -->
      <g transform="translate(27.240625 196.299162)scale(0.1 -0.1)">
       <use xlink:href="#DejaVuSans-52"/>
       <use x="63.623047" xlink:href="#DejaVuSans-48"/>
      </g>
     </g>
    </g>
    <g id="ytick_4">
     <g id="line2d_11">
      <g>
       <use style="stroke:#000000;stroke-width:0.8;" x="46.965625" xlink:href="#md6f19331bb" y="140.136307"/>
      </g>
     </g>
     <g id="text_12">
      <!-- 60 -->
      <g transform="translate(27.240625 143.935526)scale(0.1 -0.1)">
       <defs>
        <path d="M 33.015625 40.375 
Q 26.375 40.375 22.484375 35.828125 
Q 18.609375 31.296875 18.609375 23.390625 
Q 18.609375 15.53125 22.484375 10.953125 
Q 26.375 6.390625 33.015625 6.390625 
Q 39.65625 6.390625 43.53125 10.953125 
Q 47.40625 15.53125 47.40625 23.390625 
Q 47.40625 31.296875 43.53125 35.828125 
Q 39.65625 40.375 33.015625 40.375 
z
M 52.59375 71.296875 
L 52.59375 62.3125 
Q 48.875 64.0625 45.09375 64.984375 
Q 41.3125 65.921875 37.59375 65.921875 
Q 27.828125 65.921875 22.671875 59.328125 
Q 17.53125 52.734375 16.796875 39.40625 
Q 19.671875 43.65625 24.015625 45.921875 
Q 28.375 48.1875 33.59375 48.1875 
Q 44.578125 48.1875 50.953125 41.515625 
Q 57.328125 34.859375 57.328125 23.390625 
Q 57.328125 12.15625 50.6875 5.359375 
Q 44.046875 -1.421875 33.015625 -1.421875 
Q 20.359375 -1.421875 13.671875 8.265625 
Q 6.984375 17.96875 6.984375 36.375 
Q 6.984375 53.65625 15.1875 63.9375 
Q 23.390625 74.21875 37.203125 74.21875 
Q 40.921875 74.21875 44.703125 73.484375 
Q 48.484375 72.75 52.59375 71.296875 
z
" id="DejaVuSans-54"/>
       </defs>
       <use xlink:href="#DejaVuSans-54"/>
       <use x="63.623047" xlink:href="#DejaVuSans-48"/>
      </g>
     </g>
    </g>
    <g id="ytick_5">
     <g id="line2d_12">
      <g>
       <use style="stroke:#000000;stroke-width:0.8;" x="46.965625" xlink:href="#md6f19331bb" y="87.77267"/>
      </g>
     </g>
     <g id="text_13">
      <!-- 80 -->
      <g transform="translate(27.240625 91.571889)scale(0.1 -0.1)">
       <defs>
        <path d="M 31.78125 34.625 
Q 24.75 34.625 20.71875 30.859375 
Q 16.703125 27.09375 16.703125 20.515625 
Q 16.703125 13.921875 20.71875 10.15625 
Q 24.75 6.390625 31.78125 6.390625 
Q 38.8125 6.390625 42.859375 10.171875 
Q 46.921875 13.96875 46.921875 20.515625 
Q 46.921875 27.09375 42.890625 30.859375 
Q 38.875 34.625 31.78125 34.625 
z
M 21.921875 38.8125 
Q 15.578125 40.375 12.03125 44.71875 
Q 8.5 49.078125 8.5 55.328125 
Q 8.5 64.0625 14.71875 69.140625 
Q 20.953125 74.21875 31.78125 74.21875 
Q 42.671875 74.21875 48.875 69.140625 
Q 55.078125 64.0625 55.078125 55.328125 
Q 55.078125 49.078125 51.53125 44.71875 
Q 48 40.375 41.703125 38.8125 
Q 48.828125 37.15625 52.796875 32.3125 
Q 56.78125 27.484375 56.78125 20.515625 
Q 56.78125 9.90625 50.3125 4.234375 
Q 43.84375 -1.421875 31.78125 -1.421875 
Q 19.734375 -1.421875 13.25 4.234375 
Q 6.78125 9.90625 6.78125 20.515625 
Q 6.78125 27.484375 10.78125 32.3125 
Q 14.796875 37.15625 21.921875 38.8125 
z
M 18.3125 54.390625 
Q 18.3125 48.734375 21.84375 45.5625 
Q 25.390625 42.390625 31.78125 42.390625 
Q 38.140625 42.390625 41.71875 45.5625 
Q 45.3125 48.734375 45.3125 54.390625 
Q 45.3125 60.0625 41.71875 63.234375 
Q 38.140625 66.40625 31.78125 66.40625 
Q 25.390625 66.40625 21.84375 63.234375 
Q 18.3125 60.0625 18.3125 54.390625 
z
" id="DejaVuSans-56"/>
       </defs>
       <use xlink:href="#DejaVuSans-56"/>
       <use x="63.623047" xlink:href="#DejaVuSans-48"/>
      </g>
     </g>
    </g>
    <g id="ytick_6">
     <g id="line2d_13">
      <g>
       <use style="stroke:#000000;stroke-width:0.8;" x="46.965625" xlink:href="#md6f19331bb" y="35.409034"/>
      </g>
     </g>
     <g id="text_14">
      <!-- 100 -->
      <g transform="translate(20.878125 39.208253)scale(0.1 -0.1)">
       <use xlink:href="#DejaVuSans-49"/>
       <use x="63.623047" xlink:href="#DejaVuSans-48"/>
       <use x="127.246094" xlink:href="#DejaVuSans-48"/>
      </g>
     </g>
    </g>
    <g id="text_15">
     <!-- CPU % used -->
     <g transform="translate(14.798437 196.436875)rotate(-90)scale(0.1 -0.1)">
      <defs>
       <path d="M 72.703125 32.078125 
Q 68.453125 32.078125 66.03125 28.46875 
Q 63.625 24.859375 63.625 18.40625 
Q 63.625 12.0625 66.03125 8.421875 
Q 68.453125 4.78125 72.703125 4.78125 
Q 76.859375 4.78125 79.265625 8.421875 
Q 81.6875 12.0625 81.6875 18.40625 
Q 81.6875 24.8125 79.265625 28.4375 
Q 76.859375 32.078125 72.703125 32.078125 
z
M 72.703125 38.28125 
Q 80.421875 38.28125 84.953125 32.90625 
Q 89.5 27.546875 89.5 18.40625 
Q 89.5 9.28125 84.9375 3.921875 
Q 80.375 -1.421875 72.703125 -1.421875 
Q 64.890625 -1.421875 60.34375 3.921875 
Q 55.8125 9.28125 55.8125 18.40625 
Q 55.8125 27.59375 60.375 32.9375 
Q 64.9375 38.28125 72.703125 38.28125 
z
M 22.3125 68.015625 
Q 18.109375 68.015625 15.6875 64.375 
Q 13.28125 60.75 13.28125 54.390625 
Q 13.28125 47.953125 15.671875 44.328125 
Q 18.0625 40.71875 22.3125 40.71875 
Q 26.5625 40.71875 28.96875 44.328125 
Q 31.390625 47.953125 31.390625 54.390625 
Q 31.390625 60.6875 28.953125 64.34375 
Q 26.515625 68.015625 22.3125 68.015625 
z
M 66.40625 74.21875 
L 74.21875 74.21875 
L 28.609375 -1.421875 
L 20.796875 -1.421875 
z
M 22.3125 74.21875 
Q 30.03125 74.21875 34.609375 68.875 
Q 39.203125 63.53125 39.203125 54.390625 
Q 39.203125 45.171875 34.640625 39.84375 
Q 30.078125 34.515625 22.3125 34.515625 
Q 14.546875 34.515625 10.03125 39.859375 
Q 5.515625 45.21875 5.515625 54.390625 
Q 5.515625 63.484375 10.046875 68.84375 
Q 14.59375 74.21875 22.3125 74.21875 
z
" id="DejaVuSans-37"/>
       <path d="M 8.5 21.578125 
L 8.5 54.6875 
L 17.484375 54.6875 
L 17.484375 21.921875 
Q 17.484375 14.15625 20.5 10.265625 
Q 23.53125 6.390625 29.59375 6.390625 
Q 36.859375 6.390625 41.078125 11.03125 
Q 45.3125 15.671875 45.3125 23.6875 
L 45.3125 54.6875 
L 54.296875 54.6875 
L 54.296875 0 
L 45.3125 0 
L 45.3125 8.40625 
Q 42.046875 3.421875 37.71875 1 
Q 33.40625 -1.421875 27.6875 -1.421875 
Q 18.265625 -1.421875 13.375 4.4375 
Q 8.5 10.296875 8.5 21.578125 
z
M 31.109375 56 
z
" id="DejaVuSans-117"/>
       <path d="M 44.28125 53.078125 
L 44.28125 44.578125 
Q 40.484375 46.53125 36.375 47.5 
Q 32.28125 48.484375 27.875 48.484375 
Q 21.1875 48.484375 17.84375 46.4375 
Q 14.5 44.390625 14.5 40.28125 
Q 14.5 37.15625 16.890625 35.375 
Q 19.28125 33.59375 26.515625 31.984375 
L 29.59375 31.296875 
Q 39.15625 29.25 43.1875 25.515625 
Q 47.21875 21.78125 47.21875 15.09375 
Q 47.21875 7.46875 41.1875 3.015625 
Q 35.15625 -1.421875 24.609375 -1.421875 
Q 20.21875 -1.421875 15.453125 -0.5625 
Q 10.6875 0.296875 5.421875 2 
L 5.421875 11.28125 
Q 10.40625 8.6875 15.234375 7.390625 
Q 20.0625 6.109375 24.8125 6.109375 
Q 31.15625 6.109375 34.5625 8.28125 
Q 37.984375 10.453125 37.984375 14.40625 
Q 37.984375 18.0625 35.515625 20.015625 
Q 33.0625 21.96875 24.703125 23.78125 
L 21.578125 24.515625 
Q 13.234375 26.265625 9.515625 29.90625 
Q 5.8125 33.546875 5.8125 39.890625 
Q 5.8125 47.609375 11.28125 51.796875 
Q 16.75 56 26.8125 56 
Q 31.78125 56 36.171875 55.265625 
Q 40.578125 54.546875 44.28125 53.078125 
z
" id="DejaVuSans-115"/>
       <path d="M 45.40625 46.390625 
L 45.40625 75.984375 
L 54.390625 75.984375 
L 54.390625 0 
L 45.40625 0 
L 45.40625 8.203125 
Q 42.578125 3.328125 38.25 0.953125 
Q 33.9375 -1.421875 27.875 -1.421875 
Q 17.96875 -1.421875 11.734375 6.484375 
Q 5.515625 14.40625 5.515625 27.296875 
Q 5.515625 40.1875 11.734375 48.09375 
Q 17.96875 56 27.875 56 
Q 33.9375 56 38.25 53.625 
Q 42.578125 51.265625 45.40625 46.390625 
z
M 14.796875 27.296875 
Q 14.796875 17.390625 18.875 11.75 
Q 22.953125 6.109375 30.078125 6.109375 
Q 37.203125 6.109375 41.296875 11.75 
Q 45.40625 17.390625 45.40625 27.296875 
Q 45.40625 37.203125 41.296875 42.84375 
Q 37.203125 48.484375 30.078125 48.484375 
Q 22.953125 48.484375 18.875 42.84375 
Q 14.796875 37.203125 14.796875 27.296875 
z
" id="DejaVuSans-100"/>
      </defs>
      <use xlink:href="#DejaVuSans-67"/>
      <use x="69.824219" xlink:href="#DejaVuSans-80"/>
      <use x="130.126953" xlink:href="#DejaVuSans-85"/>
      <use x="203.320312" xlink:href="#DejaVuSans-32"/>
      <use x="235.107422" xlink:href="#DejaVuSans-37"/>
      <use x="330.126953" xlink:href="#DejaVuSans-32"/>
      <use x="361.914062" xlink:href="#DejaVuSans-117"/>
      <use x="425.292969" xlink:href="#DejaVuSans-115"/>
      <use x="477.392578" xlink:href="#DejaVuSans-101"/>
      <use x="538.916016" xlink:href="#DejaVuSans-100"/>
     </g>
    </g>
   </g>
   <g id="LineCollection_1">
    <path clip-path="url(#p489d08123d)" d="M 80.627963 186.65245 
L 108.679911 186.65245 
" style="fill:none;stroke:#1f77b4;stroke-width:1.5;"/>
    <path clip-path="url(#p489d08123d)" d="M 192.835755 166.966865 
L 220.887703 166.966865 
" style="fill:none;stroke:#1f77b4;stroke-width:1.5;"/>
    <path clip-path="url(#p489d08123d)" d="M 305.043547 199.16751 
L 333.095495 199.16751 
" style="fill:none;stroke:#1f77b4;stroke-width:1.5;"/>
    <path clip-path="url(#p489d08123d)" d="M 417.251339 190.317558 
L 445.303287 190.317558 
" style="fill:none;stroke:#1f77b4;stroke-width:1.5;"/>
   </g>
   <g id="LineCollection_2">
    <path clip-path="url(#p489d08123d)" d="M 80.627963 35.409034 
L 108.679911 35.409034 
" style="fill:none;stroke:#1f77b4;stroke-width:1.5;"/>
    <path clip-path="url(#p489d08123d)" d="M 192.835755 35.409034 
L 220.887703 35.409034 
" style="fill:none;stroke:#1f77b4;stroke-width:1.5;"/>
    <path clip-path="url(#p489d08123d)" d="M 305.043547 35.409034 
L 333.095495 35.409034 
" style="fill:none;stroke:#1f77b4;stroke-width:1.5;"/>
    <path clip-path="url(#p489d08123d)" d="M 417.251339 35.409034 
L 445.303287 35.409034 
" style="fill:none;stroke:#1f77b4;stroke-width:1.5;"/>
   </g>
   <g id="LineCollection_3">
    <path clip-path="url(#p489d08123d)" d="M 80.627963 297.227216 
L 108.679911 297.227216 
" style="fill:none;stroke:#1f77b4;stroke-width:1.5;"/>
    <path clip-path="url(#p489d08123d)" d="M 192.835755 297.227216 
L 220.887703 297.227216 
" style="fill:none;stroke:#1f77b4;stroke-width:1.5;"/>
    <path clip-path="url(#p489d08123d)" d="M 305.043547 297.227216 
L 333.095495 297.227216 
" style="fill:none;stroke:#1f77b4;stroke-width:1.5;"/>
    <path clip-path="url(#p489d08123d)" d="M 417.251339 297.227216 
L 445.303287 297.227216 
" style="fill:none;stroke:#1f77b4;stroke-width:1.5;"/>
   </g>
   <g id="LineCollection_4">
    <path clip-path="url(#p489d08123d)" d="M 94.653937 297.227216 
L 94.653937 35.409034 
" style="fill:none;stroke:#1f77b4;stroke-width:1.5;"/>
    <path clip-path="url(#p489d08123d)" d="M 206.861729 297.227216 
L 206.861729 35.409034 
" style="fill:none;stroke:#1f77b4;stroke-width:1.5;"/>
    <path clip-path="url(#p489d08123d)" d="M 319.069521 297.227216 
L 319.069521 35.409034 
" style="fill:none;stroke:#1f77b4;stroke-width:1.5;"/>
    <path clip-path="url(#p489d08123d)" d="M 431.277313 297.227216 
L 431.277313 35.409034 
" style="fill:none;stroke:#1f77b4;stroke-width:1.5;"/>
   </g>
   <g id="LineCollection_5">
    <path clip-path="url(#p489d08123d)" d="M 80.627963 196.129106 
L 108.679911 196.129106 
" style="fill:none;stroke:#1f77b4;stroke-width:1.5;"/>
    <path clip-path="url(#p489d08123d)" d="M 192.835755 172.929695 
L 220.887703 172.929695 
" style="fill:none;stroke:#1f77b4;stroke-width:1.5;"/>
    <path clip-path="url(#p489d08123d)" d="M 305.043547 218.681761 
L 333.095495 218.681761 
" style="fill:none;stroke:#1f77b4;stroke-width:1.5;"/>
    <path clip-path="url(#p489d08123d)" d="M 417.251339 211.682661 
L 445.303287 211.682661 
" style="fill:none;stroke:#1f77b4;stroke-width:1.5;"/>
   </g>
   <g id="patch_3">
    <path d="M 46.965625 310.318125 
L 46.965625 22.318125 
" style="fill:none;stroke:#000000;stroke-linecap:square;stroke-linejoin:miter;stroke-width:0.8;"/>
   </g>
   <g id="patch_4">
    <path d="M 478.965625 310.318125 
L 478.965625 22.318125 
" style="fill:none;stroke:#000000;stroke-linecap:square;stroke-linejoin:miter;stroke-width:0.8;"/>
   </g>
   <g id="patch_5">
    <path d="M 46.965625 310.318125 
L 478.965625 310.318125 
" style="fill:none;stroke:#000000;stroke-linecap:square;stroke-linejoin:miter;stroke-width:0.8;"/>
   </g>
   <g id="patch_6">
    <path d="M 46.965625 22.318125 
L 478.965625 22.318125 
" style="fill:none;stroke:#000000;stroke-linecap:square;stroke-linejoin:miter;stroke-width:0.8;"/>
   </g>
   <g id="text_16">
    <!-- CPU Usage for MergeCCSUnalignedReads, shard -1 -->
    <g transform="translate(110.184062 16.318125)scale(0.12 -0.12)">
     <defs>
      <path d="M 34.28125 27.484375 
Q 23.390625 27.484375 19.1875 25 
Q 14.984375 22.515625 14.984375 16.5 
Q 14.984375 11.71875 18.140625 8.90625 
Q 21.296875 6.109375 26.703125 6.109375 
Q 34.1875 6.109375 38.703125 11.40625 
Q 43.21875 16.703125 43.21875 25.484375 
L 43.21875 27.484375 
z
M 52.203125 31.203125 
L 52.203125 0 
L 43.21875 0 
L 43.21875 8.296875 
Q 40.140625 3.328125 35.546875 0.953125 
Q 30.953125 -1.421875 24.3125 -1.421875 
Q 15.921875 -1.421875 10.953125 3.296875 
Q 6 8.015625 6 15.921875 
Q 6 25.140625 12.171875 29.828125 
Q 18.359375 34.515625 30.609375 34.515625 
L 43.21875 34.515625 
L 43.21875 35.40625 
Q 43.21875 41.609375 39.140625 45 
Q 35.0625 48.390625 27.6875 48.390625 
Q 23 48.390625 18.546875 47.265625 
Q 14.109375 46.140625 10.015625 43.890625 
L 10.015625 52.203125 
Q 14.9375 54.109375 19.578125 55.046875 
Q 24.21875 56 28.609375 56 
Q 40.484375 56 46.34375 49.84375 
Q 52.203125 43.703125 52.203125 31.203125 
z
" id="DejaVuSans-97"/>
      <path d="M 45.40625 27.984375 
Q 45.40625 37.75 41.375 43.109375 
Q 37.359375 48.484375 30.078125 48.484375 
Q 22.859375 48.484375 18.828125 43.109375 
Q 14.796875 37.75 14.796875 27.984375 
Q 14.796875 18.265625 18.828125 12.890625 
Q 22.859375 7.515625 30.078125 7.515625 
Q 37.359375 7.515625 41.375 12.890625 
Q 45.40625 18.265625 45.40625 27.984375 
z
M 54.390625 6.78125 
Q 54.390625 -7.171875 48.1875 -13.984375 
Q 42 -20.796875 29.203125 -20.796875 
Q 24.46875 -20.796875 20.265625 -20.09375 
Q 16.0625 -19.390625 12.109375 -17.921875 
L 12.109375 -9.1875 
Q 16.0625 -11.328125 19.921875 -12.34375 
Q 23.78125 -13.375 27.78125 -13.375 
Q 36.625 -13.375 41.015625 -8.765625 
Q 45.40625 -4.15625 45.40625 5.171875 
L 45.40625 9.625 
Q 42.625 4.78125 38.28125 2.390625 
Q 33.9375 0 27.875 0 
Q 17.828125 0 11.671875 7.65625 
Q 5.515625 15.328125 5.515625 27.984375 
Q 5.515625 40.671875 11.671875 48.328125 
Q 17.828125 56 27.875 56 
Q 33.9375 56 38.28125 53.609375 
Q 42.625 51.21875 45.40625 46.390625 
L 45.40625 54.6875 
L 54.390625 54.6875 
z
" id="DejaVuSans-103"/>
      <path d="M 37.109375 75.984375 
L 37.109375 68.5 
L 28.515625 68.5 
Q 23.6875 68.5 21.796875 66.546875 
Q 19.921875 64.59375 19.921875 59.515625 
L 19.921875 54.6875 
L 34.71875 54.6875 
L 34.71875 47.703125 
L 19.921875 47.703125 
L 19.921875 0 
L 10.890625 0 
L 10.890625 47.703125 
L 2.296875 47.703125 
L 2.296875 54.6875 
L 10.890625 54.6875 
L 10.890625 58.5 
Q 10.890625 67.625 15.140625 71.796875 
Q 19.390625 75.984375 28.609375 75.984375 
z
" id="DejaVuSans-102"/>
      <path d="M 9.8125 72.90625 
L 24.515625 72.90625 
L 43.109375 23.296875 
L 61.8125 72.90625 
L 76.515625 72.90625 
L 76.515625 0 
L 66.890625 0 
L 66.890625 64.015625 
L 48.09375 14.015625 
L 38.1875 14.015625 
L 19.390625 64.015625 
L 19.390625 0 
L 9.8125 0 
z
" id="DejaVuSans-77"/>
      <path d="M 53.515625 70.515625 
L 53.515625 60.890625 
Q 47.90625 63.578125 42.921875 64.890625 
Q 37.9375 66.21875 33.296875 66.21875 
Q 25.25 66.21875 20.875 63.09375 
Q 16.5 59.96875 16.5 54.203125 
Q 16.5 49.359375 19.40625 46.890625 
Q 22.3125 44.4375 30.421875 42.921875 
L 36.375 41.703125 
Q 47.40625 39.59375 52.65625 34.296875 
Q 57.90625 29 57.90625 20.125 
Q 57.90625 9.515625 50.796875 4.046875 
Q 43.703125 -1.421875 29.984375 -1.421875 
Q 24.8125 -1.421875 18.96875 -0.25 
Q 13.140625 0.921875 6.890625 3.21875 
L 6.890625 13.375 
Q 12.890625 10.015625 18.65625 8.296875 
Q 24.421875 6.59375 29.984375 6.59375 
Q 38.421875 6.59375 43.015625 9.90625 
Q 47.609375 13.234375 47.609375 19.390625 
Q 47.609375 24.75 44.3125 27.78125 
Q 41.015625 30.8125 33.5 32.328125 
L 27.484375 33.5 
Q 16.453125 35.6875 11.515625 40.375 
Q 6.59375 45.0625 6.59375 53.421875 
Q 6.59375 63.09375 13.40625 68.65625 
Q 20.21875 74.21875 32.171875 74.21875 
Q 37.3125 74.21875 42.625 73.28125 
Q 47.953125 72.359375 53.515625 70.515625 
z
" id="DejaVuSans-83"/>
      <path d="M 54.890625 33.015625 
L 54.890625 0 
L 45.90625 0 
L 45.90625 32.71875 
Q 45.90625 40.484375 42.875 44.328125 
Q 39.84375 48.1875 33.796875 48.1875 
Q 26.515625 48.1875 22.3125 43.546875 
Q 18.109375 38.921875 18.109375 30.90625 
L 18.109375 0 
L 9.078125 0 
L 9.078125 54.6875 
L 18.109375 54.6875 
L 18.109375 46.1875 
Q 21.34375 51.125 25.703125 53.5625 
Q 30.078125 56 35.796875 56 
Q 45.21875 56 50.046875 50.171875 
Q 54.890625 44.34375 54.890625 33.015625 
z
" id="DejaVuSans-110"/>
      <path d="M 9.421875 75.984375 
L 18.40625 75.984375 
L 18.40625 0 
L 9.421875 0 
z
" id="DejaVuSans-108"/>
      <path d="M 9.421875 54.6875 
L 18.40625 54.6875 
L 18.40625 0 
L 9.421875 0 
z
M 9.421875 75.984375 
L 18.40625 75.984375 
L 18.40625 64.59375 
L 9.421875 64.59375 
z
" id="DejaVuSans-105"/>
      <path d="M 44.390625 34.1875 
Q 47.5625 33.109375 50.5625 29.59375 
Q 53.5625 26.078125 56.59375 19.921875 
L 66.609375 0 
L 56 0 
L 46.6875 18.703125 
Q 43.0625 26.03125 39.671875 28.421875 
Q 36.28125 30.8125 30.421875 30.8125 
L 19.671875 30.8125 
L 19.671875 0 
L 9.8125 0 
L 9.8125 72.90625 
L 32.078125 72.90625 
Q 44.578125 72.90625 50.734375 67.671875 
Q 56.890625 62.453125 56.890625 51.90625 
Q 56.890625 45.015625 53.6875 40.46875 
Q 50.484375 35.9375 44.390625 34.1875 
z
M 19.671875 64.796875 
L 19.671875 38.921875 
L 32.078125 38.921875 
Q 39.203125 38.921875 42.84375 42.21875 
Q 46.484375 45.515625 46.484375 51.90625 
Q 46.484375 58.296875 42.84375 61.546875 
Q 39.203125 64.796875 32.078125 64.796875 
z
" id="DejaVuSans-82"/>
      <path d="M 11.71875 12.40625 
L 22.015625 12.40625 
L 22.015625 4 
L 14.015625 -11.625 
L 7.71875 -11.625 
L 11.71875 4 
z
" id="DejaVuSans-44"/>
      <path d="M 54.890625 33.015625 
L 54.890625 0 
L 45.90625 0 
L 45.90625 32.71875 
Q 45.90625 40.484375 42.875 44.328125 
Q 39.84375 48.1875 33.796875 48.1875 
Q 26.515625 48.1875 22.3125 43.546875 
Q 18.109375 38.921875 18.109375 30.90625 
L 18.109375 0 
L 9.078125 0 
L 9.078125 75.984375 
L 18.109375 75.984375 
L 18.109375 46.1875 
Q 21.34375 51.125 25.703125 53.5625 
Q 30.078125 56 35.796875 56 
Q 45.21875 56 50.046875 50.171875 
Q 54.890625 44.34375 54.890625 33.015625 
z
" id="DejaVuSans-104"/>
      <path d="M 4.890625 31.390625 
L 31.203125 31.390625 
L 31.203125 23.390625 
L 4.890625 23.390625 
z
" id="DejaVuSans-45"/>
     </defs>
     <use xlink:href="#DejaVuSans-67"/>
     <use x="69.824219" xlink:href="#DejaVuSans-80"/>
     <use x="130.126953" xlink:href="#DejaVuSans-85"/>
     <use x="203.320312" xlink:href="#DejaVuSans-32"/>
     <use x="235.107422" xlink:href="#DejaVuSans-85"/>
     <use x="308.300781" xlink:href="#DejaVuSans-115"/>
     <use x="360.400391" xlink:href="#DejaVuSans-97"/>
     <use x="421.679688" xlink:href="#DejaVuSans-103"/>
     <use x="485.15625" xlink:href="#DejaVuSans-101"/>
     <use x="546.679688" xlink:href="#DejaVuSans-32"/>
     <use x="578.466797" xlink:href="#DejaVuSans-102"/>
     <use x="613.671875" xlink:href="#DejaVuSans-111"/>
     <use x="674.853516" xlink:href="#DejaVuSans-114"/>
     <use x="715.966797" xlink:href="#DejaVuSans-32"/>
     <use x="747.753906" xlink:href="#DejaVuSans-77"/>
     <use x="834.033203" xlink:href="#DejaVuSans-101"/>
     <use x="895.556641" xlink:href="#DejaVuSans-114"/>
     <use x="934.919922" xlink:href="#DejaVuSans-103"/>
     <use x="998.396484" xlink:href="#DejaVuSans-101"/>
     <use x="1059.919922" xlink:href="#DejaVuSans-67"/>
     <use x="1129.744141" xlink:href="#DejaVuSans-67"/>
     <use x="1199.568359" xlink:href="#DejaVuSans-83"/>
     <use x="1263.044922" xlink:href="#DejaVuSans-85"/>
     <use x="1336.238281" xlink:href="#DejaVuSans-110"/>
     <use x="1399.617188" xlink:href="#DejaVuSans-97"/>
     <use x="1460.896484" xlink:href="#DejaVuSans-108"/>
     <use x="1488.679688" xlink:href="#DejaVuSans-105"/>
     <use x="1516.462891" xlink:href="#DejaVuSans-103"/>
     <use x="1579.939453" xlink:href="#DejaVuSans-110"/>
     <use x="1643.318359" xlink:href="#DejaVuSans-101"/>
     <use x="1704.841797" xlink:href="#DejaVuSans-100"/>
     <use x="1768.318359" xlink:href="#DejaVuSans-82"/>
     <use x="1833.300781" xlink:href="#DejaVuSans-101"/>
     <use x="1894.824219" xlink:href="#DejaVuSans-97"/>
     <use x="1956.103516" xlink:href="#DejaVuSans-100"/>
     <use x="2019.580078" xlink:href="#DejaVuSans-115"/>
     <use x="2071.679688" xlink:href="#DejaVuSans-44"/>
     <use x="2103.466797" xlink:href="#DejaVuSans-32"/>
     <use x="2135.253906" xlink:href="#DejaVuSans-115"/>
     <use x="2187.353516" xlink:href="#DejaVuSans-104"/>
     <use x="2250.732422" xlink:href="#DejaVuSans-97"/>
     <use x="2312.011719" xlink:href="#DejaVuSans-114"/>
     <use x="2351.375" xlink:href="#DejaVuSans-100"/>
     <use x="2414.851562" xlink:href="#DejaVuSans-32"/>
     <use x="2446.638672" xlink:href="#DejaVuSans-45"/>
     <use x="2482.722656" xlink:href="#DejaVuSans-49"/>
    </g>
   </g>
  </g>
 </g>
 <defs>
  <clipPath id="p489d08123d">
   <rect height="288" width="432" x="46.965625" y="22.318125"/>
  </clipPath>
 </defs>
</svg>
