<?xml version="1.0" encoding="utf-8" standalone="no"?>
<!DOCTYPE svg PUBLIC "-//W3C//DTD SVG 1.1//EN"
  "http://www.w3.org/Graphics/SVG/1.1/DTD/svg11.dtd">
<!-- Created with matplotlib (https://matplotlib.org/) -->
<svg height="347.874375pt" version="1.1" viewBox="0 0 486.165625 347.874375" width="486.165625pt" xmlns="http://www.w3.org/2000/svg" xmlns:xlink="http://www.w3.org/1999/xlink">
 <metadata>
  <rdf:RDF xmlns:cc="http://creativecommons.org/ns#" xmlns:dc="http://purl.org/dc/elements/1.1/" xmlns:rdf="http://www.w3.org/1999/02/22-rdf-syntax-ns#">
   <cc:Work>
    <dc:type rdf:resource="http://purl.org/dc/dcmitype/StillImage"/>
    <dc:date>2021-08-18T11:02:24.717181</dc:date>
    <dc:format>image/svg+xml</dc:format>
    <dc:creator>
     <cc:Agent>
      <dc:title>Matplotlib v3.3.4, https://matplotlib.org/</dc:title>
     </cc:Agent>
    </dc:creator>
   </cc:Work>
  </rdf:RDF>
 </metadata>
 <defs>
  <style type="text/css">*{stroke-linecap:butt;stroke-linejoin:round;}</style>
 </defs>
 <g id="figure_1">
  <g id="patch_1">
   <path d="M 0 347.874375 
L 486.165625 347.874375 
L 486.165625 0 
L 0 0 
z
" style="fill:none;"/>
  </g>
  <g id="axes_1">
   <g id="patch_2">
    <path d="M 46.965625 310.318125 
L 478.965625 310.318125 
L 478.965625 22.318125 
L 46.965625 22.318125 
z
" style="fill:#ffffff;"/>
   </g>
   <g id="PolyCollection_1">
    <path clip-path="url(#p6a1ac5f33b)" d="M 95.34976 297.227216 
L 93.958113 297.227216 
L 93.97704 294.582588 
L 94.096075 291.93796 
L 94.259225 289.293332 
L 94.406918 286.648704 
L 94.507952 284.004075 
L 94.562471 281.359447 
L 94.585913 278.714819 
L 94.593606 276.070191 
L 94.594872 273.425563 
L 94.594131 270.780935 
L 94.593673 268.136307 
L 94.595013 265.491679 
L 94.598572 262.847051 
L 94.603143 260.202423 
L 94.606516 257.557794 
L 94.607046 254.913166 
L 94.604721 252.268538 
L 94.60082 249.62391 
L 94.596796 246.979282 
L 94.593627 244.334654 
L 94.592001 241.690026 
L 94.592606 239.045398 
L 94.595845 236.40077 
L 94.601179 233.756142 
L 94.606979 231.111513 
L 94.611382 228.466885 
L 94.613649 225.822257 
L 94.614716 223.177629 
L 94.616248 220.533001 
L 94.619004 217.888373 
L 94.62213 215.243745 
L 94.623932 212.599117 
L 94.623171 209.954489 
L 94.619714 207.309861 
L 94.614369 204.665232 
L 94.608475 202.020604 
L 94.603579 199.375976 
L 94.601102 196.731348 
L 94.60184 194.08672 
L 94.605523 191.442092 
L 94.610847 188.797464 
L 94.616175 186.152836 
L 94.620397 183.508208 
L 94.62326 180.86358 
L 94.624951 178.218951 
L 94.625486 175.574323 
L 94.624398 172.929695 
L 94.620803 170.285067 
L 94.613751 167.640439 
L 94.602829 164.995811 
L 94.588592 162.351183 
L 94.572145 159.706555 
L 94.553916 157.061927 
L 94.532729 154.417299 
L 94.506174 151.77267 
L 94.471884 149.128042 
L 94.428442 146.483414 
L 94.375426 143.838786 
L 94.313368 141.194158 
L 94.244305 138.54953 
L 94.172261 135.904902 
L 94.102271 133.260274 
L 94.037733 130.615646 
L 93.978118 127.971018 
L 93.919438 125.326389 
L 93.857002 122.681761 
L 93.787357 120.037133 
L 93.707987 117.392505 
L 93.617041 114.747877 
L 93.515034 112.103249 
L 93.406262 109.458621 
L 93.296487 106.813993 
L 93.188212 104.169365 
L 93.078779 101.524737 
L 92.963734 98.880108 
L 92.842136 96.23548 
L 92.71852 93.590852 
L 92.599256 90.946224 
L 92.485782 88.301596 
L 92.370043 85.656968 
L 92.236044 83.01234 
L 92.067075 80.367712 
L 91.854461 77.723084 
L 91.602604 75.078456 
L 91.326702 72.433827 
L 91.044026 69.789199 
L 90.764606 67.144571 
L 90.487546 64.499943 
L 90.202775 61.855315 
L 89.888897 59.210687 
L 89.49065 56.566059 
L 88.859987 53.921431 
L 87.671468 51.276803 
L 85.401124 48.632175 
L 81.545264 45.987546 
L 76.168303 43.342918 
L 70.462507 40.69829 
L 66.610864 38.053662 
L 66.601989 35.409034 
L 122.705885 35.409034 
L 122.705885 35.409034 
L 122.697009 38.053662 
L 118.845366 40.69829 
L 113.13957 43.342918 
L 107.762609 45.987546 
L 103.906749 48.632175 
L 101.636405 51.276803 
L 100.447886 53.921431 
L 99.817223 56.566059 
L 99.418977 59.210687 
L 99.105098 61.855315 
L 98.820327 64.499943 
L 98.543267 67.144571 
L 98.263847 69.789199 
L 97.981171 72.433827 
L 97.70527 75.078456 
L 97.453412 77.723084 
L 97.240798 80.367712 
L 97.071829 83.01234 
L 96.93783 85.656968 
L 96.822091 88.301596 
L 96.708617 90.946224 
L 96.589353 93.590852 
L 96.465737 96.23548 
L 96.34414 98.880108 
L 96.229095 101.524737 
L 96.119661 104.169365 
L 96.011386 106.813993 
L 95.901611 109.458621 
L 95.792839 112.103249 
L 95.690832 114.747877 
L 95.599886 117.392505 
L 95.520517 120.037133 
L 95.450871 122.681761 
L 95.388435 125.326389 
L 95.329755 127.971018 
L 95.27014 130.615646 
L 95.205603 133.260274 
L 95.135613 135.904902 
L 95.063568 138.54953 
L 94.994505 141.194158 
L 94.932448 143.838786 
L 94.879431 146.483414 
L 94.835989 149.128042 
L 94.8017 151.77267 
L 94.775144 154.417299 
L 94.753958 157.061927 
L 94.735729 159.706555 
L 94.719281 162.351183 
L 94.705044 164.995811 
L 94.694123 167.640439 
L 94.68707 170.285067 
L 94.683475 172.929695 
L 94.682388 175.574323 
L 94.682922 178.218951 
L 94.684613 180.86358 
L 94.687476 183.508208 
L 94.691699 186.152836 
L 94.697026 188.797464 
L 94.70235 191.442092 
L 94.706033 194.08672 
L 94.706772 196.731348 
L 94.704294 199.375976 
L 94.699398 202.020604 
L 94.693504 204.665232 
L 94.688159 207.309861 
L 94.684702 209.954489 
L 94.683942 212.599117 
L 94.685743 215.243745 
L 94.688869 217.888373 
L 94.691625 220.533001 
L 94.693157 223.177629 
L 94.694224 225.822257 
L 94.696491 228.466885 
L 94.700895 231.111513 
L 94.706694 233.756142 
L 94.712029 236.40077 
L 94.715267 239.045398 
L 94.715872 241.690026 
L 94.714246 244.334654 
L 94.711077 246.979282 
L 94.707054 249.62391 
L 94.703153 252.268538 
L 94.700827 254.913166 
L 94.701357 257.557794 
L 94.704731 260.202423 
L 94.709302 262.847051 
L 94.71286 265.491679 
L 94.7142 268.136307 
L 94.713743 270.780935 
L 94.713001 273.425563 
L 94.714267 276.070191 
L 94.721961 278.714819 
L 94.745402 281.359447 
L 94.799921 284.004075 
L 94.900956 286.648704 
L 95.048649 289.293332 
L 95.211799 291.93796 
L 95.330834 294.582588 
L 95.34976 297.227216 
z
" style="fill:#1f77b4;fill-opacity:0.3;"/>
   </g>
   <g id="PolyCollection_2">
    <path clip-path="url(#p6a1ac5f33b)" d="M 207.355377 297.227216 
L 206.368081 297.227216 
L 206.384274 294.582588 
L 206.475233 291.93796 
L 206.595583 289.293332 
L 206.700306 286.648704 
L 206.769015 284.004075 
L 206.804946 281.359447 
L 206.820555 278.714819 
L 206.82619 276.070191 
L 206.82697 273.425563 
L 206.824581 270.780935 
L 206.819851 268.136307 
L 206.814165 265.491679 
L 206.809395 262.847051 
L 206.806945 260.202423 
L 206.806932 257.557794 
L 206.808239 254.913166 
L 206.809401 252.268538 
L 206.809661 249.62391 
L 206.80948 246.979282 
L 206.810169 244.334654 
L 206.812927 241.690026 
L 206.817952 239.045398 
L 206.824275 236.40077 
L 206.830427 233.756142 
L 206.835347 231.111513 
L 206.838702 228.466885 
L 206.840462 225.822257 
L 206.840369 223.177629 
L 206.837959 220.533001 
L 206.833098 217.888373 
L 206.826532 215.243745 
L 206.819972 212.599117 
L 206.815466 209.954489 
L 206.814281 207.309861 
L 206.816051 204.665232 
L 206.818944 202.020604 
L 206.820769 199.375976 
L 206.820112 196.731348 
L 206.816799 194.08672 
L 206.811694 191.442092 
L 206.806206 188.797464 
L 206.801709 186.152836 
L 206.798913 183.508208 
L 206.797533 180.86358 
L 206.796397 178.218951 
L 206.793738 175.574323 
L 206.787529 172.929695 
L 206.776103 170.285067 
L 206.758805 167.640439 
L 206.735893 164.995811 
L 206.707551 162.351183 
L 206.672876 159.706555 
L 206.629579 157.061927 
L 206.57463 154.417299 
L 206.5059 151.77267 
L 206.424363 149.128042 
L 206.335239 146.483414 
L 206.246163 143.838786 
L 206.162314 141.194158 
L 206.082099 138.54953 
L 205.998369 135.904902 
L 205.905595 133.260274 
L 205.806235 130.615646 
L 205.709082 127.971018 
L 205.620916 125.326389 
L 205.540178 122.681761 
L 205.458994 120.037133 
L 205.371101 117.392505 
L 205.277293 114.747877 
L 205.183404 112.103249 
L 205.095158 109.458621 
L 205.016912 106.813993 
L 204.952693 104.169365 
L 204.902815 101.524737 
L 204.8582 98.880108 
L 204.802596 96.23548 
L 204.724002 93.590852 
L 204.622474 90.946224 
L 204.504839 88.301596 
L 204.374681 85.656968 
L 204.231536 83.01234 
L 204.077669 80.367712 
L 203.918522 77.723084 
L 203.753291 75.078456 
L 203.568719 72.433827 
L 203.346945 69.789199 
L 203.081198 67.144571 
L 202.784358 64.499943 
L 202.48267 61.855315 
L 202.195657 59.210687 
L 201.900065 56.566059 
L 201.46578 53.921431 
L 200.562085 51.276803 
L 198.606269 48.632175 
L 194.951488 45.987546 
L 189.486016 43.342918 
L 183.36854 40.69829 
L 179.025534 38.053662 
L 178.809781 35.409034 
L 234.913677 35.409034 
L 234.913677 35.409034 
L 234.697923 38.053662 
L 230.354918 40.69829 
L 224.237442 43.342918 
L 218.77197 45.987546 
L 215.117189 48.632175 
L 213.161373 51.276803 
L 212.257678 53.921431 
L 211.823393 56.566059 
L 211.527801 59.210687 
L 211.240788 61.855315 
L 210.9391 64.499943 
L 210.642259 67.144571 
L 210.376513 69.789199 
L 210.154739 72.433827 
L 209.970167 75.078456 
L 209.804936 77.723084 
L 209.645789 80.367712 
L 209.491922 83.01234 
L 209.348776 85.656968 
L 209.218619 88.301596 
L 209.100984 90.946224 
L 208.999456 93.590852 
L 208.920862 96.23548 
L 208.865257 98.880108 
L 208.820643 101.524737 
L 208.770765 104.169365 
L 208.706546 106.813993 
L 208.6283 109.458621 
L 208.540054 112.103249 
L 208.446164 114.747877 
L 208.352357 117.392505 
L 208.264464 120.037133 
L 208.18328 122.681761 
L 208.102542 125.326389 
L 208.014376 127.971018 
L 207.917222 130.615646 
L 207.817863 133.260274 
L 207.725089 135.904902 
L 207.641359 138.54953 
L 207.561144 141.194158 
L 207.477295 143.838786 
L 207.388218 146.483414 
L 207.299095 149.128042 
L 207.217558 151.77267 
L 207.148828 154.417299 
L 207.093879 157.061927 
L 207.050582 159.706555 
L 207.015907 162.351183 
L 206.987564 164.995811 
L 206.964653 167.640439 
L 206.947355 170.285067 
L 206.935928 172.929695 
L 206.92972 175.574323 
L 206.927061 178.218951 
L 206.925925 180.86358 
L 206.924545 183.508208 
L 206.921749 186.152836 
L 206.917251 188.797464 
L 206.911764 191.442092 
L 206.906659 194.08672 
L 206.903346 196.731348 
L 206.902688 199.375976 
L 206.904513 202.020604 
L 206.907407 204.665232 
L 206.909176 207.309861 
L 206.907992 209.954489 
L 206.903486 212.599117 
L 206.896926 215.243745 
L 206.89036 217.888373 
L 206.885499 220.533001 
L 206.883089 223.177629 
L 206.882996 225.822257 
L 206.884755 228.466885 
L 206.88811 231.111513 
L 206.893031 233.756142 
L 206.899183 236.40077 
L 206.905506 239.045398 
L 206.91053 241.690026 
L 206.913289 244.334654 
L 206.913978 246.979282 
L 206.913797 249.62391 
L 206.914057 252.268538 
L 206.915219 254.913166 
L 206.916526 257.557794 
L 206.916512 260.202423 
L 206.914063 262.847051 
L 206.909293 265.491679 
L 206.903607 268.136307 
L 206.898876 270.780935 
L 206.896487 273.425563 
L 206.897268 276.070191 
L 206.902902 278.714819 
L 206.918512 281.359447 
L 206.954443 284.004075 
L 207.023152 286.648704 
L 207.127875 289.293332 
L 207.248225 291.93796 
L 207.339183 294.582588 
L 207.355377 297.227216 
z
" style="fill:#1f77b4;fill-opacity:0.3;"/>
   </g>
   <g id="PolyCollection_3">
    <path clip-path="url(#p6a1ac5f33b)" d="M 319.437361 297.227216 
L 318.701681 297.227216 
L 318.708079 294.582588 
L 318.765271 291.93796 
L 318.842679 289.293332 
L 318.911558 286.648704 
L 318.959428 284.004075 
L 318.987729 281.359447 
L 319.002924 278.714819 
L 319.010935 276.070191 
L 319.015927 273.425563 
L 319.020536 270.780935 
L 319.025854 268.136307 
L 319.031289 265.491679 
L 319.034935 262.847051 
L 319.034665 260.202423 
L 319.029571 257.557794 
L 319.020978 254.913166 
L 319.012212 252.268538 
L 319.006883 249.62391 
L 319.006788 246.979282 
L 319.011132 244.334654 
L 319.017443 241.690026 
L 319.022939 239.045398 
L 319.0254 236.40077 
L 319.023828 233.756142 
L 319.019006 231.111513 
L 319.013171 228.466885 
L 319.00866 225.822257 
L 319.006692 223.177629 
L 319.007211 220.533001 
L 319.00933 217.888373 
L 319.011756 215.243745 
L 319.013221 212.599117 
L 319.012971 209.954489 
L 319.010855 207.309861 
L 319.007011 204.665232 
L 319.001828 202.020604 
L 318.996365 199.375976 
L 318.992318 196.731348 
L 318.991037 194.08672 
L 318.992548 191.442092 
L 318.995577 188.797464 
L 318.998202 186.152836 
L 318.998312 183.508208 
L 318.993949 180.86358 
L 318.983861 178.218951 
L 318.967956 175.574323 
L 318.947217 172.929695 
L 318.922982 170.285067 
L 318.89559 167.640439 
L 318.863121 164.995811 
L 318.821861 162.351183 
L 318.768966 159.706555 
L 318.705007 157.061927 
L 318.633794 154.417299 
L 318.55976 151.77267 
L 318.485088 149.128042 
L 318.408028 146.483414 
L 318.323163 143.838786 
L 318.224455 141.194158 
L 318.110347 138.54953 
L 317.987034 135.904902 
L 317.86594 133.260274 
L 317.756814 130.615646 
L 317.663023 127.971018 
L 317.58347 125.326389 
L 317.517527 122.681761 
L 317.465721 120.037133 
L 317.425178 117.392505 
L 317.386711 114.747877 
L 317.338421 112.103249 
L 317.271852 109.458621 
L 317.18406 106.813993 
L 317.075765 104.169365 
L 316.950975 101.524737 
L 316.819139 98.880108 
L 316.694433 96.23548 
L 316.588878 93.590852 
L 316.504137 90.946224 
L 316.430086 88.301596 
L 316.352499 85.656968 
L 316.263049 83.01234 
L 316.162006 80.367712 
L 316.051675 77.723084 
L 315.928425 75.078456 
L 315.78222 72.433827 
L 315.604644 69.789199 
L 315.398047 67.144571 
L 315.176861 64.499943 
L 314.958732 61.855315 
L 314.748547 59.210687 
L 314.5095 56.566059 
L 314.100854 53.921431 
L 313.180228 51.276803 
L 311.155164 48.632175 
L 307.387474 45.987546 
L 301.802966 43.342918 
L 295.605657 40.69829 
L 291.235548 38.053662 
L 291.017573 35.409034 
L 347.121469 35.409034 
L 347.121469 35.409034 
L 346.903494 38.053662 
L 342.533385 40.69829 
L 336.336076 43.342918 
L 330.751568 45.987546 
L 326.983878 48.632175 
L 324.958814 51.276803 
L 324.038188 53.921431 
L 323.629543 56.566059 
L 323.390495 59.210687 
L 323.180311 61.855315 
L 322.962181 64.499943 
L 322.740995 67.144571 
L 322.534398 69.789199 
L 322.356822 72.433827 
L 322.210617 75.078456 
L 322.087368 77.723084 
L 321.977036 80.367712 
L 321.875994 83.01234 
L 321.786543 85.656968 
L 321.708956 88.301596 
L 321.634905 90.946224 
L 321.550164 93.590852 
L 321.444609 96.23548 
L 321.319903 98.880108 
L 321.188067 101.524737 
L 321.063277 104.169365 
L 320.954982 106.813993 
L 320.86719 109.458621 
L 320.800621 112.103249 
L 320.752331 114.747877 
L 320.713864 117.392505 
L 320.673321 120.037133 
L 320.621515 122.681761 
L 320.555572 125.326389 
L 320.476019 127.971018 
L 320.382228 130.615646 
L 320.273103 133.260274 
L 320.152008 135.904902 
L 320.028695 138.54953 
L 319.914588 141.194158 
L 319.815879 143.838786 
L 319.731014 146.483414 
L 319.653954 149.128042 
L 319.579282 151.77267 
L 319.505248 154.417299 
L 319.434035 157.061927 
L 319.370076 159.706555 
L 319.317182 162.351183 
L 319.275921 164.995811 
L 319.243452 167.640439 
L 319.21606 170.285067 
L 319.191825 172.929695 
L 319.171087 175.574323 
L 319.155181 178.218951 
L 319.145093 180.86358 
L 319.14073 183.508208 
L 319.14084 186.152836 
L 319.143465 188.797464 
L 319.146494 191.442092 
L 319.148005 194.08672 
L 319.146724 196.731348 
L 319.142677 199.375976 
L 319.137215 202.020604 
L 319.132031 204.665232 
L 319.128187 207.309861 
L 319.126071 209.954489 
L 319.125821 212.599117 
L 319.127287 215.243745 
L 319.129712 217.888373 
L 319.131831 220.533001 
L 319.13235 223.177629 
L 319.130382 225.822257 
L 319.125871 228.466885 
L 319.120036 231.111513 
L 319.115214 233.756142 
L 319.113643 236.40077 
L 319.116103 239.045398 
L 319.121599 241.690026 
L 319.127911 244.334654 
L 319.132255 246.979282 
L 319.132159 249.62391 
L 319.12683 252.268538 
L 319.118064 254.913166 
L 319.109471 257.557794 
L 319.104377 260.202423 
L 319.104108 262.847051 
L 319.107753 265.491679 
L 319.113188 268.136307 
L 319.118506 270.780935 
L 319.123115 273.425563 
L 319.128107 276.070191 
L 319.136118 278.714819 
L 319.151314 281.359447 
L 319.179614 284.004075 
L 319.227484 286.648704 
L 319.296364 289.293332 
L 319.373771 291.93796 
L 319.430963 294.582588 
L 319.437361 297.227216 
z
" style="fill:#1f77b4;fill-opacity:0.3;"/>
   </g>
   <g id="PolyCollection_4">
    <path clip-path="url(#p6a1ac5f33b)" d="M 431.665076 297.227216 
L 430.889551 297.227216 
L 430.909111 294.582588 
L 430.992345 291.93796 
L 431.091557 289.293332 
L 431.169034 286.648704 
L 431.214739 284.004075 
L 431.2363 281.359447 
L 431.244601 278.714819 
L 431.247594 276.070191 
L 431.249801 273.425563 
L 431.253017 270.780935 
L 431.257065 268.136307 
L 431.260891 265.491679 
L 431.2636 262.847051 
L 431.264717 260.202423 
L 431.263965 257.557794 
L 431.261393 254.913166 
L 431.257825 252.268538 
L 431.254689 249.62391 
L 431.25302 246.979282 
L 431.252733 244.334654 
L 431.253042 241.690026 
L 431.253391 239.045398 
L 431.253641 236.40077 
L 431.253577 233.756142 
L 431.252719 231.111513 
L 431.250736 228.466885 
L 431.247816 225.822257 
L 431.24452 223.177629 
L 431.241375 220.533001 
L 431.238763 217.888373 
L 431.237204 215.243745 
L 431.237495 212.599117 
L 431.240202 209.954489 
L 431.244915 207.309861 
L 431.250234 204.665232 
L 431.254675 202.020604 
L 431.257634 199.375976 
L 431.259526 196.731348 
L 431.261036 194.08672 
L 431.262324 191.442092 
L 431.263035 188.797464 
L 431.263015 186.152836 
L 431.262629 183.508208 
L 431.26214 180.86358 
L 431.261117 178.218951 
L 431.258918 175.574323 
L 431.255713 172.929695 
L 431.252548 170.285067 
L 431.250237 167.640439 
L 431.248476 164.995811 
L 431.246266 162.351183 
L 431.242875 159.706555 
L 431.237943 157.061927 
L 431.230831 154.417299 
L 431.220416 151.77267 
L 431.205807 149.128042 
L 431.187433 146.483414 
L 431.167635 143.838786 
L 431.149793 141.194158 
L 431.136183 138.54953 
L 431.126606 135.904902 
L 431.119141 133.260274 
L 431.111442 130.615646 
L 431.100706 127.971018 
L 431.083933 125.326389 
L 431.06085 122.681761 
L 431.036513 120.037133 
L 431.017868 117.392505 
L 431.006679 114.747877 
L 430.998254 112.103249 
L 430.98736 109.458621 
L 430.971975 106.813993 
L 430.951152 104.169365 
L 430.924199 101.524737 
L 430.893825 98.880108 
L 430.865947 96.23548 
L 430.844127 93.590852 
L 430.826752 90.946224 
L 430.810427 88.301596 
L 430.793398 85.656968 
L 430.774956 83.01234 
L 430.753748 80.367712 
L 430.728058 77.723084 
L 430.697345 75.078456 
L 430.662474 72.433827 
L 430.623065 69.789199 
L 430.573768 67.144571 
L 430.50429 64.499943 
L 430.406008 61.855315 
L 430.280198 59.210687 
L 430.132182 56.566059 
L 429.926059 53.921431 
L 429.469038 51.276803 
L 428.226365 48.632175 
L 425.247608 45.987546 
L 419.676621 43.342918 
L 412.061663 40.69829 
L 405.298466 38.053662 
L 403.225365 35.409034 
L 459.329261 35.409034 
L 459.329261 35.409034 
L 457.256161 38.053662 
L 450.492964 40.69829 
L 442.878006 43.342918 
L 437.307019 45.987546 
L 434.328262 48.632175 
L 433.085589 51.276803 
L 432.628568 53.921431 
L 432.422445 56.566059 
L 432.274429 59.210687 
L 432.148618 61.855315 
L 432.050336 64.499943 
L 431.980858 67.144571 
L 431.931562 69.789199 
L 431.892153 72.433827 
L 431.857282 75.078456 
L 431.826568 77.723084 
L 431.800879 80.367712 
L 431.779671 83.01234 
L 431.761229 85.656968 
L 431.744199 88.301596 
L 431.727875 90.946224 
L 431.710499 93.590852 
L 431.688679 96.23548 
L 431.660802 98.880108 
L 431.630427 101.524737 
L 431.603474 104.169365 
L 431.582652 106.813993 
L 431.567267 109.458621 
L 431.556373 112.103249 
L 431.547948 114.747877 
L 431.536758 117.392505 
L 431.518114 120.037133 
L 431.493776 122.681761 
L 431.470693 125.326389 
L 431.45392 127.971018 
L 431.443185 130.615646 
L 431.435485 133.260274 
L 431.428021 135.904902 
L 431.418444 138.54953 
L 431.404834 141.194158 
L 431.386992 143.838786 
L 431.367194 146.483414 
L 431.34882 149.128042 
L 431.334211 151.77267 
L 431.323796 154.417299 
L 431.316683 157.061927 
L 431.311752 159.706555 
L 431.30836 162.351183 
L 431.30615 164.995811 
L 431.30439 167.640439 
L 431.302079 170.285067 
L 431.298914 172.929695 
L 431.295709 175.574323 
L 431.29351 178.218951 
L 431.292486 180.86358 
L 431.291998 183.508208 
L 431.291612 186.152836 
L 431.291592 188.797464 
L 431.292303 191.442092 
L 431.293591 194.08672 
L 431.295101 196.731348 
L 431.296992 199.375976 
L 431.299952 202.020604 
L 431.304392 204.665232 
L 431.309711 207.309861 
L 431.314425 209.954489 
L 431.317132 212.599117 
L 431.317422 215.243745 
L 431.315863 217.888373 
L 431.313252 220.533001 
L 431.310107 223.177629 
L 431.30681 225.822257 
L 431.303891 228.466885 
L 431.301907 231.111513 
L 431.301049 233.756142 
L 431.300986 236.40077 
L 431.301235 239.045398 
L 431.301584 241.690026 
L 431.301894 244.334654 
L 431.301606 246.979282 
L 431.299938 249.62391 
L 431.296801 252.268538 
L 431.293233 254.913166 
L 431.290661 257.557794 
L 431.289909 260.202423 
L 431.291027 262.847051 
L 431.293735 265.491679 
L 431.297562 268.136307 
L 431.30161 270.780935 
L 431.304826 273.425563 
L 431.307032 276.070191 
L 431.310025 278.714819 
L 431.318326 281.359447 
L 431.339887 284.004075 
L 431.385592 286.648704 
L 431.46307 289.293332 
L 431.562282 291.93796 
L 431.645516 294.582588 
L 431.665076 297.227216 
z
" style="fill:#1f77b4;fill-opacity:0.3;"/>
   </g>
   <g id="matplotlib.axis_1">
    <g id="xtick_1">
     <g id="line2d_1">
      <defs>
       <path d="M 0 0 
L 0 3.5 
" id="m9984ebec1b" style="stroke:#000000;stroke-width:0.8;"/>
      </defs>
      <g>
       <use style="stroke:#000000;stroke-width:0.8;" x="94.653937" xlink:href="#m9984ebec1b" y="310.318125"/>
      </g>
     </g>
     <g id="text_1">
      <!-- 1.0 -->
      <g transform="translate(86.702374 324.916562)scale(0.1 -0.1)">
       <defs>
        <path d="M 12.40625 8.296875 
L 28.515625 8.296875 
L 28.515625 63.921875 
L 10.984375 60.40625 
L 10.984375 69.390625 
L 28.421875 72.90625 
L 38.28125 72.90625 
L 38.28125 8.296875 
L 54.390625 8.296875 
L 54.390625 0 
L 12.40625 0 
z
" id="DejaVuSans-49"/>
        <path d="M 10.6875 12.40625 
L 21 12.40625 
L 21 0 
L 10.6875 0 
z
" id="DejaVuSans-46"/>
        <path d="M 31.78125 66.40625 
Q 24.171875 66.40625 20.328125 58.90625 
Q 16.5 51.421875 16.5 36.375 
Q 16.5 21.390625 20.328125 13.890625 
Q 24.171875 6.390625 31.78125 6.390625 
Q 39.453125 6.390625 43.28125 13.890625 
Q 47.125 21.390625 47.125 36.375 
Q 47.125 51.421875 43.28125 58.90625 
Q 39.453125 66.40625 31.78125 66.40625 
z
M 31.78125 74.21875 
Q 44.046875 74.21875 50.515625 64.515625 
Q 56.984375 54.828125 56.984375 36.375 
Q 56.984375 17.96875 50.515625 8.265625 
Q 44.046875 -1.421875 31.78125 -1.421875 
Q 19.53125 -1.421875 13.0625 8.265625 
Q 6.59375 17.96875 6.59375 36.375 
Q 6.59375 54.828125 13.0625 64.515625 
Q 19.53125 74.21875 31.78125 74.21875 
z
" id="DejaVuSans-48"/>
       </defs>
       <use xlink:href="#DejaVuSans-49"/>
       <use x="63.623047" xlink:href="#DejaVuSans-46"/>
       <use x="95.410156" xlink:href="#DejaVuSans-48"/>
      </g>
     </g>
    </g>
    <g id="xtick_2">
     <g id="line2d_2">
      <g>
       <use style="stroke:#000000;stroke-width:0.8;" x="150.757833" xlink:href="#m9984ebec1b" y="310.318125"/>
      </g>
     </g>
     <g id="text_2">
      <!-- 1.5 -->
      <g transform="translate(142.80627 324.916562)scale(0.1 -0.1)">
       <defs>
        <path d="M 10.796875 72.90625 
L 49.515625 72.90625 
L 49.515625 64.59375 
L 19.828125 64.59375 
L 19.828125 46.734375 
Q 21.96875 47.46875 24.109375 47.828125 
Q 26.265625 48.1875 28.421875 48.1875 
Q 40.625 48.1875 47.75 41.5 
Q 54.890625 34.8125 54.890625 23.390625 
Q 54.890625 11.625 47.5625 5.09375 
Q 40.234375 -1.421875 26.90625 -1.421875 
Q 22.3125 -1.421875 17.546875 -0.640625 
Q 12.796875 0.140625 7.71875 1.703125 
L 7.71875 11.625 
Q 12.109375 9.234375 16.796875 8.0625 
Q 21.484375 6.890625 26.703125 6.890625 
Q 35.15625 6.890625 40.078125 11.328125 
Q 45.015625 15.765625 45.015625 23.390625 
Q 45.015625 31 40.078125 35.4375 
Q 35.15625 39.890625 26.703125 39.890625 
Q 22.75 39.890625 18.8125 39.015625 
Q 14.890625 38.140625 10.796875 36.28125 
z
" id="DejaVuSans-53"/>
       </defs>
       <use xlink:href="#DejaVuSans-49"/>
       <use x="63.623047" xlink:href="#DejaVuSans-46"/>
       <use x="95.410156" xlink:href="#DejaVuSans-53"/>
      </g>
     </g>
    </g>
    <g id="xtick_3">
     <g id="line2d_3">
      <g>
       <use style="stroke:#000000;stroke-width:0.8;" x="206.861729" xlink:href="#m9984ebec1b" y="310.318125"/>
      </g>
     </g>
     <g id="text_3">
      <!-- 2.0 -->
      <g transform="translate(198.910166 324.916562)scale(0.1 -0.1)">
       <defs>
        <path d="M 19.1875 8.296875 
L 53.609375 8.296875 
L 53.609375 0 
L 7.328125 0 
L 7.328125 8.296875 
Q 12.9375 14.109375 22.625 23.890625 
Q 32.328125 33.6875 34.8125 36.53125 
Q 39.546875 41.84375 41.421875 45.53125 
Q 43.3125 49.21875 43.3125 52.78125 
Q 43.3125 58.59375 39.234375 62.25 
Q 35.15625 65.921875 28.609375 65.921875 
Q 23.96875 65.921875 18.8125 64.3125 
Q 13.671875 62.703125 7.8125 59.421875 
L 7.8125 69.390625 
Q 13.765625 71.78125 18.9375 73 
Q 24.125 74.21875 28.421875 74.21875 
Q 39.75 74.21875 46.484375 68.546875 
Q 53.21875 62.890625 53.21875 53.421875 
Q 53.21875 48.921875 51.53125 44.890625 
Q 49.859375 40.875 45.40625 35.40625 
Q 44.1875 33.984375 37.640625 27.21875 
Q 31.109375 20.453125 19.1875 8.296875 
z
" id="DejaVuSans-50"/>
       </defs>
       <use xlink:href="#DejaVuSans-50"/>
       <use x="63.623047" xlink:href="#DejaVuSans-46"/>
       <use x="95.410156" xlink:href="#DejaVuSans-48"/>
      </g>
     </g>
    </g>
    <g id="xtick_4">
     <g id="line2d_4">
      <g>
       <use style="stroke:#000000;stroke-width:0.8;" x="262.965625" xlink:href="#m9984ebec1b" y="310.318125"/>
      </g>
     </g>
     <g id="text_4">
      <!-- 2.5 -->
      <g transform="translate(255.014063 324.916562)scale(0.1 -0.1)">
       <use xlink:href="#DejaVuSans-50"/>
       <use x="63.623047" xlink:href="#DejaVuSans-46"/>
       <use x="95.410156" xlink:href="#DejaVuSans-53"/>
      </g>
     </g>
    </g>
    <g id="xtick_5">
     <g id="line2d_5">
      <g>
       <use style="stroke:#000000;stroke-width:0.8;" x="319.069521" xlink:href="#m9984ebec1b" y="310.318125"/>
      </g>
     </g>
     <g id="text_5">
      <!-- 3.0 -->
      <g transform="translate(311.117959 324.916562)scale(0.1 -0.1)">
       <defs>
        <path d="M 40.578125 39.3125 
Q 47.65625 37.796875 51.625 33 
Q 55.609375 28.21875 55.609375 21.1875 
Q 55.609375 10.40625 48.1875 4.484375 
Q 40.765625 -1.421875 27.09375 -1.421875 
Q 22.515625 -1.421875 17.65625 -0.515625 
Q 12.796875 0.390625 7.625 2.203125 
L 7.625 11.71875 
Q 11.71875 9.328125 16.59375 8.109375 
Q 21.484375 6.890625 26.8125 6.890625 
Q 36.078125 6.890625 40.9375 10.546875 
Q 45.796875 14.203125 45.796875 21.1875 
Q 45.796875 27.640625 41.28125 31.265625 
Q 36.765625 34.90625 28.71875 34.90625 
L 20.21875 34.90625 
L 20.21875 43.015625 
L 29.109375 43.015625 
Q 36.375 43.015625 40.234375 45.921875 
Q 44.09375 48.828125 44.09375 54.296875 
Q 44.09375 59.90625 40.109375 62.90625 
Q 36.140625 65.921875 28.71875 65.921875 
Q 24.65625 65.921875 20.015625 65.03125 
Q 15.375 64.15625 9.8125 62.3125 
L 9.8125 71.09375 
Q 15.4375 72.65625 20.34375 73.4375 
Q 25.25 74.21875 29.59375 74.21875 
Q 40.828125 74.21875 47.359375 69.109375 
Q 53.90625 64.015625 53.90625 55.328125 
Q 53.90625 49.265625 50.4375 45.09375 
Q 46.96875 40.921875 40.578125 39.3125 
z
" id="DejaVuSans-51"/>
       </defs>
       <use xlink:href="#DejaVuSans-51"/>
       <use x="63.623047" xlink:href="#DejaVuSans-46"/>
       <use x="95.410156" xlink:href="#DejaVuSans-48"/>
      </g>
     </g>
    </g>
    <g id="xtick_6">
     <g id="line2d_6">
      <g>
       <use style="stroke:#000000;stroke-width:0.8;" x="375.173417" xlink:href="#m9984ebec1b" y="310.318125"/>
      </g>
     </g>
     <g id="text_6">
      <!-- 3.5 -->
      <g transform="translate(367.221855 324.916562)scale(0.1 -0.1)">
       <use xlink:href="#DejaVuSans-51"/>
       <use x="63.623047" xlink:href="#DejaVuSans-46"/>
       <use x="95.410156" xlink:href="#DejaVuSans-53"/>
      </g>
     </g>
    </g>
    <g id="xtick_7">
     <g id="line2d_7">
      <g>
       <use style="stroke:#000000;stroke-width:0.8;" x="431.277313" xlink:href="#m9984ebec1b" y="310.318125"/>
      </g>
     </g>
     <g id="text_7">
      <!-- 4.0 -->
      <g transform="translate(423.325751 324.916562)scale(0.1 -0.1)">
       <defs>
        <path d="M 37.796875 64.3125 
L 12.890625 25.390625 
L 37.796875 25.390625 
z
M 35.203125 72.90625 
L 47.609375 72.90625 
L 47.609375 25.390625 
L 58.015625 25.390625 
L 58.015625 17.1875 
L 47.609375 17.1875 
L 47.609375 0 
L 37.796875 0 
L 37.796875 17.1875 
L 4.890625 17.1875 
L 4.890625 26.703125 
z
" id="DejaVuSans-52"/>
       </defs>
       <use xlink:href="#DejaVuSans-52"/>
       <use x="63.623047" xlink:href="#DejaVuSans-46"/>
       <use x="95.410156" xlink:href="#DejaVuSans-48"/>
      </g>
     </g>
    </g>
    <g id="text_8">
     <!-- CPU core # -->
     <g transform="translate(234.603906 338.594687)scale(0.1 -0.1)">
      <defs>
       <path d="M 64.40625 67.28125 
L 64.40625 56.890625 
Q 59.421875 61.53125 53.78125 63.8125 
Q 48.140625 66.109375 41.796875 66.109375 
Q 29.296875 66.109375 22.65625 58.46875 
Q 16.015625 50.828125 16.015625 36.375 
Q 16.015625 21.96875 22.65625 14.328125 
Q 29.296875 6.6875 41.796875 6.6875 
Q 48.140625 6.6875 53.78125 8.984375 
Q 59.421875 11.28125 64.40625 15.921875 
L 64.40625 5.609375 
Q 59.234375 2.09375 53.4375 0.328125 
Q 47.65625 -1.421875 41.21875 -1.421875 
Q 24.65625 -1.421875 15.125 8.703125 
Q 5.609375 18.84375 5.609375 36.375 
Q 5.609375 53.953125 15.125 64.078125 
Q 24.65625 74.21875 41.21875 74.21875 
Q 47.75 74.21875 53.53125 72.484375 
Q 59.328125 70.75 64.40625 67.28125 
z
" id="DejaVuSans-67"/>
       <path d="M 19.671875 64.796875 
L 19.671875 37.40625 
L 32.078125 37.40625 
Q 38.96875 37.40625 42.71875 40.96875 
Q 46.484375 44.53125 46.484375 51.125 
Q 46.484375 57.671875 42.71875 61.234375 
Q 38.96875 64.796875 32.078125 64.796875 
z
M 9.8125 72.90625 
L 32.078125 72.90625 
Q 44.34375 72.90625 50.609375 67.359375 
Q 56.890625 61.8125 56.890625 51.125 
Q 56.890625 40.328125 50.609375 34.8125 
Q 44.34375 29.296875 32.078125 29.296875 
L 19.671875 29.296875 
L 19.671875 0 
L 9.8125 0 
z
" id="DejaVuSans-80"/>
       <path d="M 8.6875 72.90625 
L 18.609375 72.90625 
L 18.609375 28.609375 
Q 18.609375 16.890625 22.84375 11.734375 
Q 27.09375 6.59375 36.625 6.59375 
Q 46.09375 6.59375 50.34375 11.734375 
Q 54.59375 16.890625 54.59375 28.609375 
L 54.59375 72.90625 
L 64.5 72.90625 
L 64.5 27.390625 
Q 64.5 13.140625 57.4375 5.859375 
Q 50.390625 -1.421875 36.625 -1.421875 
Q 22.796875 -1.421875 15.734375 5.859375 
Q 8.6875 13.140625 8.6875 27.390625 
z
" id="DejaVuSans-85"/>
       <path id="DejaVuSans-32"/>
       <path d="M 48.78125 52.59375 
L 48.78125 44.1875 
Q 44.96875 46.296875 41.140625 47.34375 
Q 37.3125 48.390625 33.40625 48.390625 
Q 24.65625 48.390625 19.8125 42.84375 
Q 14.984375 37.3125 14.984375 27.296875 
Q 14.984375 17.28125 19.8125 11.734375 
Q 24.65625 6.203125 33.40625 6.203125 
Q 37.3125 6.203125 41.140625 7.25 
Q 44.96875 8.296875 48.78125 10.40625 
L 48.78125 2.09375 
Q 45.015625 0.34375 40.984375 -0.53125 
Q 36.96875 -1.421875 32.421875 -1.421875 
Q 20.0625 -1.421875 12.78125 6.34375 
Q 5.515625 14.109375 5.515625 27.296875 
Q 5.515625 40.671875 12.859375 48.328125 
Q 20.21875 56 33.015625 56 
Q 37.15625 56 41.109375 55.140625 
Q 45.0625 54.296875 48.78125 52.59375 
z
" id="DejaVuSans-99"/>
       <path d="M 30.609375 48.390625 
Q 23.390625 48.390625 19.1875 42.75 
Q 14.984375 37.109375 14.984375 27.296875 
Q 14.984375 17.484375 19.15625 11.84375 
Q 23.34375 6.203125 30.609375 6.203125 
Q 37.796875 6.203125 41.984375 11.859375 
Q 46.1875 17.53125 46.1875 27.296875 
Q 46.1875 37.015625 41.984375 42.703125 
Q 37.796875 48.390625 30.609375 48.390625 
z
M 30.609375 56 
Q 42.328125 56 49.015625 48.375 
Q 55.71875 40.765625 55.71875 27.296875 
Q 55.71875 13.875 49.015625 6.21875 
Q 42.328125 -1.421875 30.609375 -1.421875 
Q 18.84375 -1.421875 12.171875 6.21875 
Q 5.515625 13.875 5.515625 27.296875 
Q 5.515625 40.765625 12.171875 48.375 
Q 18.84375 56 30.609375 56 
z
" id="DejaVuSans-111"/>
       <path d="M 41.109375 46.296875 
Q 39.59375 47.171875 37.8125 47.578125 
Q 36.03125 48 33.890625 48 
Q 26.265625 48 22.1875 43.046875 
Q 18.109375 38.09375 18.109375 28.8125 
L 18.109375 0 
L 9.078125 0 
L 9.078125 54.6875 
L 18.109375 54.6875 
L 18.109375 46.1875 
Q 20.953125 51.171875 25.484375 53.578125 
Q 30.03125 56 36.53125 56 
Q 37.453125 56 38.578125 55.875 
Q 39.703125 55.765625 41.0625 55.515625 
z
" id="DejaVuSans-114"/>
       <path d="M 56.203125 29.59375 
L 56.203125 25.203125 
L 14.890625 25.203125 
Q 15.484375 15.921875 20.484375 11.0625 
Q 25.484375 6.203125 34.421875 6.203125 
Q 39.59375 6.203125 44.453125 7.46875 
Q 49.3125 8.734375 54.109375 11.28125 
L 54.109375 2.78125 
Q 49.265625 0.734375 44.1875 -0.34375 
Q 39.109375 -1.421875 33.890625 -1.421875 
Q 20.796875 -1.421875 13.15625 6.1875 
Q 5.515625 13.8125 5.515625 26.8125 
Q 5.515625 40.234375 12.765625 48.109375 
Q 20.015625 56 32.328125 56 
Q 43.359375 56 49.78125 48.890625 
Q 56.203125 41.796875 56.203125 29.59375 
z
M 47.21875 32.234375 
Q 47.125 39.59375 43.09375 43.984375 
Q 39.0625 48.390625 32.421875 48.390625 
Q 24.90625 48.390625 20.390625 44.140625 
Q 15.875 39.890625 15.1875 32.171875 
z
" id="DejaVuSans-101"/>
       <path d="M 51.125 44 
L 36.921875 44 
L 32.8125 27.6875 
L 47.125 27.6875 
z
M 43.796875 71.78125 
L 38.71875 51.515625 
L 52.984375 51.515625 
L 58.109375 71.78125 
L 65.921875 71.78125 
L 60.890625 51.515625 
L 76.125 51.515625 
L 76.125 44 
L 58.984375 44 
L 54.984375 27.6875 
L 70.515625 27.6875 
L 70.515625 20.21875 
L 53.078125 20.21875 
L 48 0 
L 40.1875 0 
L 45.21875 20.21875 
L 30.90625 20.21875 
L 25.875 0 
L 18.015625 0 
L 23.09375 20.21875 
L 7.71875 20.21875 
L 7.71875 27.6875 
L 24.90625 27.6875 
L 29 44 
L 13.28125 44 
L 13.28125 51.515625 
L 30.90625 51.515625 
L 35.890625 71.78125 
z
" id="DejaVuSans-35"/>
      </defs>
      <use xlink:href="#DejaVuSans-67"/>
      <use x="69.824219" xlink:href="#DejaVuSans-80"/>
      <use x="130.126953" xlink:href="#DejaVuSans-85"/>
      <use x="203.320312" xlink:href="#DejaVuSans-32"/>
      <use x="235.107422" xlink:href="#DejaVuSans-99"/>
      <use x="290.087891" xlink:href="#DejaVuSans-111"/>
      <use x="351.269531" xlink:href="#DejaVuSans-114"/>
      <use x="390.132812" xlink:href="#DejaVuSans-101"/>
      <use x="451.65625" xlink:href="#DejaVuSans-32"/>
      <use x="483.443359" xlink:href="#DejaVuSans-35"/>
     </g>
    </g>
   </g>
   <g id="matplotlib.axis_2">
    <g id="ytick_1">
     <g id="line2d_8">
      <defs>
       <path d="M 0 0 
L -3.5 0 
" id="m1b0edf3982" style="stroke:#000000;stroke-width:0.8;"/>
      </defs>
      <g>
       <use style="stroke:#000000;stroke-width:0.8;" x="46.965625" xlink:href="#m1b0edf3982" y="297.227216"/>
      </g>
     </g>
     <g id="text_9">
      <!-- 0 -->
      <g transform="translate(33.603125 301.026435)scale(0.1 -0.1)">
       <use xlink:href="#DejaVuSans-48"/>
      </g>
     </g>
    </g>
    <g id="ytick_2">
     <g id="line2d_9">
      <g>
       <use style="stroke:#000000;stroke-width:0.8;" x="46.965625" xlink:href="#m1b0edf3982" y="244.86358"/>
      </g>
     </g>
     <g id="text_10">
      <!-- 20 -->
      <g transform="translate(27.240625 248.662798)scale(0.1 -0.1)">
       <use xlink:href="#DejaVuSans-50"/>
       <use x="63.623047" xlink:href="#DejaVuSans-48"/>
      </g>
     </g>
    </g>
    <g id="ytick_3">
     <g id="line2d_10">
      <g>
       <use style="stroke:#000000;stroke-width:0.8;" x="46.965625" xlink:href="#m1b0edf3982" y="192.499943"/>
      </g>
     </g>
     <g id="text_11">
      <!-- 40 -->
      <g transform="translate(27.240625 196.299162)scale(0.1 -0.1)">
       <use xlink:href="#DejaVuSans-52"/>
       <use x="63.623047" xlink:href="#DejaVuSans-48"/>
      </g>
     </g>
    </g>
    <g id="ytick_4">
     <g id="line2d_11">
      <g>
       <use style="stroke:#000000;stroke-width:0.8;" x="46.965625" xlink:href="#m1b0edf3982" y="140.136307"/>
      </g>
     </g>
     <g id="text_12">
      <!-- 60 -->
      <g transform="translate(27.240625 143.935526)scale(0.1 -0.1)">
       <defs>
        <path d="M 33.015625 40.375 
Q 26.375 40.375 22.484375 35.828125 
Q 18.609375 31.296875 18.609375 23.390625 
Q 18.609375 15.53125 22.484375 10.953125 
Q 26.375 6.390625 33.015625 6.390625 
Q 39.65625 6.390625 43.53125 10.953125 
Q 47.40625 15.53125 47.40625 23.390625 
Q 47.40625 31.296875 43.53125 35.828125 
Q 39.65625 40.375 33.015625 40.375 
z
M 52.59375 71.296875 
L 52.59375 62.3125 
Q 48.875 64.0625 45.09375 64.984375 
Q 41.3125 65.921875 37.59375 65.921875 
Q 27.828125 65.921875 22.671875 59.328125 
Q 17.53125 52.734375 16.796875 39.40625 
Q 19.671875 43.65625 24.015625 45.921875 
Q 28.375 48.1875 33.59375 48.1875 
Q 44.578125 48.1875 50.953125 41.515625 
Q 57.328125 34.859375 57.328125 23.390625 
Q 57.328125 12.15625 50.6875 5.359375 
Q 44.046875 -1.421875 33.015625 -1.421875 
Q 20.359375 -1.421875 13.671875 8.265625 
Q 6.984375 17.96875 6.984375 36.375 
Q 6.984375 53.65625 15.1875 63.9375 
Q 23.390625 74.21875 37.203125 74.21875 
Q 40.921875 74.21875 44.703125 73.484375 
Q 48.484375 72.75 52.59375 71.296875 
z
" id="DejaVuSans-54"/>
       </defs>
       <use xlink:href="#DejaVuSans-54"/>
       <use x="63.623047" xlink:href="#DejaVuSans-48"/>
      </g>
     </g>
    </g>
    <g id="ytick_5">
     <g id="line2d_12">
      <g>
       <use style="stroke:#000000;stroke-width:0.8;" x="46.965625" xlink:href="#m1b0edf3982" y="87.77267"/>
      </g>
     </g>
     <g id="text_13">
      <!-- 80 -->
      <g transform="translate(27.240625 91.571889)scale(0.1 -0.1)">
       <defs>
        <path d="M 31.78125 34.625 
Q 24.75 34.625 20.71875 30.859375 
Q 16.703125 27.09375 16.703125 20.515625 
Q 16.703125 13.921875 20.71875 10.15625 
Q 24.75 6.390625 31.78125 6.390625 
Q 38.8125 6.390625 42.859375 10.171875 
Q 46.921875 13.96875 46.921875 20.515625 
Q 46.921875 27.09375 42.890625 30.859375 
Q 38.875 34.625 31.78125 34.625 
z
M 21.921875 38.8125 
Q 15.578125 40.375 12.03125 44.71875 
Q 8.5 49.078125 8.5 55.328125 
Q 8.5 64.0625 14.71875 69.140625 
Q 20.953125 74.21875 31.78125 74.21875 
Q 42.671875 74.21875 48.875 69.140625 
Q 55.078125 64.0625 55.078125 55.328125 
Q 55.078125 49.078125 51.53125 44.71875 
Q 48 40.375 41.703125 38.8125 
Q 48.828125 37.15625 52.796875 32.3125 
Q 56.78125 27.484375 56.78125 20.515625 
Q 56.78125 9.90625 50.3125 4.234375 
Q 43.84375 -1.421875 31.78125 -1.421875 
Q 19.734375 -1.421875 13.25 4.234375 
Q 6.78125 9.90625 6.78125 20.515625 
Q 6.78125 27.484375 10.78125 32.3125 
Q 14.796875 37.15625 21.921875 38.8125 
z
M 18.3125 54.390625 
Q 18.3125 48.734375 21.84375 45.5625 
Q 25.390625 42.390625 31.78125 42.390625 
Q 38.140625 42.390625 41.71875 45.5625 
Q 45.3125 48.734375 45.3125 54.390625 
Q 45.3125 60.0625 41.71875 63.234375 
Q 38.140625 66.40625 31.78125 66.40625 
Q 25.390625 66.40625 21.84375 63.234375 
Q 18.3125 60.0625 18.3125 54.390625 
z
" id="DejaVuSans-56"/>
       </defs>
       <use xlink:href="#DejaVuSans-56"/>
       <use x="63.623047" xlink:href="#DejaVuSans-48"/>
      </g>
     </g>
    </g>
    <g id="ytick_6">
     <g id="line2d_13">
      <g>
       <use style="stroke:#000000;stroke-width:0.8;" x="46.965625" xlink:href="#m1b0edf3982" y="35.409034"/>
      </g>
     </g>
     <g id="text_14">
      <!-- 100 -->
      <g transform="translate(20.878125 39.208253)scale(0.1 -0.1)">
       <use xlink:href="#DejaVuSans-49"/>
       <use x="63.623047" xlink:href="#DejaVuSans-48"/>
       <use x="127.246094" xlink:href="#DejaVuSans-48"/>
      </g>
     </g>
    </g>
    <g id="text_15">
     <!-- CPU % used -->
     <g transform="translate(14.798437 196.436875)rotate(-90)scale(0.1 -0.1)">
      <defs>
       <path d="M 72.703125 32.078125 
Q 68.453125 32.078125 66.03125 28.46875 
Q 63.625 24.859375 63.625 18.40625 
Q 63.625 12.0625 66.03125 8.421875 
Q 68.453125 4.78125 72.703125 4.78125 
Q 76.859375 4.78125 79.265625 8.421875 
Q 81.6875 12.0625 81.6875 18.40625 
Q 81.6875 24.8125 79.265625 28.4375 
Q 76.859375 32.078125 72.703125 32.078125 
z
M 72.703125 38.28125 
Q 80.421875 38.28125 84.953125 32.90625 
Q 89.5 27.546875 89.5 18.40625 
Q 89.5 9.28125 84.9375 3.921875 
Q 80.375 -1.421875 72.703125 -1.421875 
Q 64.890625 -1.421875 60.34375 3.921875 
Q 55.8125 9.28125 55.8125 18.40625 
Q 55.8125 27.59375 60.375 32.9375 
Q 64.9375 38.28125 72.703125 38.28125 
z
M 22.3125 68.015625 
Q 18.109375 68.015625 15.6875 64.375 
Q 13.28125 60.75 13.28125 54.390625 
Q 13.28125 47.953125 15.671875 44.328125 
Q 18.0625 40.71875 22.3125 40.71875 
Q 26.5625 40.71875 28.96875 44.328125 
Q 31.390625 47.953125 31.390625 54.390625 
Q 31.390625 60.6875 28.953125 64.34375 
Q 26.515625 68.015625 22.3125 68.015625 
z
M 66.40625 74.21875 
L 74.21875 74.21875 
L 28.609375 -1.421875 
L 20.796875 -1.421875 
z
M 22.3125 74.21875 
Q 30.03125 74.21875 34.609375 68.875 
Q 39.203125 63.53125 39.203125 54.390625 
Q 39.203125 45.171875 34.640625 39.84375 
Q 30.078125 34.515625 22.3125 34.515625 
Q 14.546875 34.515625 10.03125 39.859375 
Q 5.515625 45.21875 5.515625 54.390625 
Q 5.515625 63.484375 10.046875 68.84375 
Q 14.59375 74.21875 22.3125 74.21875 
z
" id="DejaVuSans-37"/>
       <path d="M 8.5 21.578125 
L 8.5 54.6875 
L 17.484375 54.6875 
L 17.484375 21.921875 
Q 17.484375 14.15625 20.5 10.265625 
Q 23.53125 6.390625 29.59375 6.390625 
Q 36.859375 6.390625 41.078125 11.03125 
Q 45.3125 15.671875 45.3125 23.6875 
L 45.3125 54.6875 
L 54.296875 54.6875 
L 54.296875 0 
L 45.3125 0 
L 45.3125 8.40625 
Q 42.046875 3.421875 37.71875 1 
Q 33.40625 -1.421875 27.6875 -1.421875 
Q 18.265625 -1.421875 13.375 4.4375 
Q 8.5 10.296875 8.5 21.578125 
z
M 31.109375 56 
z
" id="DejaVuSans-117"/>
       <path d="M 44.28125 53.078125 
L 44.28125 44.578125 
Q 40.484375 46.53125 36.375 47.5 
Q 32.28125 48.484375 27.875 48.484375 
Q 21.1875 48.484375 17.84375 46.4375 
Q 14.5 44.390625 14.5 40.28125 
Q 14.5 37.15625 16.890625 35.375 
Q 19.28125 33.59375 26.515625 31.984375 
L 29.59375 31.296875 
Q 39.15625 29.25 43.1875 25.515625 
Q 47.21875 21.78125 47.21875 15.09375 
Q 47.21875 7.46875 41.1875 3.015625 
Q 35.15625 -1.421875 24.609375 -1.421875 
Q 20.21875 -1.421875 15.453125 -0.5625 
Q 10.6875 0.296875 5.421875 2 
L 5.421875 11.28125 
Q 10.40625 8.6875 15.234375 7.390625 
Q 20.0625 6.109375 24.8125 6.109375 
Q 31.15625 6.109375 34.5625 8.28125 
Q 37.984375 10.453125 37.984375 14.40625 
Q 37.984375 18.0625 35.515625 20.015625 
Q 33.0625 21.96875 24.703125 23.78125 
L 21.578125 24.515625 
Q 13.234375 26.265625 9.515625 29.90625 
Q 5.8125 33.546875 5.8125 39.890625 
Q 5.8125 47.609375 11.28125 51.796875 
Q 16.75 56 26.8125 56 
Q 31.78125 56 36.171875 55.265625 
Q 40.578125 54.546875 44.28125 53.078125 
z
" id="DejaVuSans-115"/>
       <path d="M 45.40625 46.390625 
L 45.40625 75.984375 
L 54.390625 75.984375 
L 54.390625 0 
L 45.40625 0 
L 45.40625 8.203125 
Q 42.578125 3.328125 38.25 0.953125 
Q 33.9375 -1.421875 27.875 -1.421875 
Q 17.96875 -1.421875 11.734375 6.484375 
Q 5.515625 14.40625 5.515625 27.296875 
Q 5.515625 40.1875 11.734375 48.09375 
Q 17.96875 56 27.875 56 
Q 33.9375 56 38.25 53.625 
Q 42.578125 51.265625 45.40625 46.390625 
z
M 14.796875 27.296875 
Q 14.796875 17.390625 18.875 11.75 
Q 22.953125 6.109375 30.078125 6.109375 
Q 37.203125 6.109375 41.296875 11.75 
Q 45.40625 17.390625 45.40625 27.296875 
Q 45.40625 37.203125 41.296875 42.84375 
Q 37.203125 48.484375 30.078125 48.484375 
Q 22.953125 48.484375 18.875 42.84375 
Q 14.796875 37.203125 14.796875 27.296875 
z
" id="DejaVuSans-100"/>
      </defs>
      <use xlink:href="#DejaVuSans-67"/>
      <use x="69.824219" xlink:href="#DejaVuSans-80"/>
      <use x="130.126953" xlink:href="#DejaVuSans-85"/>
      <use x="203.320312" xlink:href="#DejaVuSans-32"/>
      <use x="235.107422" xlink:href="#DejaVuSans-37"/>
      <use x="330.126953" xlink:href="#DejaVuSans-32"/>
      <use x="361.914062" xlink:href="#DejaVuSans-117"/>
      <use x="425.292969" xlink:href="#DejaVuSans-115"/>
      <use x="477.392578" xlink:href="#DejaVuSans-101"/>
      <use x="538.916016" xlink:href="#DejaVuSans-100"/>
     </g>
    </g>
   </g>
   <g id="LineCollection_1">
    <path clip-path="url(#p6a1ac5f33b)" d="M 80.627963 55.112506 
L 108.679911 55.112506 
" style="fill:none;stroke:#1f77b4;stroke-width:1.5;"/>
    <path clip-path="url(#p6a1ac5f33b)" d="M 192.835755 56.963631 
L 220.887703 56.963631 
" style="fill:none;stroke:#1f77b4;stroke-width:1.5;"/>
    <path clip-path="url(#p6a1ac5f33b)" d="M 305.043547 58.188349 
L 333.095495 58.188349 
" style="fill:none;stroke:#1f77b4;stroke-width:1.5;"/>
    <path clip-path="url(#p6a1ac5f33b)" d="M 417.251339 45.2847 
L 445.303287 45.2847 
" style="fill:none;stroke:#1f77b4;stroke-width:1.5;"/>
   </g>
   <g id="LineCollection_2">
    <path clip-path="url(#p6a1ac5f33b)" d="M 80.627963 35.409034 
L 108.679911 35.409034 
" style="fill:none;stroke:#1f77b4;stroke-width:1.5;"/>
    <path clip-path="url(#p6a1ac5f33b)" d="M 192.835755 35.409034 
L 220.887703 35.409034 
" style="fill:none;stroke:#1f77b4;stroke-width:1.5;"/>
    <path clip-path="url(#p6a1ac5f33b)" d="M 305.043547 35.409034 
L 333.095495 35.409034 
" style="fill:none;stroke:#1f77b4;stroke-width:1.5;"/>
    <path clip-path="url(#p6a1ac5f33b)" d="M 417.251339 35.409034 
L 445.303287 35.409034 
" style="fill:none;stroke:#1f77b4;stroke-width:1.5;"/>
   </g>
   <g id="LineCollection_3">
    <path clip-path="url(#p6a1ac5f33b)" d="M 80.627963 297.227216 
L 108.679911 297.227216 
" style="fill:none;stroke:#1f77b4;stroke-width:1.5;"/>
    <path clip-path="url(#p6a1ac5f33b)" d="M 192.835755 297.227216 
L 220.887703 297.227216 
" style="fill:none;stroke:#1f77b4;stroke-width:1.5;"/>
    <path clip-path="url(#p6a1ac5f33b)" d="M 305.043547 297.227216 
L 333.095495 297.227216 
" style="fill:none;stroke:#1f77b4;stroke-width:1.5;"/>
    <path clip-path="url(#p6a1ac5f33b)" d="M 417.251339 297.227216 
L 445.303287 297.227216 
" style="fill:none;stroke:#1f77b4;stroke-width:1.5;"/>
   </g>
   <g id="LineCollection_4">
    <path clip-path="url(#p6a1ac5f33b)" d="M 94.653937 297.227216 
L 94.653937 35.409034 
" style="fill:none;stroke:#1f77b4;stroke-width:1.5;"/>
    <path clip-path="url(#p6a1ac5f33b)" d="M 206.861729 297.227216 
L 206.861729 35.409034 
" style="fill:none;stroke:#1f77b4;stroke-width:1.5;"/>
    <path clip-path="url(#p6a1ac5f33b)" d="M 319.069521 297.227216 
L 319.069521 35.409034 
" style="fill:none;stroke:#1f77b4;stroke-width:1.5;"/>
    <path clip-path="url(#p6a1ac5f33b)" d="M 431.277313 297.227216 
L 431.277313 35.409034 
" style="fill:none;stroke:#1f77b4;stroke-width:1.5;"/>
   </g>
   <g id="LineCollection_5">
    <path clip-path="url(#p6a1ac5f33b)" d="M 80.627963 38.027216 
L 108.679911 38.027216 
" style="fill:none;stroke:#1f77b4;stroke-width:1.5;"/>
    <path clip-path="url(#p6a1ac5f33b)" d="M 192.835755 38.027216 
L 220.887703 38.027216 
" style="fill:none;stroke:#1f77b4;stroke-width:1.5;"/>
    <path clip-path="url(#p6a1ac5f33b)" d="M 305.043547 38.027216 
L 333.095495 38.027216 
" style="fill:none;stroke:#1f77b4;stroke-width:1.5;"/>
    <path clip-path="url(#p6a1ac5f33b)" d="M 417.251339 35.409034 
L 445.303287 35.409034 
" style="fill:none;stroke:#1f77b4;stroke-width:1.5;"/>
   </g>
   <g id="patch_3">
    <path d="M 46.965625 310.318125 
L 46.965625 22.318125 
" style="fill:none;stroke:#000000;stroke-linecap:square;stroke-linejoin:miter;stroke-width:0.8;"/>
   </g>
   <g id="patch_4">
    <path d="M 478.965625 310.318125 
L 478.965625 22.318125 
" style="fill:none;stroke:#000000;stroke-linecap:square;stroke-linejoin:miter;stroke-width:0.8;"/>
   </g>
   <g id="patch_5">
    <path d="M 46.965625 310.318125 
L 478.965625 310.318125 
" style="fill:none;stroke:#000000;stroke-linecap:square;stroke-linejoin:miter;stroke-width:0.8;"/>
   </g>
   <g id="patch_6">
    <path d="M 46.965625 22.318125 
L 478.965625 22.318125 
" style="fill:none;stroke:#000000;stroke-linecap:square;stroke-linejoin:miter;stroke-width:0.8;"/>
   </g>
   <g id="text_16">
    <!-- CPU Usage for ShardLongReads, shard -1 -->
    <g transform="translate(139.440625 16.318125)scale(0.12 -0.12)">
     <defs>
      <path d="M 34.28125 27.484375 
Q 23.390625 27.484375 19.1875 25 
Q 14.984375 22.515625 14.984375 16.5 
Q 14.984375 11.71875 18.140625 8.90625 
Q 21.296875 6.109375 26.703125 6.109375 
Q 34.1875 6.109375 38.703125 11.40625 
Q 43.21875 16.703125 43.21875 25.484375 
L 43.21875 27.484375 
z
M 52.203125 31.203125 
L 52.203125 0 
L 43.21875 0 
L 43.21875 8.296875 
Q 40.140625 3.328125 35.546875 0.953125 
Q 30.953125 -1.421875 24.3125 -1.421875 
Q 15.921875 -1.421875 10.953125 3.296875 
Q 6 8.015625 6 15.921875 
Q 6 25.140625 12.171875 29.828125 
Q 18.359375 34.515625 30.609375 34.515625 
L 43.21875 34.515625 
L 43.21875 35.40625 
Q 43.21875 41.609375 39.140625 45 
Q 35.0625 48.390625 27.6875 48.390625 
Q 23 48.390625 18.546875 47.265625 
Q 14.109375 46.140625 10.015625 43.890625 
L 10.015625 52.203125 
Q 14.9375 54.109375 19.578125 55.046875 
Q 24.21875 56 28.609375 56 
Q 40.484375 56 46.34375 49.84375 
Q 52.203125 43.703125 52.203125 31.203125 
z
" id="DejaVuSans-97"/>
      <path d="M 45.40625 27.984375 
Q 45.40625 37.75 41.375 43.109375 
Q 37.359375 48.484375 30.078125 48.484375 
Q 22.859375 48.484375 18.828125 43.109375 
Q 14.796875 37.75 14.796875 27.984375 
Q 14.796875 18.265625 18.828125 12.890625 
Q 22.859375 7.515625 30.078125 7.515625 
Q 37.359375 7.515625 41.375 12.890625 
Q 45.40625 18.265625 45.40625 27.984375 
z
M 54.390625 6.78125 
Q 54.390625 -7.171875 48.1875 -13.984375 
Q 42 -20.796875 29.203125 -20.796875 
Q 24.46875 -20.796875 20.265625 -20.09375 
Q 16.0625 -19.390625 12.109375 -17.921875 
L 12.109375 -9.1875 
Q 16.0625 -11.328125 19.921875 -12.34375 
Q 23.78125 -13.375 27.78125 -13.375 
Q 36.625 -13.375 41.015625 -8.765625 
Q 45.40625 -4.15625 45.40625 5.171875 
L 45.40625 9.625 
Q 42.625 4.78125 38.28125 2.390625 
Q 33.9375 0 27.875 0 
Q 17.828125 0 11.671875 7.65625 
Q 5.515625 15.328125 5.515625 27.984375 
Q 5.515625 40.671875 11.671875 48.328125 
Q 17.828125 56 27.875 56 
Q 33.9375 56 38.28125 53.609375 
Q 42.625 51.21875 45.40625 46.390625 
L 45.40625 54.6875 
L 54.390625 54.6875 
z
" id="DejaVuSans-103"/>
      <path d="M 37.109375 75.984375 
L 37.109375 68.5 
L 28.515625 68.5 
Q 23.6875 68.5 21.796875 66.546875 
Q 19.921875 64.59375 19.921875 59.515625 
L 19.921875 54.6875 
L 34.71875 54.6875 
L 34.71875 47.703125 
L 19.921875 47.703125 
L 19.921875 0 
L 10.890625 0 
L 10.890625 47.703125 
L 2.296875 47.703125 
L 2.296875 54.6875 
L 10.890625 54.6875 
L 10.890625 58.5 
Q 10.890625 67.625 15.140625 71.796875 
Q 19.390625 75.984375 28.609375 75.984375 
z
" id="DejaVuSans-102"/>
      <path d="M 53.515625 70.515625 
L 53.515625 60.890625 
Q 47.90625 63.578125 42.921875 64.890625 
Q 37.9375 66.21875 33.296875 66.21875 
Q 25.25 66.21875 20.875 63.09375 
Q 16.5 59.96875 16.5 54.203125 
Q 16.5 49.359375 19.40625 46.890625 
Q 22.3125 44.4375 30.421875 42.921875 
L 36.375 41.703125 
Q 47.40625 39.59375 52.65625 34.296875 
Q 57.90625 29 57.90625 20.125 
Q 57.90625 9.515625 50.796875 4.046875 
Q 43.703125 -1.421875 29.984375 -1.421875 
Q 24.8125 -1.421875 18.96875 -0.25 
Q 13.140625 0.921875 6.890625 3.21875 
L 6.890625 13.375 
Q 12.890625 10.015625 18.65625 8.296875 
Q 24.421875 6.59375 29.984375 6.59375 
Q 38.421875 6.59375 43.015625 9.90625 
Q 47.609375 13.234375 47.609375 19.390625 
Q 47.609375 24.75 44.3125 27.78125 
Q 41.015625 30.8125 33.5 32.328125 
L 27.484375 33.5 
Q 16.453125 35.6875 11.515625 40.375 
Q 6.59375 45.0625 6.59375 53.421875 
Q 6.59375 63.09375 13.40625 68.65625 
Q 20.21875 74.21875 32.171875 74.21875 
Q 37.3125 74.21875 42.625 73.28125 
Q 47.953125 72.359375 53.515625 70.515625 
z
" id="DejaVuSans-83"/>
      <path d="M 54.890625 33.015625 
L 54.890625 0 
L 45.90625 0 
L 45.90625 32.71875 
Q 45.90625 40.484375 42.875 44.328125 
Q 39.84375 48.1875 33.796875 48.1875 
Q 26.515625 48.1875 22.3125 43.546875 
Q 18.109375 38.921875 18.109375 30.90625 
L 18.109375 0 
L 9.078125 0 
L 9.078125 75.984375 
L 18.109375 75.984375 
L 18.109375 46.1875 
Q 21.34375 51.125 25.703125 53.5625 
Q 30.078125 56 35.796875 56 
Q 45.21875 56 50.046875 50.171875 
Q 54.890625 44.34375 54.890625 33.015625 
z
" id="DejaVuSans-104"/>
      <path d="M 9.8125 72.90625 
L 19.671875 72.90625 
L 19.671875 8.296875 
L 55.171875 8.296875 
L 55.171875 0 
L 9.8125 0 
z
" id="DejaVuSans-76"/>
      <path d="M 54.890625 33.015625 
L 54.890625 0 
L 45.90625 0 
L 45.90625 32.71875 
Q 45.90625 40.484375 42.875 44.328125 
Q 39.84375 48.1875 33.796875 48.1875 
Q 26.515625 48.1875 22.3125 43.546875 
Q 18.109375 38.921875 18.109375 30.90625 
L 18.109375 0 
L 9.078125 0 
L 9.078125 54.6875 
L 18.109375 54.6875 
L 18.109375 46.1875 
Q 21.34375 51.125 25.703125 53.5625 
Q 30.078125 56 35.796875 56 
Q 45.21875 56 50.046875 50.171875 
Q 54.890625 44.34375 54.890625 33.015625 
z
" id="DejaVuSans-110"/>
      <path d="M 44.390625 34.1875 
Q 47.5625 33.109375 50.5625 29.59375 
Q 53.5625 26.078125 56.59375 19.921875 
L 66.609375 0 
L 56 0 
L 46.6875 18.703125 
Q 43.0625 26.03125 39.671875 28.421875 
Q 36.28125 30.8125 30.421875 30.8125 
L 19.671875 30.8125 
L 19.671875 0 
L 9.8125 0 
L 9.8125 72.90625 
L 32.078125 72.90625 
Q 44.578125 72.90625 50.734375 67.671875 
Q 56.890625 62.453125 56.890625 51.90625 
Q 56.890625 45.015625 53.6875 40.46875 
Q 50.484375 35.9375 44.390625 34.1875 
z
M 19.671875 64.796875 
L 19.671875 38.921875 
L 32.078125 38.921875 
Q 39.203125 38.921875 42.84375 42.21875 
Q 46.484375 45.515625 46.484375 51.90625 
Q 46.484375 58.296875 42.84375 61.546875 
Q 39.203125 64.796875 32.078125 64.796875 
z
" id="DejaVuSans-82"/>
      <path d="M 11.71875 12.40625 
L 22.015625 12.40625 
L 22.015625 4 
L 14.015625 -11.625 
L 7.71875 -11.625 
L 11.71875 4 
z
" id="DejaVuSans-44"/>
      <path d="M 4.890625 31.390625 
L 31.203125 31.390625 
L 31.203125 23.390625 
L 4.890625 23.390625 
z
" id="DejaVuSans-45"/>
     </defs>
     <use xlink:href="#DejaVuSans-67"/>
     <use x="69.824219" xlink:href="#DejaVuSans-80"/>
     <use x="130.126953" xlink:href="#DejaVuSans-85"/>
     <use x="203.320312" xlink:href="#DejaVuSans-32"/>
     <use x="235.107422" xlink:href="#DejaVuSans-85"/>
     <use x="308.300781" xlink:href="#DejaVuSans-115"/>
     <use x="360.400391" xlink:href="#DejaVuSans-97"/>
     <use x="421.679688" xlink:href="#DejaVuSans-103"/>
     <use x="485.15625" xlink:href="#DejaVuSans-101"/>
     <use x="546.679688" xlink:href="#DejaVuSans-32"/>
     <use x="578.466797" xlink:href="#DejaVuSans-102"/>
     <use x="613.671875" xlink:href="#DejaVuSans-111"/>
     <use x="674.853516" xlink:href="#DejaVuSans-114"/>
     <use x="715.966797" xlink:href="#DejaVuSans-32"/>
     <use x="747.753906" xlink:href="#DejaVuSans-83"/>
     <use x="811.230469" xlink:href="#DejaVuSans-104"/>
     <use x="874.609375" xlink:href="#DejaVuSans-97"/>
     <use x="935.888672" xlink:href="#DejaVuSans-114"/>
     <use x="975.251953" xlink:href="#DejaVuSans-100"/>
     <use x="1038.728516" xlink:href="#DejaVuSans-76"/>
     <use x="1092.691406" xlink:href="#DejaVuSans-111"/>
     <use x="1153.873047" xlink:href="#DejaVuSans-110"/>
     <use x="1217.251953" xlink:href="#DejaVuSans-103"/>
     <use x="1280.728516" xlink:href="#DejaVuSans-82"/>
     <use x="1345.710938" xlink:href="#DejaVuSans-101"/>
     <use x="1407.234375" xlink:href="#DejaVuSans-97"/>
     <use x="1468.513672" xlink:href="#DejaVuSans-100"/>
     <use x="1531.990234" xlink:href="#DejaVuSans-115"/>
     <use x="1584.089844" xlink:href="#DejaVuSans-44"/>
     <use x="1615.876953" xlink:href="#DejaVuSans-32"/>
     <use x="1647.664062" xlink:href="#DejaVuSans-115"/>
     <use x="1699.763672" xlink:href="#DejaVuSans-104"/>
     <use x="1763.142578" xlink:href="#DejaVuSans-97"/>
     <use x="1824.421875" xlink:href="#DejaVuSans-114"/>
     <use x="1863.785156" xlink:href="#DejaVuSans-100"/>
     <use x="1927.261719" xlink:href="#DejaVuSans-32"/>
     <use x="1959.048828" xlink:href="#DejaVuSans-45"/>
     <use x="1995.132812" xlink:href="#DejaVuSans-49"/>
    </g>
   </g>
  </g>
 </g>
 <defs>
  <clipPath id="p6a1ac5f33b">
   <rect height="288" width="432" x="46.965625" y="22.318125"/>
  </clipPath>
 </defs>
</svg>
